<svg width="100" height="100" viewBox="0 0 100 100" fill="none" xmlns="http://www.w3.org/2000/svg">
<g clip-path="url(#clip0_356_12089)">
<path d="M65.6294 -0.0393418C65.7738 -0.0407206 65.9182 -0.0420995 66.0669 -0.0435201C72.0135 -0.0874422 72.0135 -0.0874422 74.6092 0.586268C74.7702 0.626111 74.9312 0.665954 75.097 0.707004C77.4453 1.29696 79.6633 2.05658 81.8358 3.12533C81.959 3.18522 82.0823 3.24511 82.2092 3.30682C89.9596 7.11681 95.7998 14.0158 98.5984 22.1481C98.9215 23.1529 99.1776 24.1675 99.4139 25.1956C99.4761 25.4441 99.5383 25.6926 99.6024 25.9487C100.521 30.0546 100.462 35.1874 99.4139 39.2581C99.3761 39.415 99.3384 39.5718 99.2995 39.7334C98.1141 44.5927 95.9205 49.1809 92.578 52.93C92.4312 53.0979 92.2844 53.2659 92.1332 53.4389C91.7017 53.9264 91.2634 54.4063 90.8202 54.8831C90.7008 55.0131 90.5815 55.143 90.4585 55.2768C85.4096 60.5621 77.6359 64.185 70.3266 64.4849C70.0599 64.4887 69.7932 64.4914 69.5265 64.4931C69.3821 64.4945 69.2378 64.4959 69.089 64.4973C63.1523 64.5412 63.1523 64.5412 60.5467 63.8675C60.3878 63.8287 60.2289 63.7899 60.0652 63.7499C54.7409 62.4314 49.9684 59.9748 45.9326 56.248C45.5916 55.9364 45.2473 55.645 44.8851 55.3592C44.1684 54.7381 43.5744 54.0484 42.9686 53.3206C42.8457 53.1759 42.7229 53.0311 42.5963 52.882C38.3146 47.7083 35.355 40.9525 35.3117 34.1754C35.3104 34.0311 35.309 33.8867 35.3076 33.7379C35.2636 27.7914 35.2636 27.7914 35.9373 25.1956C35.9772 25.0347 36.017 24.8737 36.0581 24.7078C36.6482 22.3589 37.4096 20.1429 38.4764 17.9691C38.5353 17.8469 38.5941 17.7247 38.6547 17.5988C39.9266 14.9845 41.589 12.6863 43.5706 10.5609C43.8793 10.2277 44.1648 9.8904 44.4456 9.53402C45.0668 8.81734 45.7565 8.22334 46.4842 7.61752C46.629 7.49465 46.7738 7.37179 46.9229 7.2452C52.0783 2.9787 58.8762 0.00379066 65.6294 -0.0393418Z" fill="#FDA832"/>
<path d="M41.6016 58.5947C41.8224 58.6631 42.0432 58.7316 42.2707 58.8022C44.7919 59.6888 47.001 61.0661 49.0618 62.744C51.363 64.5978 53.8703 64.7051 56.7391 64.6959C57.0072 64.6971 57.2754 64.6986 57.5435 64.7003C58.6705 64.7075 59.7975 64.7112 60.9245 64.709C61.6185 64.7078 62.3124 64.7115 63.0063 64.718C63.3938 64.7202 63.7813 64.7173 64.1688 64.7143C65.7362 64.7311 66.8378 64.977 68.1641 65.8212C68.4783 66.0206 68.4783 66.0206 68.7989 66.2241C69.944 67.2841 70.5494 68.7647 70.6476 70.3033C70.675 71.9328 70.319 73.2889 69.336 74.6103C68.0472 75.9177 66.6467 76.6234 64.8166 76.6444C64.641 76.6435 64.4655 76.6426 64.2846 76.6417C64.0961 76.643 63.9076 76.6444 63.7134 76.6458C63.0932 76.6497 62.4732 76.6496 61.8531 76.6496C61.4204 76.6519 60.9878 76.6545 60.5551 76.6574C59.4177 76.6645 58.2803 76.6684 57.1429 76.6714C55.3224 76.6763 53.502 76.684 51.6817 76.6952C51.0469 76.6984 50.4122 76.6991 49.7774 76.6997C49.387 76.7016 48.9966 76.7036 48.6062 76.7057C48.4306 76.7052 48.255 76.7047 48.0741 76.7042C46.7982 76.7146 45.7412 76.7673 44.751 77.6498C44.2033 78.3917 44.0852 79.1706 44.1407 80.079C44.4536 81.0003 44.8871 81.5075 45.7032 82.0322C46.3621 82.1995 46.9782 82.2523 47.6564 82.2536C47.8482 82.2544 48.0401 82.2553 48.2378 82.2561C48.4461 82.256 48.6544 82.2559 48.869 82.2558C49.2008 82.2568 49.2008 82.2568 49.5393 82.2578C50.2709 82.2597 51.0026 82.2601 51.7342 82.2603C52.2439 82.2609 52.7536 82.2616 53.2633 82.2622C54.3327 82.2635 55.402 82.2638 56.4714 82.2637C57.7023 82.2635 58.9332 82.2656 60.1641 82.2687C61.3528 82.2716 62.5415 82.2723 63.7303 82.2721C64.2337 82.2724 64.7371 82.2732 65.2405 82.2747C65.9471 82.2767 66.6538 82.2761 67.3604 82.2749C67.566 82.276 67.7715 82.2771 67.9833 82.2782C71.1482 82.265 73.6076 81.5728 75.9331 79.3504C76.5651 78.7051 77.1556 78.0377 77.7344 77.3447C78.1077 76.9042 78.4824 76.4652 78.8575 76.0263C79.0082 75.8496 79.0082 75.8496 79.162 75.6692C79.8224 74.8985 80.4982 74.1453 81.189 73.4018C81.8507 72.6896 82.4842 71.9626 83.0933 71.2045C83.9456 70.1456 84.8603 69.1555 85.7865 68.1619C86.2014 67.7168 86.6107 67.2678 87.0118 66.81C87.1153 66.6919 87.2187 66.5738 87.3253 66.4522C87.6326 66.0904 87.9321 65.7244 88.2302 65.3551C89.4864 63.8175 90.6376 62.5618 92.5782 61.915C94.8417 61.7598 96.4785 61.8732 98.3033 63.331C99.3543 64.3025 99.9579 65.5322 100.047 66.9626C100.145 71.0645 98.2856 73.3518 95.8733 76.4794C95.2361 77.307 94.6029 78.1375 93.9698 78.9682C93.8386 79.1403 93.7073 79.3124 93.5721 79.4897C92.673 80.6703 91.7818 81.8565 90.8936 83.0453C89.8342 84.4631 88.7569 85.8655 87.6668 87.2598C87.0367 88.0663 86.4146 88.8773 85.8033 89.6982C81.9236 94.8904 77.556 98.748 70.9665 99.9173C69.6597 100.084 68.3448 100.057 67.0296 100.055C66.7027 100.055 66.3758 100.056 66.0489 100.058C65.1658 100.06 64.2827 100.06 63.3995 100.06C62.6577 100.06 61.9159 100.061 61.174 100.061C59.4193 100.064 57.6645 100.064 55.9097 100.063C54.1128 100.061 52.3159 100.064 50.519 100.068C48.9665 100.071 47.414 100.073 45.8615 100.072C44.9387 100.072 44.016 100.072 43.0932 100.075C39.1033 100.086 35.2035 100.027 31.2501 99.415C31.1067 99.3931 30.9634 99.3712 30.8157 99.3487C30.094 99.2368 29.378 99.1084 28.6622 98.9633C28.4571 98.9234 28.252 98.8835 28.0407 98.8423C26.4074 98.5134 24.8046 98.0919 23.2131 97.5993C23.048 97.5502 22.8829 97.501 22.7128 97.4504C22.4974 97.383 22.4974 97.383 22.2776 97.3143C21.7617 97.2531 21.5289 97.3855 21.0938 97.6572C20.8342 97.8688 20.578 98.0849 20.3248 98.3041C18.1546 99.9872 15.9281 100.147 13.3004 100.124C12.9696 100.124 12.6389 100.124 12.3082 100.125C11.6202 100.126 10.9323 100.123 10.2444 100.117C9.36456 100.111 8.48495 100.112 7.60512 100.116C6.92432 100.118 6.24357 100.116 5.56277 100.113C5.2383 100.112 4.91381 100.112 4.58934 100.113C4.13649 100.114 3.68396 100.11 3.23116 100.105C2.97425 100.104 2.71734 100.103 2.45265 100.101C1.4697 99.9592 0.867987 99.5884 0.264606 98.7994C-0.0706076 98.0945 -0.0819645 97.4741 -0.0756594 96.7099C-0.0767113 96.5568 -0.0777645 96.4036 -0.0788482 96.2458C-0.0816398 95.7333 -0.0802478 95.2209 -0.0788572 94.7084C-0.079971 94.3407 -0.0813312 93.9731 -0.0829192 93.6054C-0.0864262 92.607 -0.0861934 91.6087 -0.0850799 90.6103C-0.0844767 89.7769 -0.0856641 88.9435 -0.0868442 88.1101C-0.0895886 86.1441 -0.0892816 84.1781 -0.0870588 82.2121C-0.0848162 80.1837 -0.087567 78.1553 -0.0928017 76.1269C-0.0971277 74.3854 -0.098425 72.6439 -0.097278 70.9024C-0.0966193 69.8622 -0.0970954 68.8221 -0.100452 67.782C-0.10347 66.8039 -0.102703 65.8259 -0.0990244 64.8478C-0.0983037 64.489 -0.0989143 64.1301 -0.100956 63.7712C-0.103531 63.2811 -0.101285 62.7912 -0.0978323 62.3011C-0.100646 62.0883 -0.100645 62.0883 -0.103516 61.8713C-0.0892556 60.8867 0.167362 60.3321 0.781309 59.5712C1.56766 58.9352 2.21396 58.9096 3.20898 58.9033C3.35173 58.9016 3.49448 58.9 3.64155 58.8983C4.11233 58.8937 4.58298 58.8935 5.05377 58.8937C5.38347 58.8923 5.71317 58.8908 6.04287 58.8892C6.73441 58.8866 7.42591 58.8863 8.11745 58.8874C8.9972 58.8886 9.87674 58.8826 10.7564 58.8747C11.4381 58.8696 12.1198 58.8691 12.8015 58.8698C13.1254 58.8695 13.4493 58.8676 13.7732 58.8641C16.92 58.8338 19.1888 59.5565 21.5325 61.7372C21.8751 62.1103 21.8751 62.1103 21.8751 62.5009C22.0548 62.3758 22.2346 62.2507 22.4198 62.1217C28.1109 58.2101 34.8314 56.4852 41.6016 58.5947Z" fill="#FDC478"/>
<path d="M65.6294 -0.0393418C65.7738 -0.0407206 65.9182 -0.0420995 66.0669 -0.0435201C72.0135 -0.0874422 72.0135 -0.0874422 74.6092 0.586268C74.7702 0.626111 74.9312 0.665954 75.097 0.707004C77.4453 1.29696 79.6633 2.05658 81.8358 3.12533C81.959 3.18522 82.0823 3.24511 82.2092 3.30682C89.9596 7.11681 95.7998 14.0158 98.5984 22.1481C98.9215 23.1529 99.1776 24.1675 99.4139 25.1956C99.4761 25.4441 99.5383 25.6926 99.6024 25.9487C100.521 30.0546 100.462 35.1874 99.4139 39.2581C99.3761 39.415 99.3384 39.5718 99.2995 39.7334C98.1141 44.5927 95.9205 49.1809 92.578 52.93C92.4312 53.0979 92.2844 53.2659 92.1332 53.4389C91.7017 53.9264 91.2634 54.4063 90.8202 54.8831C90.7008 55.0131 90.5815 55.143 90.4585 55.2768C85.4096 60.5621 77.6359 64.185 70.3266 64.4849C70.0599 64.4887 69.7932 64.4914 69.5265 64.4931C69.3821 64.4945 69.2378 64.4959 69.089 64.4973C63.1523 64.5412 63.1523 64.5412 60.5467 63.8675C60.3878 63.8287 60.2289 63.7899 60.0652 63.7499C54.7409 62.4314 49.9684 59.9748 45.9326 56.248C45.5916 55.9364 45.2473 55.645 44.8851 55.3592C44.1684 54.7381 43.5744 54.0484 42.9686 53.3206C42.8457 53.1759 42.7229 53.0311 42.5963 52.882C38.3146 47.7083 35.355 40.9525 35.3117 34.1754C35.3104 34.0311 35.309 33.8867 35.3076 33.7379C35.2636 27.7914 35.2636 27.7914 35.9373 25.1956C35.9772 25.0347 36.017 24.8737 36.0581 24.7078C36.6482 22.3589 37.4096 20.1429 38.4764 17.9691C38.5353 17.8469 38.5941 17.7247 38.6547 17.5988C39.9266 14.9845 41.589 12.6863 43.5706 10.5609C43.8793 10.2277 44.1648 9.8904 44.4456 9.53402C45.0668 8.81734 45.7565 8.22334 46.4842 7.61752C46.629 7.49465 46.7738 7.37179 46.9229 7.2452C52.0783 2.9787 58.8762 0.00379066 65.6294 -0.0393418ZM58.3983 7.42221C58.2579 7.47684 58.1176 7.53147 57.973 7.58776C51.5064 10.1561 46.2129 15.185 43.3551 21.5373C40.6054 27.9882 40.3267 35.3707 42.932 41.9315C44.3371 45.285 46.3361 48.1365 48.828 50.7816C48.945 50.9112 49.0621 51.0409 49.1827 51.1745C53.6025 55.8806 60.2236 58.4007 66.5686 58.6444C73.8797 58.8276 80.6477 56.316 85.9977 51.3027C87.9069 49.4585 89.4913 47.4134 90.8202 45.1175C90.8879 45.0011 90.9555 44.8848 91.0253 44.7648C94.3712 38.884 95.0583 31.6973 93.3226 25.1956C92.2598 21.4728 90.449 18.1404 87.8905 15.2347C87.7477 15.0683 87.605 14.9019 87.4579 14.7304C83.1575 9.81025 76.861 6.44361 70.3123 5.85971C66.3353 5.59314 62.1242 5.95215 58.3983 7.42221Z" fill="#FEDA40"/>
<path d="M3.20898 58.9025C3.35173 58.9009 3.49448 58.8992 3.64156 58.8975C4.11233 58.8929 4.58298 58.8927 5.05377 58.893C5.38347 58.8916 5.71317 58.8901 6.04288 58.8885C6.73441 58.8859 7.42591 58.8855 8.11745 58.8867C8.9972 58.8878 9.87674 58.8819 10.7564 58.874C11.4381 58.8689 12.1198 58.8684 12.8015 58.8691C13.1254 58.8687 13.4493 58.8669 13.7732 58.8634C16.6088 58.8361 18.9479 59.3225 21.0938 61.3283C22.9554 63.1899 23.6728 65.6497 23.6858 68.2174C23.685 68.4501 23.6842 68.6828 23.6834 68.9225C23.6841 69.1714 23.6848 69.4203 23.6855 69.6767C23.6873 70.3554 23.6866 71.0342 23.6853 71.7129C23.6844 72.4258 23.6853 73.1387 23.6859 73.8516C23.6866 75.0486 23.6857 76.2456 23.6838 77.4427C23.6817 78.823 23.6824 80.2034 23.6845 81.5838C23.6863 82.7725 23.6865 83.9611 23.6855 85.1498C23.6849 85.8582 23.6848 86.5666 23.6861 87.275C23.6875 88.0654 23.6856 88.8558 23.6834 89.6463C23.6842 89.8786 23.685 90.1109 23.6858 90.3502C23.6716 93.16 22.8773 95.8358 20.8871 97.915C18.6163 99.8751 16.2383 100.092 13.3767 100.085C13.0448 100.086 12.713 100.087 12.3811 100.088C11.6885 100.09 10.9959 100.089 10.3033 100.087C9.41735 100.085 8.53154 100.089 7.6456 100.095C6.96145 100.098 6.27734 100.098 5.59319 100.097C5.26653 100.097 4.93987 100.098 4.61322 100.101C4.15657 100.104 3.7002 100.101 3.24355 100.098C3.04308 100.101 3.04308 100.101 2.83855 100.104C1.87205 100.089 1.32108 99.8372 0.585998 99.2189C-0.0332523 98.409 -0.0837963 97.6955 -0.0756579 96.7092C-0.0767098 96.556 -0.0777615 96.4029 -0.0788453 96.2451C-0.0816369 95.7326 -0.0802463 95.2202 -0.0788557 94.7077C-0.0799695 94.34 -0.0813297 93.9723 -0.0829177 93.6046C-0.0864247 92.6063 -0.0861908 91.6079 -0.0850773 90.6096C-0.0844741 89.7762 -0.0856626 88.9428 -0.0868427 88.1094C-0.0895872 86.1434 -0.0892801 84.1774 -0.0870573 82.2113C-0.0848147 80.1829 -0.087564 78.1545 -0.0927987 76.1261C-0.0971247 74.3846 -0.0984231 72.6431 -0.0972761 70.9016C-0.0966174 69.8615 -0.0970935 68.8214 -0.10045 67.7812C-0.103469 66.8032 -0.102702 65.8252 -0.0990233 64.8471C-0.0983026 64.4882 -0.0989128 64.1293 -0.100954 63.7705C-0.103529 63.2803 -0.101283 62.7905 -0.0978308 62.3003C-0.100645 62.0876 -0.100645 62.0876 -0.103516 61.8706C-0.0892556 60.8859 0.167364 60.3314 0.781311 59.5705C1.56766 58.9344 2.21396 58.9089 3.20898 58.9025Z" fill="#17ABE7"/>
<path d="M67.5779 5.86035C70.804 5.86035 70.804 5.86035 72.3997 6.16553C72.6732 6.2172 72.6732 6.2172 72.9522 6.26991C79.7555 7.64555 85.881 11.8584 89.7573 17.5952C93.4101 23.1936 95.0728 29.93 93.9207 36.5854C93.8072 37.0905 93.6873 37.5872 93.5545 38.0869C93.4963 38.3144 93.4963 38.3144 93.4369 38.5465C91.5834 45.662 86.9911 51.5405 80.6638 55.2744C77.9358 56.7782 75.11 57.8166 72.0457 58.3628C71.913 58.3871 71.7803 58.4113 71.6435 58.4363C70.2582 58.6571 69.0299 58.5947 67.5779 58.5947C67.5779 56.6611 67.5779 54.7275 67.5779 52.7354C68.158 52.542 68.738 52.3486 69.3357 52.1494C70.0999 51.3661 70.3328 50.8342 70.3741 49.7614C70.3822 49.56 70.3904 49.3586 70.3989 49.1511C70.4065 48.9401 70.4142 48.7291 70.4221 48.5117C70.4306 48.2992 70.439 48.0867 70.4477 47.8678C70.4684 47.3419 70.4884 46.816 70.5076 46.29C70.6367 46.229 70.7658 46.168 70.8988 46.1052C73.3403 44.9235 75.0055 43.2846 75.9519 40.7114C76.5716 38.3373 76.3376 35.9541 75.1951 33.79C74.0616 31.8637 72.265 30.3329 70.117 29.6885C69.4512 29.573 68.781 29.5076 68.109 29.4396C66.9376 29.3137 65.9716 29.1429 65.164 28.2099C64.635 27.402 64.5161 26.7238 64.6482 25.7822C64.9207 24.9244 65.2863 24.2358 66.0398 23.7192C66.9361 23.2865 67.8072 23.397 68.7498 23.6338C69.4155 23.9492 69.9455 24.2854 70.5297 24.7271C71.4393 25.3916 72.0828 25.7547 73.2282 25.6609C74.0159 25.5168 74.5672 25.3291 75.0494 24.6622C75.5322 23.7941 75.7314 23.0732 75.5857 22.0713C74.6782 19.916 72.4992 19.1105 70.5076 18.165C70.5048 17.9701 70.5048 17.9701 70.502 17.7713C70.4915 17.1781 70.4752 16.5852 70.4588 15.9922C70.456 15.7878 70.4532 15.5833 70.4504 15.3727C70.4123 14.1689 70.342 13.4142 69.531 12.501C68.8422 11.9887 68.4523 11.8946 67.5779 11.7197C67.5779 9.78613 67.5779 7.85254 67.5779 5.86035Z" fill="#FE9923"/>
<path d="M96.6797 62.2204C98.41 63.1634 99.3838 64.3636 100 66.2121C100.277 70.6768 98.5053 73.0673 95.8733 76.4797C95.2361 77.3073 94.6028 78.1378 93.9697 78.9685C93.8385 79.1406 93.7073 79.3127 93.572 79.49C92.673 80.6706 91.7817 81.8568 90.8936 83.0456C89.8341 84.4634 88.7569 85.8658 87.6667 87.2601C87.0366 88.0666 86.4145 88.8776 85.8032 89.6985C81.9863 94.8066 77.786 98.5078 71.3745 99.8669C70.1183 100.026 68.8444 100.001 67.5781 100.001C67.5781 94.2004 67.5781 88.3996 67.5781 82.4231C68.8027 82.2942 70.0273 82.1653 71.2891 82.0325C72.095 81.8022 72.7107 81.614 73.4375 81.2512C73.5772 81.1825 73.717 81.1137 73.8609 81.0429C76.0226 79.7869 77.6949 77.4742 79.2305 75.5498C79.7823 74.8875 80.3662 74.2614 80.957 73.634C81.86 72.6751 82.7082 71.6917 83.532 70.6631C84.25 69.7986 85.0204 68.984 85.7864 68.1622C86.2014 67.7171 86.6107 67.2681 87.0117 66.8103C87.1152 66.6922 87.2187 66.5741 87.3253 66.4525C87.6326 66.0907 87.932 65.7247 88.2301 65.3554C90.3511 62.7592 93.2073 60.7949 96.6797 62.2204Z" fill="#FEB756"/>
<path d="M67.5781 0.000550907C72.591 -0.118803 77.3218 0.904801 81.8359 3.12555C81.9592 3.18544 82.0824 3.24533 82.2094 3.30704C89.9597 7.11703 95.8 14.016 98.5986 22.1483C98.9217 23.1531 99.1778 24.1677 99.4141 25.1959C99.4762 25.4444 99.5384 25.6929 99.6025 25.9489C100.521 30.0548 100.462 35.1876 99.4141 39.2584C99.3763 39.4152 99.3385 39.572 99.2996 39.7336C98.1143 44.5929 95.9207 49.1811 92.5781 52.9302C92.4313 53.0982 92.2846 53.2661 92.1333 53.4391C91.7018 53.9267 91.2636 54.4065 90.8203 54.8834C90.701 55.0133 90.5816 55.1432 90.4587 55.277C85.5493 60.4162 77.7895 64.229 70.6404 64.4689C70.1728 64.4727 69.7059 64.4708 69.2383 64.4659C68.6904 64.4619 68.1426 64.4578 67.5781 64.4537C67.5781 62.5201 67.5781 60.5865 67.5781 58.5943C68.4543 58.5157 68.4543 58.5157 69.3481 58.4356C76.6532 57.7192 83.1174 54.6444 87.9395 49.0484C88.9408 47.8007 89.8204 46.499 90.625 45.1177C90.693 45.0011 90.761 44.8844 90.831 44.7642C94.1761 38.8835 94.863 31.697 93.1274 25.1959C92.064 21.4707 90.2519 18.1446 87.6953 15.2349C87.5594 15.073 87.4234 14.9111 87.2833 14.7444C83.0215 9.79037 76.7514 6.80358 70.3125 6.05524C68.959 5.95856 68.959 5.95856 67.5781 5.85993C67.5781 3.92633 67.5781 1.99274 67.5781 0.000550907Z" fill="#FECC33"/>
<path d="M69.1894 12.0364C69.9449 12.6888 70.4487 13.1829 70.5701 14.1881C70.5846 14.7911 70.5759 15.3887 70.5566 15.9914C70.5531 16.2004 70.5496 16.4094 70.5459 16.6247C70.5368 17.1381 70.5239 17.6511 70.5078 18.1643C70.624 18.2001 70.7403 18.2359 70.8601 18.2727C72.0749 18.6595 73.0001 19.1628 74.0234 19.9221C74.139 20.0052 74.2545 20.0883 74.3736 20.1739C75.0837 20.7174 75.4787 21.2302 75.7812 22.0705C75.9312 23.2276 75.6297 24.0482 75 25.0002C74.2189 25.734 73.3981 25.8716 72.3571 25.8631C71.4656 25.7122 70.824 25.144 70.1172 24.6096C69.0781 23.8733 68.0709 23.5512 66.7968 23.633C65.9435 23.8755 65.5021 24.2904 65.0512 25.0613C64.7004 26.2787 64.7398 27.103 65.3206 28.2076C66.1778 29.0756 67.3117 29.1688 68.4692 29.2483C70.8231 29.4854 72.7529 30.5039 74.3759 32.2474C76.1012 34.5222 76.6029 36.8425 76.3672 39.6487C75.9004 42.017 74.5341 44.0927 72.5464 45.4623C71.2169 46.2893 71.2169 46.2893 70.5078 46.2893C70.5119 46.4192 70.516 46.5492 70.5202 46.6831C70.5365 47.2761 70.5466 47.869 70.5566 48.4621C70.5632 48.6666 70.5697 48.871 70.5764 49.0816C70.5919 50.3041 70.5547 51.0292 69.7265 51.9534C68.9705 52.6063 68.3996 52.8553 67.3866 52.7972C66.462 52.6505 65.8116 52.3402 65.1611 51.6726C64.683 50.9187 64.6239 50.3001 64.6293 49.4173C64.63 49.2348 64.6306 49.0523 64.6312 48.8642C64.6329 48.6751 64.6345 48.4861 64.6362 48.2912C64.6371 48.0991 64.638 47.907 64.6389 47.7091C64.6412 47.2358 64.6444 46.7626 64.6484 46.2893C64.5341 46.2553 64.4198 46.2214 64.3021 46.1864C62.2224 45.537 60.1445 44.0908 58.9538 42.2243C58.5703 41.4288 58.4832 40.7123 58.5937 39.844C59.1044 38.8793 59.7606 38.1863 60.7422 37.6955C61.7046 37.6153 62.3462 37.5835 63.1469 38.1884C63.5842 38.571 64.0045 38.9709 64.4287 39.3679C65.3798 40.2309 66.1384 40.7768 67.4385 40.8434C68.5653 40.787 69.1564 40.4701 69.9218 39.6487C70.399 38.9018 70.3567 38.1994 70.2346 37.3476C70.0325 36.6022 69.7135 36.2644 69.1406 35.7424C68.3146 35.4108 67.5319 35.2786 66.6504 35.1809C64.0228 34.8189 62.1405 33.6885 60.4484 31.6447C59.0137 29.708 58.5002 27.1763 58.789 24.8049C59.3744 22.3957 60.6152 20.347 62.6953 18.9455C63.274 18.6674 63.8608 18.412 64.4531 18.1643C64.4559 18.0472 64.4588 17.9301 64.4617 17.8095C64.4764 17.2725 64.4952 16.7358 64.5141 16.199C64.5185 16.0148 64.5229 15.8306 64.5275 15.6409C64.5792 14.2906 64.7009 13.2153 65.7104 12.2317C66.7989 11.5414 68.0364 11.4598 69.1894 12.0364Z" fill="#FED339"/>
<path d="M62.3047 37.6966C62.9571 38.0228 63.3835 38.3882 63.9076 38.8937C64.0675 39.0465 64.2273 39.1993 64.3921 39.3568C64.6107 39.5773 64.6107 39.5773 64.8338 39.8023C65.6224 40.4178 65.6224 40.4178 67.5781 41.0169C67.5781 44.8841 67.5781 48.7513 67.5781 52.7357C65.9375 52.5013 65.9375 52.5013 65.2343 51.7591C64.5885 50.5836 64.5765 49.5788 64.6118 48.2557C64.6157 47.9715 64.6157 47.9715 64.6198 47.6816C64.6266 47.2177 64.6362 46.7541 64.6484 46.2904C64.477 46.2395 64.477 46.2395 64.3021 46.1875C62.2224 45.5381 60.1445 44.0919 58.9538 42.2254C58.5703 41.4299 58.4832 40.7134 58.5937 39.8451C59.4174 38.2891 60.532 37.4692 62.3047 37.6966Z" fill="#FEDA40"/>
<path d="M67.5781 11.7197C69.0349 11.9278 69.1783 11.9527 70.1172 12.8916C70.5124 13.517 70.5541 13.9985 70.546 14.7318C70.5441 15.032 70.5441 15.032 70.5421 15.3383C70.5389 15.5461 70.5356 15.7538 70.5322 15.9678C70.5305 16.1785 70.5287 16.3892 70.5269 16.6064C70.5223 17.126 70.5159 17.6455 70.5078 18.165C70.6241 18.2008 70.7404 18.2366 70.8601 18.2735C72.0749 18.6602 73.0002 19.1636 74.0234 19.9229C74.139 20.0059 74.2546 20.089 74.3736 20.1746C75.0837 20.7182 75.4787 21.2309 75.7812 22.0713C75.9312 23.2283 75.6297 24.0489 75 25.001C74.2189 25.7347 73.3982 25.8723 72.3572 25.8639C71.4637 25.7126 70.8276 25.1422 70.1172 24.6104C69.2906 24.083 68.5218 23.753 67.5781 23.4385C67.5781 19.5713 67.5781 15.7041 67.5781 11.7197Z" fill="#FECB32"/>
<path d="M67.5781 65.626C69.1925 66.4331 69.9397 67.4393 70.5078 69.1416C70.8125 71.1674 70.5549 72.9054 69.3359 74.6104C68.8997 75.089 68.5067 75.4098 67.9688 75.7822C67.8398 75.7822 67.7109 75.7822 67.5781 75.7822C67.5781 72.4307 67.5781 69.0791 67.5781 65.626Z" fill="#FEB756"/>
<path d="M67.5782 23.4385C67.5782 25.3721 67.5782 27.3057 67.5782 29.2979C66.4703 29.1132 66.068 29.0067 65.2345 28.3213C64.663 27.4641 64.5253 26.8029 64.6485 25.7822C64.9327 24.8806 65.2942 24.23 66.1134 23.7314C66.797 23.4385 66.797 23.4385 67.5782 23.4385Z" fill="#FDA832"/>
<path d="M67.5781 35.1572C69.4066 35.6144 69.4066 35.6144 70.0912 36.5122C70.4776 37.2157 70.5689 37.8778 70.5078 38.6729C70.1777 39.6825 69.619 40.2249 68.75 40.8213C68.3633 40.8857 67.9766 40.9502 67.5781 41.0166C67.5781 39.083 67.5781 37.1494 67.5781 35.1572Z" fill="#FE9923"/>
</g>
<defs>
<clipPath id="clip0_356_12089">
<rect width="100" height="100" fill="white" transform="translate(0 0.000976562)"/>
</clipPath>
</defs>
</svg>
