<svg width="100" height="100" viewBox="0 0 100 100" fill="none" xmlns="http://www.w3.org/2000/svg">
<path d="M28.8207 60.23C29.0328 60.3495 29.245 60.4691 29.4636 60.5923C31.5107 61.7494 33.545 62.9281 35.5706 64.1226C36.133 64.4538 36.6966 64.7829 37.2603 65.112C37.6129 65.3197 37.9653 65.5274 38.3177 65.7354C38.4778 65.8284 38.6379 65.9215 38.8028 66.0174C40.0705 66.7708 41.2726 67.6436 41.7126 69.1249C41.8524 69.801 41.8272 70.4857 41.8282 71.1734C41.8292 71.3386 41.8302 71.5039 41.8312 71.6741C41.834 72.2204 41.8353 72.7666 41.8364 73.3129C41.8375 73.6934 41.8387 74.0738 41.8398 74.4543C41.8418 75.2523 41.843 76.0502 41.8437 76.8481C41.8447 77.8683 41.8494 78.8884 41.855 79.9085C41.8586 80.6947 41.8596 81.4808 41.8599 82.267C41.8605 82.643 41.8621 83.0189 41.8647 83.3949C41.868 83.9221 41.8676 84.4492 41.8664 84.9765C41.8682 85.1304 41.87 85.2842 41.8718 85.4428C41.8623 86.7109 41.6131 87.7848 40.7958 88.7944C39.4137 89.9361 37.8532 90.8078 36.2965 91.6869C35.8183 91.957 35.3409 92.2285 34.8635 92.5C34.616 92.6408 34.3684 92.7814 34.1207 92.922C32.8271 93.6568 31.5376 94.3987 30.2489 95.1421C30.0445 95.2598 29.84 95.3775 29.6294 95.4987C28.5418 96.1262 27.4619 96.7633 26.3925 97.4214C25.3851 97.9913 24.3835 98.1634 23.2421 98.0474C21.7002 97.5599 20.33 96.754 18.9452 95.9355C18.6105 95.7401 18.2759 95.5446 17.9411 95.3492C17.5951 95.147 17.2493 94.9443 16.9036 94.7415C16.0084 94.2172 15.1089 93.7002 14.2094 93.1831C13.5725 92.8167 12.9366 92.4487 12.3007 92.0804C11.5756 91.6608 10.8483 91.2459 10.1172 90.8368C9.96515 90.7505 9.8131 90.6643 9.65644 90.5754C9.38459 90.4211 9.11166 90.2688 8.83733 90.119C7.67479 89.4535 6.79191 88.5404 6.24987 87.3052C6.19907 86.9267 6.19907 86.9267 6.19632 86.5247C6.19437 86.3715 6.19242 86.2182 6.19042 86.0602C6.19029 85.8938 6.19016 85.7274 6.19002 85.5559C6.1884 85.3793 6.18677 85.2026 6.1851 85.0206C6.18039 84.4363 6.17868 83.852 6.17739 83.2677C6.17564 82.8609 6.17385 82.4542 6.17204 82.0474C6.16882 81.1943 6.16732 80.3412 6.16675 79.4881C6.1657 78.397 6.15835 77.306 6.14942 76.215C6.1436 75.3745 6.1422 74.534 6.142 73.6935C6.14118 73.2914 6.13876 72.8893 6.13467 72.4872C6.12941 71.9234 6.13036 71.3599 6.1328 70.7961C6.12991 70.6313 6.12701 70.4665 6.12402 70.2966C6.13861 69.107 6.46581 68.3018 7.22643 67.3833C8.37049 66.3364 9.76629 65.6161 11.1083 64.8564C11.4458 64.6637 11.7833 64.4709 12.1208 64.278C12.47 64.0785 12.8194 63.8796 13.1688 63.6806C14.0682 63.1677 14.9637 62.6481 15.8595 62.129C17.5583 61.1452 19.2596 60.1655 20.9715 59.2046C21.1132 59.1243 21.2548 59.0441 21.4007 58.9614C24.2379 57.3808 26.257 58.7778 28.8207 60.23Z" fill="#FB8E0D"/>
<path d="M77.3497 1.72446C81.8062 1.60402 85.927 3.11071 89.2086 6.16568C92.1413 9.03964 93.7326 12.8276 93.8421 16.8991C93.8958 23.5226 90.9297 29.3583 86.5233 34.1769C86.4311 34.2778 86.339 34.3788 86.2441 34.4828C84.16 36.7356 81.3429 39.3674 78.1248 39.5724C75.1488 39.3914 72.7543 37.0945 70.703 35.1534C70.4832 34.9491 70.4832 34.9491 70.2589 34.7407C68.1834 32.7489 66.6302 30.4243 65.2342 27.9269C65.1113 27.7103 64.9885 27.4938 64.8619 27.2707C62.5247 22.9038 61.5796 17.4063 63.0232 12.6009C64.6821 8.16417 67.5175 5.08833 71.7451 3.03901C73.559 2.25968 75.3889 1.82554 77.3497 1.72446Z" fill="#D4363F"/>
<path d="M32.1444 14.4235C32.3869 14.4225 32.6294 14.4215 32.8792 14.4205C33.5402 14.4182 34.2011 14.4167 34.8621 14.4159C35.2755 14.4153 35.6889 14.4145 36.1023 14.4136C37.3974 14.4109 38.6925 14.4091 39.9876 14.4083C41.4801 14.4074 42.9725 14.404 44.4649 14.3983C45.6211 14.3941 46.7772 14.3921 47.9334 14.3919C48.623 14.3917 49.3126 14.3905 50.0022 14.387C50.7703 14.3832 51.5384 14.3841 52.3066 14.3853C52.5344 14.3835 52.7622 14.3817 52.9969 14.3799C53.2063 14.381 53.4157 14.3821 53.6315 14.3832C53.813 14.3829 53.9944 14.3826 54.1813 14.3823C55.0066 14.5007 55.7476 14.958 56.2501 15.6268C56.4276 16.5706 56.3865 17.3571 55.8838 18.1781C55.2738 18.7343 54.9467 18.7766 54.1402 18.7801C53.843 18.7821 53.843 18.7821 53.5397 18.7842C53.2122 18.785 53.2122 18.785 52.8781 18.7857C52.6488 18.787 52.4194 18.7883 52.1831 18.7897C51.5522 18.7932 50.9214 18.7958 50.2905 18.7982C49.628 18.801 48.9655 18.8052 48.3031 18.8094C46.0464 18.8233 43.7897 18.8349 41.533 18.845C40.2873 18.8505 39.0416 18.8575 37.796 18.8658C37.1381 18.8701 36.4802 18.8735 35.8223 18.8756C29.9333 18.8948 25.0592 19.2786 20.7032 23.6346C20.5843 23.7535 20.4655 23.8723 20.3431 23.9948C17.6347 26.9337 16.8093 30.8065 16.959 34.6785C17.2054 38.23 19.0416 41.7257 21.6736 44.0738C24.5515 46.4563 27.8382 47.6901 31.5834 47.685C31.833 47.6859 31.833 47.6859 32.0878 47.6867C32.643 47.6883 33.1983 47.6886 33.7536 47.6889C34.1528 47.6898 34.552 47.6908 34.9513 47.6919C35.8101 47.6941 36.669 47.6957 37.5278 47.697C38.8883 47.6991 40.2487 47.703 41.6091 47.7074C45.4774 47.7194 49.3457 47.73 53.2141 47.7365C55.3512 47.7401 57.4884 47.7457 59.6255 47.7537C60.755 47.7578 61.8845 47.7608 63.0139 47.7612C64.078 47.7617 65.1419 47.7648 66.2059 47.7699C66.5942 47.7713 66.9825 47.7717 67.3708 47.7711C70.1706 47.767 72.9313 47.8823 75.5494 48.9886C75.6686 49.039 75.7879 49.0894 75.9107 49.1413C77.7366 49.9289 79.3412 50.8674 80.8594 52.1503C81.016 52.2784 81.1726 52.4066 81.334 52.5386C84.6885 55.3967 86.8724 59.5064 87.5001 63.869C87.6446 66.5867 87.7765 69.4608 86.9141 72.0721C86.8454 72.2821 86.7766 72.4921 86.7058 72.7084C85.04 77.3594 81.7729 81.3787 77.321 83.6072C74.4029 84.9723 71.4486 85.5743 68.2354 85.5833C68.0332 85.5846 67.831 85.5858 67.6227 85.5872C66.9583 85.591 66.294 85.5933 65.6296 85.5952C65.2881 85.5964 65.2881 85.5964 64.9397 85.5977C63.7366 85.6017 62.5334 85.6045 61.3303 85.6064C60.0881 85.6085 58.846 85.6153 57.6039 85.623C56.6475 85.6281 55.6911 85.6297 54.7347 85.6304C54.2766 85.6314 53.8186 85.6337 53.3606 85.6373C52.7206 85.642 52.0808 85.6419 51.4408 85.6405C51.1576 85.6442 51.1576 85.6442 50.8688 85.6481C49.7659 85.6395 49.1075 85.5215 48.2422 84.7675C47.7602 84.0445 47.7187 83.4579 47.8516 82.619C48.4376 81.5448 48.4376 81.5448 49.0235 81.2518C49.2837 81.2325 49.5448 81.2249 49.8057 81.2236C49.9694 81.2222 50.133 81.2209 50.3016 81.2195C50.4816 81.219 50.6616 81.2185 50.847 81.2179C51.0364 81.2166 51.2257 81.2153 51.4208 81.214C51.8334 81.2112 52.2461 81.2089 52.6587 81.2069C53.3143 81.2037 53.9699 81.1992 54.6255 81.1943C56.4902 81.1805 58.3548 81.1688 60.2195 81.1587C61.3597 81.1524 62.5 81.1444 63.6401 81.1352C64.0726 81.1321 64.505 81.1297 64.9375 81.128C70.5443 81.1059 75.1732 80.4927 79.2969 76.369C79.4158 76.2502 79.5346 76.1313 79.657 76.0089C82.3655 73.07 83.1908 69.1971 83.0412 65.3252C82.7777 61.5285 80.7319 58.0089 77.9175 55.5316C75.1443 53.3652 71.9205 52.3139 68.4167 52.3186C68.1671 52.3178 68.1671 52.3178 67.9123 52.317C67.3571 52.3153 66.8018 52.3151 66.2465 52.3148C65.8473 52.3139 65.4481 52.3129 65.0489 52.3118C64.19 52.3096 63.3311 52.3079 62.4723 52.3067C61.1119 52.3046 59.7514 52.3006 58.391 52.2963C54.5227 52.2842 50.6544 52.2737 46.786 52.2672C44.6489 52.2636 42.5117 52.2579 40.3746 52.25C39.2451 52.2459 38.1157 52.2429 36.9862 52.2424C35.9222 52.242 34.8582 52.2389 33.7942 52.2337C33.4059 52.2324 33.0176 52.2319 32.6293 52.2326C29.8296 52.2366 27.0688 52.1214 24.4507 51.015C24.3315 50.9646 24.2123 50.9143 24.0894 50.8624C22.2636 50.0747 20.6589 49.1362 19.1407 47.8534C18.9058 47.6612 18.9058 47.6612 18.6661 47.4651C15.3116 44.6069 13.1277 40.4973 12.5001 36.1346C12.3555 33.417 12.2236 30.5428 13.086 27.9315C13.1547 27.7215 13.2235 27.5116 13.2943 27.2952C14.9601 22.6442 18.2272 18.625 22.6791 16.3964C25.7383 14.9654 28.7835 14.4267 32.1444 14.4235Z" fill="#3A3A3A"/>
<path d="M40.8203 67.7744C41.435 68.2774 41.5938 68.7735 41.7968 69.5322C41.8513 70.0947 41.8522 70.6535 41.8505 71.2182C41.8515 71.3835 41.8525 71.5488 41.8535 71.7191C41.8562 72.2633 41.856 72.8074 41.8556 73.3515C41.8563 73.7314 41.8572 74.1114 41.8581 74.4913C41.8596 75.2869 41.8595 76.0825 41.8585 76.8781C41.8574 77.8952 41.8607 78.9121 41.8652 79.9292C41.8681 80.7137 41.8682 81.4982 41.8676 82.2827C41.8677 82.6576 41.8687 83.0324 41.8707 83.4073C41.8731 83.9326 41.8718 84.4578 41.8695 84.9832C41.871 85.1364 41.8725 85.2897 41.8741 85.4476C41.8621 86.7132 41.6113 87.7876 40.7959 88.7949C39.4138 89.9366 37.8533 90.8082 36.2965 91.6874C35.8183 91.9575 35.341 92.229 34.8636 92.5005C34.616 92.6413 34.3685 92.7819 34.1208 92.9225C32.8272 93.6573 31.5377 94.3992 30.249 95.1426C30.0446 95.2603 29.8401 95.378 29.6295 95.4992C28.5376 96.1291 27.4534 96.7689 26.3794 97.429C25.583 97.8801 24.9222 97.8695 24.0234 97.8525C23.9235 95.3502 23.8473 92.8483 23.8008 90.3444C23.7784 89.1814 23.7481 88.0197 23.6992 86.8575C23.392 79.3594 23.392 79.3594 24.422 77.6659C25.3981 76.7135 26.5027 76.2765 27.8047 75.929C28.4943 75.7327 28.9882 75.4306 29.5867 75.0391C29.9295 74.8391 30.2723 74.6392 30.6152 74.4395C30.8049 74.3289 30.9945 74.2183 31.19 74.1044C34.3916 72.2402 37.6004 70.3881 40.8203 68.5557C40.8203 68.2979 40.8203 68.04 40.8203 67.7744Z" fill="#F26802"/>
<path d="M28.7231 60.2055C29.0047 60.3679 29.0047 60.3679 29.2919 60.5336C29.7498 60.7978 30.2071 61.0628 30.6641 61.3286C30.4151 62.0754 30.1795 62.1365 29.5036 62.5165C29.2993 62.6327 29.095 62.7489 28.8845 62.8686C28.6621 62.9928 28.4396 63.1171 28.2104 63.2451C27.9788 63.3762 27.7472 63.5076 27.5158 63.6391C27.0394 63.9099 26.5626 64.1799 26.0856 64.4495C25.0668 65.0267 24.057 65.6192 23.0469 66.2114C21.8251 66.9255 20.6023 67.6377 19.3771 68.3461C19.1561 68.4742 18.935 68.6023 18.7073 68.7343C18.268 68.9868 17.827 69.2364 17.3843 69.483C16.37 70.0513 15.4319 70.5875 14.6054 71.4131C14.0511 71.8 13.5522 71.9412 12.8906 72.0708C12.2631 71.8765 12.2631 71.8765 11.6325 71.5314C11.5198 71.4707 11.4071 71.41 11.291 71.3475C10.2739 70.7881 9.30506 70.1547 8.34613 69.5013C7.85186 69.1677 7.35012 68.857 6.83594 68.5551C6.85097 68.044 6.92754 67.6927 7.27654 67.3086C8.25381 66.4664 9.30701 65.8511 10.437 65.2348C10.8398 65.0113 11.2423 64.7875 11.6447 64.5634C11.8509 64.4489 12.0571 64.3343 12.2695 64.2163C13.2654 63.6573 14.2497 63.0788 15.2344 62.5005C16.8332 61.565 18.4349 60.635 20.0439 59.7173C20.3234 59.5564 20.3234 59.5564 20.6085 59.3922C23.8986 57.5244 25.6525 58.4192 28.7231 60.2055Z" fill="#F8AA0D"/>
<path d="M35.7422 64.2597C36.2573 64.4804 36.2573 64.4804 36.7691 64.7876C36.9557 64.8987 37.1422 65.0097 37.3344 65.1241C37.526 65.2417 37.7176 65.3592 37.915 65.4804C38.1081 65.5949 38.3013 65.7095 38.5002 65.8275C40.7043 67.1548 40.7043 67.1548 40.9668 68.1171C40.9829 68.2621 40.999 68.4071 41.0156 68.5565C38.6232 69.9556 36.2283 71.3499 33.8257 72.7313C31.7893 73.9027 29.7654 75.0941 27.7479 76.2976C27.3427 76.539 26.9369 76.7793 26.5304 77.0185C26.1747 77.2286 25.8208 77.4419 25.4693 77.659C25.3167 77.7504 25.1641 77.8419 25.0069 77.9361C24.812 78.056 24.812 78.056 24.6132 78.1783C24.0694 78.3766 23.7925 78.3029 23.2422 78.1269C22.8274 77.9112 22.4208 77.6797 22.0207 77.4379C21.9069 77.3698 21.7931 77.3016 21.6758 77.2314C21.3142 77.0144 20.9537 76.7956 20.5933 76.5766C20.2319 76.3586 19.8703 76.1411 19.5086 75.9238C19.1807 75.7266 18.8533 75.5283 18.526 75.33C18.0857 75.0707 17.6483 74.831 17.1875 74.6112C17.4215 73.9093 17.5437 73.8815 18.177 73.5515C18.346 73.4618 18.5151 73.3721 18.6892 73.2796C18.8744 73.1833 19.0597 73.087 19.2505 72.9877C20.8495 72.1368 22.4265 71.2588 23.9868 70.3388C25.8143 69.2635 27.6561 68.2174 29.5106 67.1894C30.4342 66.6759 31.3517 66.1572 32.254 65.607C32.4814 65.4689 32.4814 65.4689 32.7134 65.328C32.9888 65.1593 33.2629 64.9884 33.5353 64.8149C34.3224 64.3328 34.8266 64.1789 35.7422 64.2597Z" fill="#FABC07"/>
<path d="M30.9506 62.001C31.6151 62.2528 32.2213 62.5411 32.8343 62.8997C33.0808 63.0432 33.0808 63.0432 33.3322 63.1896C33.5854 63.3384 33.5854 63.3384 33.8437 63.4902C34.0163 63.5909 34.1889 63.6917 34.3667 63.7954C34.7909 64.043 35.2147 64.2913 35.6381 64.54C35.5315 64.5919 35.4249 64.6437 35.315 64.6971C34.7925 64.9635 34.2855 65.2509 33.7766 65.5425C33.4524 65.728 33.4524 65.728 33.1217 65.9173C33.0068 65.9832 32.892 66.049 32.7736 66.1169C32.4094 66.3258 32.045 66.5344 31.6806 66.7429C31.1709 67.0346 30.6612 67.3265 30.1516 67.6184C28.9656 68.2977 27.7793 68.9765 26.5927 69.6548C26.4237 69.7514 26.4237 69.7514 26.2512 69.85C24.65 70.7652 23.0469 71.6769 21.4414 72.5845C21.2629 72.6854 21.0844 72.7862 20.9006 72.8902C20.7318 72.9854 20.5631 73.0807 20.3893 73.1788C20.2293 73.2719 20.0693 73.365 19.9045 73.4609C19.4272 73.7197 19.4272 73.7197 18.919 73.9225C18.4156 74.1371 18.0606 74.3122 17.6694 74.6963C17.427 75.4999 17.4409 76.2671 17.4619 77.1011C17.4605 77.3202 17.4591 77.5394 17.4577 77.7652C17.4554 78.3052 17.4611 78.8439 17.4741 79.3838C16.6128 79.618 16.6128 79.618 16.1029 79.4461C15.9783 79.3739 15.8538 79.3018 15.7254 79.2274C15.52 79.1101 15.52 79.1101 15.3104 78.9905C15.1704 78.9068 15.0304 78.8231 14.8862 78.7368C14.7432 78.6554 14.6002 78.5739 14.4528 78.49C13.4018 77.8798 13.4018 77.8798 13.1772 77.4307C13.0931 76.6349 13.0776 75.8376 13.0551 75.0381C13.0413 74.8168 13.0274 74.5955 13.0132 74.3675C12.9779 72.7822 12.9779 72.7822 13.4888 72.1815C13.9544 71.8636 14.4275 71.6215 14.935 71.376C15.3302 71.1484 15.7244 70.9189 16.1176 70.6878C16.4459 70.5019 16.7742 70.316 17.103 70.1309C17.7088 69.7895 18.3132 69.4457 18.9176 69.1017C19.0415 69.0311 19.1655 68.9605 19.2932 68.8878C20.777 68.0409 22.2437 67.1657 23.7113 66.291C25.531 65.2082 27.3631 64.1479 29.2009 63.0961C29.5028 62.923 29.5028 62.923 29.8108 62.7464C30.078 62.5936 30.078 62.5936 30.3507 62.4378C30.7393 62.2282 30.7393 62.2282 30.9506 62.001Z" fill="#FD8702"/>
<path d="M80.3591 12.9282C81.7079 13.6995 82.8588 14.8944 83.3246 16.4117C83.6351 18.0312 83.2371 19.5408 82.3526 20.9222C81.5549 21.9188 80.5669 22.6058 79.297 22.8525C77.5866 23.0147 76.2228 22.8983 74.8049 21.8759C73.8054 20.9654 73.1284 19.9285 72.9418 18.5716C72.8773 16.9332 72.9676 15.6674 73.9824 14.3068C75.6858 12.5763 78.0974 11.8449 80.3591 12.9282Z" fill="#E3E4E5"/>
<path d="M12.8906 72.0713C13.4907 72.3008 14.0467 72.5453 14.5965 72.8777C14.7247 72.9549 14.8528 73.0321 14.9848 73.1116C15.1155 73.1912 15.2462 73.2709 15.3808 73.353C15.5145 73.4335 15.6482 73.5139 15.7859 73.5968C16.768 74.1909 16.768 74.1909 16.9921 74.415C17.0092 74.7628 17.013 75.1113 17.0112 75.4595C17.0106 75.6704 17.0099 75.8812 17.0093 76.0985C17.0077 76.3204 17.006 76.5423 17.0043 76.771C17.0035 76.9937 17.0026 77.2164 17.0017 77.4458C16.9994 77.9981 16.9961 78.5503 16.9921 79.1025C15.9656 79 15.2605 78.6541 14.392 78.1382C14.2685 78.0678 14.145 77.9974 14.0178 77.9249C13.1126 77.3981 13.1126 77.3981 12.8906 76.9541C12.874 76.5857 12.8696 76.2166 12.8715 75.8478C12.8721 75.6288 12.8728 75.4098 12.8734 75.1841C12.875 74.9545 12.8767 74.7249 12.8784 74.4883C12.8792 74.2572 12.8801 74.026 12.881 73.7879C12.8833 73.2157 12.8866 72.6435 12.8906 72.0713Z" fill="#F36A02"/>
</svg>
