<svg width="100" height="101" viewBox="0 0 100 101" fill="none" xmlns="http://www.w3.org/2000/svg">
<g clip-path="url(#clip0_356_12021)">
<path d="M59.375 13.1739C60.3287 14.1422 61.1774 15.3588 61.5234 16.6895C61.4441 17.1312 61.4441 17.1312 61.3281 17.4707C60.9414 17.5352 60.5547 17.5996 60.1562 17.666C60.1653 17.8126 60.1744 17.9591 60.1837 18.1101C60.244 19.8203 59.9385 21.0446 59.0454 22.5C58.4865 23.0438 57.8695 23.4099 57.193 23.794C57.0752 23.8987 56.9573 24.0034 56.8359 24.1114C56.7993 24.6078 56.7993 24.6078 56.8359 25.0879C56.3374 25.5865 55.9634 25.657 55.2706 25.696C55.1356 25.695 55.0006 25.694 54.8615 25.6929C54.7142 25.6923 54.5669 25.6917 54.4151 25.691C54.2633 25.6894 54.1115 25.6877 53.9551 25.6861C53.8002 25.6852 53.6454 25.6843 53.4859 25.6834C53.1052 25.6811 52.7245 25.6776 52.3438 25.6739C53.9042 27.5 55.5068 29.2837 57.1533 31.0327C57.3332 31.2239 57.3332 31.2239 57.5166 31.4189C61.2992 35.5148 61.2992 35.5148 66.4352 37.2249C68.3378 37.2751 70.22 37.0427 72.0703 36.6114C72.0905 36.4905 72.1106 36.3697 72.1313 36.2451C72.2656 35.8301 72.2656 35.8301 72.8516 35.4395C73.4209 35.3114 73.983 35.2006 74.5575 35.1023C74.7275 35.0725 74.8974 35.0427 75.0725 35.012C75.4336 34.9492 75.7948 34.8872 76.1561 34.8259C76.6993 34.7331 77.2416 34.6363 77.784 34.5392C83.3653 33.566 83.3653 33.566 85.0174 34.5796C86.1623 35.5181 87.02 36.5231 87.175 38.0312C87.1934 39.697 87.1163 40.8106 85.9901 42.0664C84.9411 43.0756 83.9032 43.6259 82.4348 43.6533C80.7748 43.5598 79.1593 43.2177 77.5391 42.8614C77.5738 42.9948 77.6085 43.1282 77.6442 43.2657C78.2985 45.8268 78.8104 48.419 79.3375 51.0086C79.4641 51.6294 79.5927 52.2498 79.7233 52.8698C81.5437 61.5247 81.5437 61.5247 80.3711 64.6875C80.3012 64.8986 80.3012 64.8986 80.2299 65.114C80.1194 65.4456 80.002 65.7749 79.8828 66.1035C80.0366 66.0021 80.1905 65.9006 80.349 65.7961C83.938 63.4982 87.6883 62.5816 91.9067 63.418C92.9711 63.6769 93.9507 64.0349 94.9219 64.541C93.9484 65.7194 92.8869 66.7907 91.7969 67.8614C92.0043 67.9464 92.2118 68.0315 92.4255 68.1192C95.3114 69.3257 95.3114 69.3257 96.4844 70.4004C96.6158 70.5165 96.7472 70.6325 96.8826 70.7521C98.8035 72.5471 99.9197 74.8113 100.075 77.4469C100.138 79.3799 100.064 81.126 99.2188 82.9004C99.1503 83.053 99.0818 83.2056 99.0112 83.3628C97.7934 85.807 95.6185 87.6812 93.0649 88.608C90.172 89.5103 87.2615 89.3108 84.4978 88.0747C81.4463 86.4031 80.036 83.9413 78.9062 80.752C78.8136 80.8466 78.721 80.9413 78.6256 81.0388C78.2075 81.4651 77.7878 81.8898 77.3682 82.3145C77.2224 82.4635 77.0766 82.6126 76.9264 82.7661C76.7867 82.9071 76.647 83.0481 76.503 83.1934C76.3741 83.3243 76.2452 83.4552 76.1125 83.5901C75.7812 83.877 75.7812 83.877 75.3906 83.877C75.2312 83.4093 75.0726 82.9413 74.9146 82.4732C74.8471 82.2758 74.8471 82.2758 74.7784 82.0745C74.422 81.0158 74.2026 80.0505 74.157 78.9354C74.1488 78.7447 74.1406 78.554 74.1322 78.3575C74.1206 78.0624 74.1206 78.0624 74.1089 77.7613C74.1005 77.5607 74.092 77.3602 74.0833 77.1536C74.0627 76.6604 74.0427 76.1671 74.0234 75.6739C73.9316 75.7778 73.8398 75.8817 73.7453 75.9888C71.9256 78.0082 69.4723 79.2059 66.7671 79.4375C66.112 79.4562 65.4593 79.4574 64.8039 79.4513C64.4348 79.4514 64.4348 79.4514 64.0582 79.4516C63.3913 79.4517 62.7244 79.4483 62.0575 79.4442C61.3576 79.4405 60.6577 79.4402 59.9579 79.4395C58.636 79.4377 57.3143 79.4329 55.9925 79.427C54.4861 79.4204 52.9798 79.4172 51.4735 79.4143C48.3782 79.4082 45.2828 79.3979 42.1875 79.3848C42.162 79.5324 42.1365 79.68 42.1102 79.832C42.059 80.1224 42.059 80.1224 42.0067 80.4186C41.9732 80.6105 41.9396 80.8024 41.905 81.0001C41.442 83.2822 39.7603 85.4262 37.915 86.7822C35.1147 88.5955 32.0039 89.2824 28.7117 88.6255C25.7417 87.8448 23.3376 86.0792 21.7712 83.4268C20.9764 81.9681 20.6999 81.1135 20.5078 79.3848C19.2832 79.3848 18.0586 79.3848 16.7969 79.3848C16.8573 78.8571 16.9177 78.3294 16.98 77.7857C16.9986 77.6212 17.0172 77.4568 17.0364 77.2873C17.0518 77.1549 17.0671 77.0226 17.083 76.8862C17.106 76.6852 17.106 76.6852 17.1295 76.4801C17.1949 76.0115 17.2862 75.5511 17.3828 75.0879C17.2567 75.092 17.1307 75.0961 17.0008 75.1003C16.4283 75.1166 15.8558 75.1267 15.2832 75.1367C15.0848 75.1433 14.8864 75.1498 14.682 75.1566C13.2165 75.1759 13.2165 75.1759 12.5648 74.737C12.1771 74.0957 12.1869 73.6725 12.3047 72.9395C12.7449 72.3902 13.1001 72.1798 13.8009 72.0964C14.431 72.0812 15.056 72.0903 15.686 72.1094C15.9052 72.1129 16.1244 72.1164 16.3502 72.1201C16.8898 72.1293 17.4293 72.1433 17.9688 72.1582C18.1621 71.3848 18.3555 70.6114 18.5547 69.8145C18.1896 69.8221 18.1896 69.8221 17.8172 69.83C16.9127 69.8477 16.0082 69.8589 15.1036 69.8681C14.7124 69.873 14.3211 69.8797 13.93 69.8881C13.3671 69.9 12.8044 69.9055 12.2414 69.9098C11.9798 69.9174 11.9798 69.9174 11.7129 69.9251C10.8401 69.9255 10.4662 69.8995 9.74517 69.3645C9.375 68.8379 9.375 68.8379 9.375 68.1299C9.56774 67.4794 9.63329 67.2773 10.1562 66.8848C10.5975 66.8143 10.5975 66.8143 11.1192 66.8183C11.4124 66.8183 11.4124 66.8183 11.7116 66.8184C12.0274 66.8229 12.0274 66.8229 12.3497 66.8276C12.5656 66.8284 12.7816 66.8292 13.004 66.8301C13.6946 66.8334 14.3851 66.8407 15.0757 66.8482C15.5435 66.8511 16.0113 66.8538 16.4791 66.8562C17.6267 66.8626 18.7743 66.8725 19.9219 66.8848C19.9778 66.739 20.0337 66.5932 20.0912 66.443C20.3706 65.7677 20.7234 65.1707 21.0938 64.541C20.874 64.5441 20.6543 64.5472 20.4279 64.5503C19.6108 64.561 18.7936 64.5677 17.9764 64.5732C17.6231 64.5762 17.2698 64.5802 16.9165 64.5852C16.4079 64.5924 15.8994 64.5957 15.3908 64.5983C15.2335 64.6013 15.0762 64.6043 14.9141 64.6074C14.0067 64.6077 13.4419 64.528 12.6953 63.9551C12.5 63.7598 12.5 63.7598 12.4512 63.003C12.4605 62.2556 12.4605 62.2556 12.7563 61.8189C13.3894 61.4203 13.9221 61.3944 14.6483 61.4038C14.8473 61.4056 15.0464 61.4074 15.2514 61.4092C15.4668 61.4115 15.6823 61.4137 15.9042 61.416C16.3625 61.4163 16.8208 61.416 17.2791 61.4153C18 61.4144 18.7205 61.416 19.4414 61.4261C22.3922 61.4638 24.3217 61.468 26.5625 59.4629C27.4453 58.992 28.3481 58.6073 29.2969 58.291C29.3183 58.1354 29.3397 57.9799 29.3617 57.8195C29.6763 55.717 29.6763 55.717 30.2734 54.7754C30.3741 54.6103 30.4749 54.4451 30.5786 54.2749C31.7848 53.0687 33.1697 52.7122 34.8371 52.6819C35.1681 52.683 35.1681 52.683 35.5057 52.6842C35.8527 52.6798 35.8527 52.6798 36.2067 52.6752C36.9389 52.6669 37.671 52.6651 38.4033 52.6636C38.9025 52.6591 39.4018 52.6541 39.901 52.6487C41.1189 52.6365 42.3367 52.6296 43.5547 52.627C43.4326 52.5884 43.3105 52.5499 43.1847 52.5101C43.0253 52.4586 42.8659 52.4072 42.7017 52.3541C42.5433 52.3035 42.385 52.2528 42.2219 52.2007C41.2915 51.8512 40.8359 51.0381 40.3564 50.21C40.0076 48.7448 40.3183 47.3692 40.7061 45.9452C40.7562 45.7541 40.8064 45.563 40.8581 45.3661C41.0235 44.7386 41.1919 44.112 41.3605 43.4854C41.477 43.0465 41.5934 42.6075 41.7096 42.1685C41.9532 41.2497 42.1983 40.3314 42.4445 39.4133C42.7588 38.2413 43.0704 37.0685 43.3809 35.8955C43.6211 34.9891 43.8623 34.083 44.1038 33.1769C44.219 32.7448 44.3339 32.3127 44.4486 31.8805C44.6097 31.2742 44.7722 30.6682 44.935 30.0624C44.9815 29.8866 45.028 29.7108 45.076 29.5297C46.0909 25.7767 46.0909 25.7767 47.2366 24.9086C48.0433 24.5024 48.9146 24.4 49.8047 24.3067C49.6677 24.218 49.5308 24.1294 49.3896 24.0381C48.1401 22.8972 47.3444 21.3197 47.2 19.6352C47.1517 17.3954 47.3636 15.6703 48.8525 13.8941C51.8007 10.8541 56.0077 10.5763 59.375 13.1739ZM53.9062 34.4629C52.8105 38.5235 51.7148 42.584 50.5859 46.7676C51.0641 47.2458 51.3359 47.2685 51.9939 47.3991C52.2066 47.4422 52.4192 47.4853 52.6383 47.5298C52.985 47.5981 52.985 47.5981 53.3386 47.6679C53.8269 47.7679 54.3152 47.8681 54.8035 47.9685C55.5737 48.1254 56.3442 48.2808 57.1152 48.4337C57.859 48.582 58.6017 48.735 59.3445 48.8886C59.5724 48.9326 59.8004 48.9766 60.0352 49.0219C61.8708 49.4064 63.5526 50.0418 64.6606 51.6306C65.207 52.8554 65.2905 54.0583 65.2787 55.3766C65.2788 55.5464 65.2788 55.7162 65.2789 55.8911C65.2786 56.4469 65.2756 57.0028 65.2725 57.5586C65.2718 57.9461 65.2712 58.3336 65.2708 58.7211C65.2694 59.737 65.2655 60.7529 65.2612 61.7688C65.2572 62.8071 65.2554 63.8453 65.2534 64.8836C65.2493 66.9179 65.2426 68.9521 65.2344 70.9864C65.4889 71.0007 65.4889 71.0007 65.7486 71.0153C65.9737 71.0299 66.1988 71.0445 66.4307 71.0596C66.6527 71.0732 66.8748 71.0868 67.1036 71.1008C67.772 71.1815 68.3257 71.31 68.9453 71.5723C69.1895 72.0728 69.1895 72.0728 69.3359 72.5489C69.4648 72.6133 69.5938 72.6778 69.7266 72.7442C70.9897 71.5181 72.0374 70.2365 72.9492 68.7281C73.0424 68.574 73.1356 68.42 73.2316 68.2613C75.3486 64.6946 76.2791 61.5383 75.4395 57.4564C75.4054 57.2872 75.3714 57.118 75.3364 56.9436C75.2252 56.3916 75.1126 55.8399 75 55.2881C74.9219 54.9021 74.8438 54.5161 74.7658 54.1301C74.6029 53.3249 74.4393 52.5199 74.2752 51.715C74.0647 50.6819 73.8555 49.6485 73.6467 48.615C73.4859 47.8197 73.3246 47.0246 73.1631 46.2294C73.0857 45.8482 73.0085 45.4669 72.9314 45.0856C72.824 44.5549 72.7158 44.0243 72.6074 43.4938C72.5756 43.3358 72.5437 43.1777 72.5109 43.0148C72.3582 42.2326 72.3582 42.2326 72.0703 41.4942C71.9368 41.4948 71.8032 41.4953 71.6656 41.496C70.2713 41.5008 68.8774 41.496 67.4831 41.4858C66.9632 41.4825 66.4437 41.4831 65.9237 41.4854C65.1749 41.4884 64.4267 41.4826 63.678 41.4751C63.3312 41.4793 63.3312 41.4793 62.9774 41.4835C61.6253 41.46 60.8658 41.2941 59.9121 40.3124C59.7993 40.1867 59.6865 40.0611 59.5703 39.9317C59.3458 39.7117 59.1204 39.4926 58.894 39.2744C58.6716 39.0507 58.4497 38.8265 58.2283 38.6019C58.0502 38.4227 58.0502 38.4227 57.8686 38.2399C57.4954 37.8644 57.1229 37.4882 56.7505 37.1118C56.2549 36.6111 55.7586 36.1109 55.262 35.6111C55.1483 35.4958 55.0346 35.3805 54.9174 35.2616C54.6491 34.9917 54.3759 34.7267 54.1016 34.4629C54.0371 34.4629 53.9727 34.4629 53.9062 34.4629ZM56.4453 54.7754C56.4453 61.2207 56.4453 67.666 56.4453 74.3067C57.7344 74.3067 59.0234 74.3067 60.3516 74.3067C60.3851 72.4634 60.4177 70.6202 60.4492 68.7769C60.4515 68.6412 60.4539 68.5056 60.4562 68.3658C60.5289 64.0959 60.5771 59.8273 60.5469 55.5567C59.7908 55.2993 59.0632 55.0859 58.2764 54.9463C58.0966 54.9136 57.9168 54.8809 57.7316 54.8471C57.1827 54.7571 57.1827 54.7571 56.4453 54.7754Z" fill="#ED6923"/>
<path d="M14.6357 29.7532C14.8026 29.7534 14.9695 29.7536 15.1414 29.7537C15.4272 29.7533 15.4272 29.7533 15.7187 29.7529C15.9302 29.7536 16.1418 29.7543 16.3598 29.7551C16.6967 29.755 16.6967 29.755 17.0404 29.755C17.7712 29.7551 18.5021 29.7566 19.2329 29.7582C19.6826 29.7584 20.1323 29.7586 20.582 29.7588C22.254 29.7598 23.9261 29.7625 25.5981 29.765C31.1995 29.7711 31.1995 29.7711 36.9141 29.7772C36.9141 37.2538 36.9141 44.7304 36.9141 52.4335C33.1798 52.4375 29.4456 52.4415 25.5981 52.4457C24.4171 52.4475 23.2361 52.4492 22.0192 52.4511C20.582 52.452 20.582 52.452 19.9101 52.4521C19.4387 52.4524 18.9674 52.4531 18.4961 52.4541C17.784 52.4555 17.0719 52.4557 16.3598 52.4557C16.1482 52.4564 15.9367 52.4571 15.7187 52.4578C15.5282 52.4575 15.3377 52.4572 15.1414 52.457C14.9745 52.4571 14.8076 52.4573 14.6357 52.4575C14.2578 52.4335 14.2578 52.4335 14.0625 52.2382C14.0455 51.9189 14.0416 51.5989 14.0434 51.2792C14.0441 51.0859 14.0447 50.8927 14.0453 50.6936C14.0478 50.3886 14.0478 50.3886 14.0503 50.0775C14.0512 49.8735 14.0521 49.6694 14.053 49.4592C14.0553 48.9532 14.0585 48.4473 14.0625 47.9413C13.8654 47.9433 13.6684 47.9454 13.4653 47.9475C12.733 47.9546 12.0006 47.9591 11.2682 47.9628C10.9515 47.9647 10.6347 47.9674 10.318 47.9708C9.86226 47.9755 9.40656 47.9777 8.95081 47.9794C8.73897 47.9825 8.73897 47.9825 8.52286 47.9856C7.80454 47.9857 7.23352 47.9827 6.64063 47.5507C6.32129 46.8975 6.20335 46.5498 6.39648 45.8417C6.64063 45.4022 6.64063 45.4022 7.03125 45.0116C7.56345 44.9774 8.07551 44.9664 8.60748 44.9735C8.763 44.974 8.91851 44.9746 9.07873 44.9751C9.57628 44.9773 10.0738 44.9822 10.5713 44.9872C10.9083 44.9892 11.2452 44.9909 11.5822 44.9925C12.409 44.9968 13.2357 45.0036 14.0625 45.0116C14.0625 44.1737 14.0625 43.3358 14.0625 42.4725C13.6338 42.4802 13.6338 42.4802 13.1964 42.488C12.1365 42.5057 11.0766 42.5169 10.0165 42.5262C9.55767 42.5311 9.09882 42.5378 8.64 42.5462C7.98063 42.5581 7.32145 42.5636 6.66199 42.5679C6.35403 42.5755 6.35403 42.5755 6.03985 42.5832C4.62221 42.5837 4.62221 42.5837 3.96595 42.0226C3.61605 41.3001 3.68046 40.8908 3.90625 40.1288C4.47158 39.5857 4.86266 39.4702 5.63679 39.4763C5.82442 39.4764 6.01206 39.4764 6.20538 39.4765C6.50693 39.481 6.50693 39.481 6.81458 39.4856C7.12505 39.4869 7.12505 39.4869 7.4418 39.4881C8.10252 39.4914 8.76313 39.4988 9.42383 39.5062C9.87193 39.5092 10.32 39.5118 10.7681 39.5142C11.8663 39.5207 12.9644 39.5308 14.0625 39.5429C14.0625 38.7694 14.0625 37.996 14.0625 37.1991C13.6974 37.2068 13.6974 37.2068 13.325 37.2146C12.4205 37.2323 11.516 37.2435 10.6114 37.2528C10.2202 37.2577 9.82896 37.2643 9.4378 37.2728C8.87488 37.2846 8.3122 37.2902 7.74918 37.2945C7.48759 37.302 7.48759 37.302 7.22071 37.3097C6.34791 37.3101 5.974 37.2842 5.25298 36.7491C4.88281 36.2225 4.88281 36.2225 4.88281 35.5145C5.07514 34.8654 5.1474 34.6664 5.66406 34.2694C6.05336 34.199 6.05336 34.199 6.50153 34.2029C6.66963 34.2029 6.83773 34.203 7.01092 34.203C7.28194 34.2076 7.28194 34.2076 7.55844 34.2122C7.83682 34.2134 7.83682 34.2134 8.12081 34.2147C8.7139 34.218 9.30686 34.2253 9.8999 34.2328C10.3018 34.2357 10.7038 34.2384 11.1057 34.2408C12.0914 34.2473 13.0769 34.2574 14.0625 34.2694C14.0615 34.1403 14.0605 34.0111 14.0594 33.8781C14.0554 33.2965 14.0528 32.7148 14.0503 32.1332C14.0487 31.9299 14.047 31.7266 14.0453 31.5171C14.0447 31.3239 14.0441 31.1306 14.0434 30.9316C14.0424 30.7526 14.0414 30.5736 14.0403 30.3892C14.069 29.851 14.0977 29.7874 14.6357 29.7532Z" fill="#F9B97A"/>
<path d="M59.3748 13.1739C60.3286 14.1422 61.1772 15.3588 61.5233 16.6895C61.4439 17.1312 61.4439 17.1312 61.328 17.4707C60.9412 17.5352 60.5545 17.5996 60.1561 17.666C60.1652 17.8126 60.1742 17.9591 60.1836 18.1101C60.2439 19.8203 59.9383 21.0446 59.0453 22.5C58.4864 23.0438 57.8694 23.4099 57.1928 23.794C57.075 23.8987 56.9572 24.0034 56.8358 24.1114C56.7991 24.6078 56.7991 24.6078 56.8358 25.0879C56.3372 25.5865 55.9633 25.657 55.2704 25.696C55.1354 25.695 55.0004 25.694 54.8613 25.6929C54.714 25.6923 54.5667 25.6917 54.415 25.691C54.2632 25.6894 54.1113 25.6877 53.9549 25.6861C53.8001 25.6852 53.6452 25.6843 53.4857 25.6834C53.105 25.6811 52.7243 25.6776 52.3436 25.6739C58.2039 33.2811 58.2039 33.2811 66.3606 37.2083C67.9961 37.2455 69.6176 37.0532 71.2163 36.7195C72.3861 36.5116 73.4392 36.7347 74.4139 37.4048C74.9353 38.1707 75.0828 38.8137 74.9998 39.7364C74.572 40.625 74.1147 41.0588 73.242 41.4942C72.6754 41.5738 72.6754 41.5738 72.0444 41.5824C71.807 41.5867 71.5697 41.5911 71.3252 41.5956C71.0703 41.5969 70.8153 41.5981 70.5527 41.5994C70.2863 41.6018 70.02 41.6043 69.7536 41.6068C69.1959 41.6111 68.6382 41.613 68.0805 41.6135C67.3691 41.6145 66.6582 41.6245 65.947 41.6368C65.3969 41.6448 64.8468 41.6466 64.2966 41.6467C63.908 41.6482 63.5194 41.6561 63.1309 41.6641C61.9888 41.6556 61.1534 41.6483 60.2628 40.8841C60.0267 40.6365 59.7956 40.3842 59.5702 40.127C59.345 39.9066 59.1185 39.6875 58.8908 39.4698C58.6671 39.2461 58.4439 39.0219 58.2213 38.7972C58.1021 38.6777 57.9829 38.5583 57.8601 38.4352C57.4857 38.0596 57.1119 37.6834 56.7381 37.3072C56.4818 37.0499 56.2255 36.7926 55.9691 36.5354C55.346 35.9102 54.7235 35.2844 54.1014 34.6582C53.5049 36.7024 52.929 38.7508 52.3802 40.8083C52.3082 41.0781 52.3082 41.0781 52.2347 41.3534C51.9898 42.2721 51.7458 43.191 51.503 44.1102C51.4116 44.4538 51.3203 44.7974 51.2289 45.141C51.1867 45.3022 51.1444 45.4633 51.1008 45.6294C50.8032 46.7455 50.8032 46.7455 50.5858 46.9629C48.6531 46.8712 46.78 46.3923 44.8973 45.9741C44.5581 45.8997 44.2188 45.8253 43.8795 45.751C43.0548 45.5702 42.2304 45.388 41.4061 45.2051C41.1254 44.2929 41.3262 43.5557 41.5706 42.6637C41.6113 42.5088 41.6519 42.354 41.6938 42.1945C41.8285 41.6833 41.9663 41.173 42.1042 40.6626C42.1991 40.3057 42.2938 39.9488 42.3884 39.5918C42.5873 38.8431 42.7876 38.0948 42.989 37.3468C43.2456 36.3932 43.4996 35.439 43.7526 34.4844C43.9484 33.7465 44.1452 33.009 44.3423 32.2715C44.4362 31.9201 44.5299 31.5686 44.6233 31.2171C46.0674 25.7944 46.0674 25.7944 47.2365 24.9086C48.0431 24.5024 48.9145 24.4 49.8045 24.3067C49.6676 24.218 49.5306 24.1294 49.3895 24.0381C48.1399 22.8972 47.3443 21.3197 47.1999 19.6352C47.1516 17.3954 47.3634 15.6703 48.8524 13.8941C51.8005 10.8541 56.0076 10.5763 59.3748 13.1739Z" fill="#FEAA02"/>
<path d="M94.9219 64.5412C93.9484 65.7196 92.8869 66.7909 91.7969 67.8615C92.0043 67.9466 92.2118 68.0317 92.4255 68.1194C95.3114 69.3258 95.3114 69.3258 96.4844 70.4005C96.6158 70.5166 96.7472 70.6327 96.8826 70.7523C98.8035 72.5472 99.9197 74.8115 100.075 77.4471C100.138 79.38 100.064 81.1261 99.2188 82.9005C99.1503 83.0531 99.0818 83.2057 99.0112 83.3629C97.7934 85.8071 95.6185 87.6813 93.0649 88.6081C90.172 89.5104 87.2615 89.3109 84.4978 88.0748C81.4463 86.4033 80.036 83.9414 78.9063 80.7521C78.4551 81.2033 78.0039 81.6545 77.5391 82.1193C76.2109 80.127 76.6193 77.1147 77.055 74.8875C77.5618 72.5828 78.599 70.662 80.0781 68.838C80.2312 68.6444 80.3843 68.4508 80.542 68.2513C84.1107 64.1781 89.9534 62.2629 94.9219 64.5412Z" fill="#FA4354"/>
<path d="M41.0156 45.0107C41.2661 45.0608 41.5166 45.1109 41.7747 45.1626C41.9495 45.1975 42.1243 45.2325 42.3044 45.2685C42.7196 45.3515 43.1348 45.4347 43.5499 45.5179C44.8308 45.7744 46.1119 46.0297 47.3934 46.2833C49.4531 46.6909 51.5119 47.1031 53.5699 47.5195C54.2997 47.6671 55.0298 47.8134 55.7601 47.9585C56.5949 48.1247 57.4289 48.2946 58.2623 48.4674C58.5682 48.5302 58.8743 48.5917 59.1807 48.6519C61.4368 49.0964 63.3814 49.6658 64.8132 51.5888C65.556 53.0794 65.4826 54.6141 65.4663 56.2412C65.4649 56.5114 65.4637 56.7816 65.4625 57.0518C65.4348 61.6973 65.3267 66.3428 65.2344 70.9873C66.0723 70.9873 66.9101 70.9873 67.7734 70.9873C67.7734 71.0518 67.7734 71.1162 67.7734 71.1826C65.3242 71.1826 62.875 71.1826 60.3516 71.1826C60.3516 66.0264 60.3516 60.8701 60.3516 55.5576C58.418 55.1709 58.418 55.1709 56.4453 54.7764C56.4453 55.7432 56.4453 56.71 56.4453 57.7061C56.1454 57.7076 55.8454 57.7092 55.5364 57.7108C52.7086 57.726 49.8808 57.7431 47.0531 57.7622C45.5993 57.772 44.1456 57.7811 42.6918 57.7885C41.4243 57.7949 40.1567 57.8027 38.8892 57.8121C38.2185 57.817 37.5477 57.8212 36.877 57.8239C36.127 57.8272 35.3771 57.8329 34.6271 57.8391C34.4063 57.8395 34.1855 57.8399 33.9579 57.8404C32.7875 57.8528 31.7884 57.9701 30.6641 58.292C29.9805 58.3164 29.9805 58.3164 29.4922 58.292C29.4099 56.7835 29.6658 55.6215 30.4809 54.3369C31.463 53.2879 32.7854 52.7781 34.1977 52.6944C34.6336 52.6865 35.0697 52.6836 35.5057 52.6852C35.8527 52.6807 35.8527 52.6807 36.2067 52.6762C36.9389 52.6679 37.671 52.6661 38.4033 52.6646C38.9025 52.66 39.4018 52.6551 39.901 52.6497C41.1189 52.6374 42.3367 52.6306 43.5547 52.6279C43.4326 52.5894 43.3105 52.5508 43.1847 52.5111C43.0253 52.4596 42.8659 52.4081 42.7017 52.3551C42.5433 52.3044 42.385 52.2538 42.2218 52.2016C41.2915 51.8522 40.8359 51.039 40.3564 50.2109C39.9238 48.394 40.504 46.7444 41.0156 45.0107Z" fill="#2E3A47"/>
<path d="M91.9901 68.0283C92.8035 68.2198 93.5559 68.5349 94.2995 68.9118C94.5021 69.0144 94.5021 69.0144 94.7088 69.119C97.1208 70.4104 98.7371 72.5093 99.6828 75.0519C100.39 77.5611 100.347 80.5339 99.219 82.9011C99.1505 83.0536 99.082 83.2062 99.0114 83.3634C97.7936 85.8076 95.6187 87.6818 93.0651 88.6086C90.1722 89.5109 87.2617 89.3114 84.4981 88.0753C81.8638 86.6324 80.3575 84.5397 79.2315 81.8116C79.0686 81.2177 79.038 80.7823 79.1018 80.1667C79.4783 79.6571 79.4783 79.6571 79.999 79.155C80.09 79.0656 80.1811 78.9763 80.2749 78.8842C80.5648 78.6008 80.8585 78.3218 81.1526 78.0427C81.3504 77.8507 81.548 77.6584 81.7454 77.4659C82.2284 76.9958 82.7148 76.5295 83.2033 76.0651C83.4553 76.569 83.341 76.6975 83.2033 77.237C83.0129 79.2426 83.1817 80.8243 84.3752 82.5104C85.5225 83.8135 87.056 84.7446 88.8018 84.9007C90.7508 84.9496 92.2548 84.4682 93.7853 83.2474C94.9722 82.0911 95.7371 80.6826 95.7975 79.0191C95.8148 76.9011 95.3384 75.3316 93.8845 73.7214C92.6088 72.5591 91.056 72.1306 89.3679 72.1345C89.1506 72.134 88.9333 72.1335 88.7095 72.1329C88.1518 72.1561 87.6516 72.2265 87.1096 72.3542C87.9563 71.3538 88.8185 70.3741 89.7219 69.4245C89.8433 69.2893 89.9646 69.1541 90.0896 69.0148C90.7468 68.3318 91.0131 68.0647 91.9901 68.0283Z" fill="#405163"/>
<path d="M42.578 45.4014C46.219 45.9571 49.8248 46.7577 53.433 47.4909C54.2275 47.6522 55.0223 47.8122 55.8174 47.9704C56.6558 48.1372 57.4935 48.3076 58.3306 48.4811C58.632 48.543 58.9337 48.6036 59.2357 48.6629C61.4875 49.1064 63.3943 49.6833 64.8131 51.5888C65.5559 53.0794 65.4825 54.6141 65.4662 56.2412C65.4648 56.5114 65.4636 56.7816 65.4624 57.0518C65.4347 61.6973 65.3266 66.3428 65.2343 70.9873C66.0722 70.9873 66.9101 70.9873 67.7733 70.9873C67.7733 71.0518 67.7733 71.1162 67.7733 71.1826C65.3241 71.1826 62.8749 71.1826 60.3515 71.1826C60.3515 68.2822 60.3515 65.3818 60.3515 62.3936C60.4159 62.3936 60.4804 62.3936 60.5468 62.3936C60.5468 65.2295 60.5468 68.0654 60.5468 70.9873C61.0624 70.9873 61.578 70.9873 62.1093 70.9873C62.1093 65.5088 62.1093 60.0303 62.1093 54.3857C60.7222 54.0744 60.7222 54.0744 59.3305 53.8049C59.0596 53.7568 59.0596 53.7568 58.7833 53.7078C58.5931 53.6745 58.4028 53.6411 58.2068 53.6068C58.0039 53.571 57.8009 53.5351 57.5918 53.4982C57.1598 53.4221 56.7277 53.3461 56.2956 53.2703C55.6221 53.1519 54.9488 53.0325 54.2755 52.913C52.3506 52.5725 50.4265 52.2344 48.4931 51.9459C48.2234 51.9047 47.9538 51.8636 47.6841 51.8225C47.2112 51.7518 46.7377 51.6845 46.2636 51.6218C44.8829 51.4139 43.8238 51.0367 42.7733 50.0889C42.1488 49.2386 41.8733 48.4177 41.9257 47.3606C42.0426 46.6619 42.2995 46.0513 42.578 45.4014Z" fill="#425260"/>
<path d="M59.3749 13.1749C60.3287 14.1432 61.1773 15.3598 61.5234 16.6905C61.444 17.1322 61.444 17.1322 61.328 17.4717C60.9413 17.5362 60.5546 17.6006 60.1562 17.667C60.1652 17.8136 60.1743 17.9601 60.1836 18.1111C60.2439 19.8213 59.9384 21.0456 59.0453 22.501C58.4865 23.0448 57.8694 23.4109 57.1929 23.795C57.0162 23.9521 57.0162 23.9521 56.8359 24.1124C56.7992 24.6088 56.7992 24.6088 56.8359 25.0889C56.0427 25.8821 54.9454 25.7344 53.8775 25.7367C52.6964 25.7137 51.8073 25.4596 50.7812 24.8936C50.6266 24.8108 50.472 24.7279 50.3127 24.6426C48.8859 23.7917 47.8883 22.4847 47.3579 20.8996C46.9933 18.9321 47.0235 16.6925 48.0468 14.9327C49.2884 13.198 50.9246 11.831 53.0707 11.4651C55.4297 11.2102 57.4733 11.7079 59.3749 13.1749Z" fill="#FA4454"/>
<path d="M92.7736 72.7451C94.2196 73.7724 95.436 75.1061 95.8986 76.8467C96.1454 78.9565 96.027 80.7405 94.7267 82.5108C93.4969 83.8856 91.9733 84.9292 90.1049 85.0964C87.9894 85.1494 86.3213 84.5518 84.7658 83.0967C83.295 81.4592 82.9438 80.1629 82.9302 77.9827C83.121 76.1548 83.9166 75.2014 85.2175 73.9414C85.4363 73.7194 85.4363 73.7194 85.6596 73.4928C87.6542 71.5244 90.3088 71.4321 92.7736 72.7451Z" fill="#D4E1F0"/>
<path d="M20.5078 79.1904C21.9902 79.1904 23.4727 79.1904 25 79.1904C25.1289 79.5449 25.2578 79.8994 25.3906 80.2646C26.0866 81.9271 27.1024 82.9891 28.7384 83.7429C30.2636 84.31 32.1328 84.34 33.6861 83.8665C35.8854 82.8405 36.7928 81.3783 37.6953 79.1904C39.1777 79.1904 40.6602 79.1904 42.1875 79.1904C41.8266 82.0778 40.7008 84.3677 38.5338 86.3033C35.7711 88.4099 32.894 89.0429 29.4922 88.7607C26.6911 88.35 24.1539 86.7755 22.4525 84.5211C22.1052 83.9915 21.7877 83.4572 21.4844 82.9014C21.4018 82.7501 21.3192 82.5987 21.2341 82.4428C20.6645 81.2893 20.6453 80.5654 20.5078 79.1904Z" fill="#415163"/>
<path d="M85.0174 34.5808C86.1623 35.5192 87.02 36.5242 87.175 38.0323C87.1934 39.6981 87.1163 40.8117 85.9901 42.0675C84.9616 43.0571 83.9092 43.6557 82.4572 43.6364C80.8594 43.5069 79.2981 43.2756 77.7222 42.9845C77.4924 42.9438 77.2627 42.903 77.026 42.8609C73.8073 42.2773 73.8073 42.2773 72.6562 41.8859C72.5918 41.757 72.5273 41.6281 72.4609 41.4953C72.7026 41.4228 72.9443 41.3503 73.1934 41.2756C73.8065 41.0403 74.0484 40.8837 74.5239 40.3967C74.8956 39.5241 74.8712 38.8839 74.6094 37.9797C74.2664 37.4223 74.0084 37.2522 73.3856 37.0664C72.9484 36.9654 72.5131 36.8797 72.0703 36.8078C72.1313 36.3439 72.1313 36.3439 72.2656 35.8312C72.9977 35.3432 73.7071 35.2489 74.5575 35.1034C74.7275 35.0736 74.8974 35.0438 75.0725 35.0131C75.4336 34.9503 75.7948 34.8883 76.1561 34.827C76.6993 34.7342 77.2416 34.6374 77.784 34.5403C83.3653 33.5672 83.3653 33.5672 85.0174 34.5808Z" fill="#FA4454"/>
<path d="M8.06699 44.9573C8.39163 44.9545 8.39163 44.9545 8.72283 44.9517C9.075 44.952 9.075 44.952 9.43428 44.9522C9.67464 44.9514 9.915 44.9506 10.1627 44.9497C10.8026 44.9483 11.4425 44.9489 12.0825 44.95C12.4744 44.9499 12.8662 44.948 13.258 44.9453C14.0098 44.9405 14.7616 44.9397 15.5134 44.94C15.7474 44.9382 15.9814 44.9364 16.2224 44.9346C16.5489 44.9364 16.5489 44.9364 16.882 44.9383C17.0734 44.9381 17.2648 44.938 17.462 44.9379C18.061 45.0243 18.3271 45.1664 18.7498 45.5969C18.9041 46.5693 18.9041 46.5693 18.7498 47.1594C18.1111 47.7981 17.6043 47.9832 16.7234 47.9895C16.4898 47.9734 16.2561 47.9573 16.0154 47.9407C16.0154 48.6496 16.0154 49.3586 16.0154 50.0891C22.9119 50.0891 29.8084 50.0891 36.9138 50.0891C36.9138 50.8625 36.9138 51.636 36.9138 52.4328C33.9632 52.4374 31.0126 52.4409 28.0619 52.443C26.692 52.444 25.322 52.4454 23.9521 52.4476C22.6313 52.4497 21.3104 52.4509 19.9896 52.4514C19.4844 52.4517 18.9793 52.4525 18.4741 52.4535C17.7692 52.4549 17.0644 52.4551 16.3595 52.455C16.1484 52.4557 15.9372 52.4564 15.7197 52.4572C15.5288 52.4569 15.3379 52.4566 15.1412 52.4563C14.9743 52.4565 14.8074 52.4567 14.6354 52.4569C14.2576 52.4328 14.2576 52.4328 14.0623 52.2375C14.0453 51.9183 14.0414 51.5983 14.0432 51.2785C14.0438 51.0853 14.0445 50.8921 14.0451 50.693C14.0476 50.388 14.0476 50.388 14.0501 50.0769C14.0509 49.8728 14.0518 49.6688 14.0527 49.4585C14.055 48.9526 14.0583 48.4466 14.0623 47.9407C13.8652 47.9427 13.6681 47.9448 13.4651 47.9469C12.7327 47.9539 12.0004 47.9584 11.268 47.9621C10.9512 47.9641 10.6345 47.9667 10.3178 47.9701C9.86202 47.9749 9.40633 47.9771 8.95057 47.9788C8.73874 47.9818 8.73874 47.9818 8.52262 47.9849C7.8043 47.9851 7.23329 47.9821 6.64039 47.55C6.32106 46.8969 6.20312 46.5492 6.39625 45.8411C6.85689 45.0119 7.15495 44.9616 8.06699 44.9573Z" fill="#F4AE64"/>
<path d="M36.4987 53.9641C36.6738 53.9631 36.8489 53.9622 37.0294 53.9612C37.6097 53.9583 38.19 53.957 38.7703 53.9559C38.9697 53.9553 39.169 53.9548 39.3744 53.9542C40.4323 53.9513 41.4902 53.9495 42.5481 53.9486C43.6315 53.9476 44.7149 53.9429 45.7983 53.9373C46.6387 53.9336 47.4791 53.9327 48.3195 53.9324C48.7182 53.9318 49.1169 53.9302 49.5156 53.9276C52.0808 53.9122 54.5102 54.0985 57.0312 54.5815C56.8379 54.646 56.6445 54.7104 56.4453 54.7768C56.4453 55.7436 56.4453 56.7104 56.4453 57.7065C48.0664 57.771 39.6875 57.8354 31.0547 57.9018C31.3458 56.4463 31.8829 55.5376 33.1177 54.6914C34.2286 53.9847 35.202 53.9658 36.4987 53.9641Z" fill="#3E5062"/>
<path d="M72.0703 41.4951C72.2104 41.5557 72.3504 41.6163 72.4947 41.6787C73.0281 41.8787 73.507 41.9864 74.0685 42.0742C74.3519 42.1212 74.3519 42.1212 74.641 42.1692C75.0371 42.2328 75.4333 42.2954 75.8297 42.3569C76.112 42.4043 76.112 42.4043 76.4 42.4526C76.5717 42.4798 76.7435 42.507 76.9205 42.535C77.3438 42.667 77.3438 42.667 77.7344 43.2529C77.7344 43.5107 77.7344 43.7686 77.7344 44.0342C77.2582 43.9739 76.7822 43.9127 76.3062 43.8511C76.1039 43.8256 76.1039 43.8256 75.8976 43.7996C75.3122 43.7232 74.7804 43.6354 74.2188 43.4482C74.2848 43.7714 74.2848 43.7714 74.3522 44.1011C74.7683 46.1378 75.1822 48.175 75.5939 50.2126C75.8056 51.26 76.0181 52.3072 76.2323 53.3541C76.4393 54.3656 76.6443 55.3775 76.8478 56.3896C76.9256 56.7745 77.0041 57.1592 77.0833 57.5438C78.1099 62.5318 78.1099 62.5318 77.1484 65.0791C77.0868 65.2473 77.0252 65.4155 76.9618 65.5888C75.5623 69.2971 73.2568 73.5362 69.5824 75.3467C69.0866 75.4957 68.84 75.458 68.3594 75.2842C68.4843 75.1593 68.6091 75.0344 68.7378 74.9058C69.2615 74.1281 69.2959 73.4688 69.3359 72.5498C69.4505 72.5334 69.565 72.5171 69.6831 72.5002C71.5529 71.8726 73.1641 68.1615 74.0254 66.5067C75.5453 63.4039 75.9395 60.8204 75.241 57.4573C75.2067 57.2881 75.1724 57.1189 75.137 56.9446C75.0249 56.3926 74.9113 55.8408 74.7978 55.2891C74.7192 54.9031 74.6406 54.5171 74.5622 54.1311C74.3566 53.1203 74.1498 52.1097 73.9428 51.0992C73.6105 49.4765 73.2798 47.8535 72.9493 46.2304C72.8337 45.6636 72.7175 45.0969 72.6013 44.5302C72.5308 44.1851 72.4604 43.8399 72.3899 43.4948C72.3574 43.3367 72.3248 43.1786 72.2912 43.0158C72.0703 41.9301 72.0703 41.9301 72.0703 41.4951Z" fill="#E82F41"/>
<path d="M11.0209 66.8102C11.1978 66.8083 11.3747 66.8064 11.5569 66.8044C11.8473 66.8057 11.8473 66.8057 12.1436 66.807C12.45 66.805 12.45 66.805 12.7626 66.803C13.4395 66.7994 14.1164 66.8001 14.7934 66.8013C15.2631 66.8004 15.7329 66.7993 16.2026 66.7981C17.1881 66.7964 18.1736 66.7969 19.159 66.7988C20.4225 66.8011 21.6859 66.7971 22.9493 66.7914C23.9198 66.7878 24.8902 66.7879 25.8607 66.789C26.3265 66.789 26.7924 66.7878 27.2582 66.7854C27.9096 66.7825 28.5607 66.7846 29.2121 66.7879C29.5013 66.7851 29.5013 66.7851 29.7964 66.7822C30.6334 66.7913 31.124 66.8129 31.8595 67.2392C32.2266 67.6672 32.2266 67.6672 32.3242 68.363C32.2266 69.0344 32.2266 69.0344 31.9973 69.364C31.4972 69.7234 31.1371 69.6982 30.5241 69.7048C30.1773 69.7106 30.1773 69.7106 29.8234 69.7165C29.5711 69.7177 29.3188 69.719 29.0588 69.7203C28.7933 69.7236 28.5278 69.7272 28.2623 69.731C27.55 69.7405 26.8378 69.7464 26.1255 69.7513C25.3904 69.7568 24.6554 69.7647 23.9203 69.7722C22.8908 69.7825 21.8612 69.7912 20.8317 69.7985C19.4482 69.8084 18.0651 69.8248 16.6818 69.8498C15.9009 69.8634 15.12 69.8732 14.339 69.8818C13.9857 69.8865 13.6324 69.8927 13.2792 69.9006C12.7963 69.911 12.3138 69.9152 11.8309 69.9179C11.6932 69.9223 11.5554 69.9267 11.4135 69.9312C10.6714 69.9281 10.3647 69.8258 9.77082 69.3652C9.375 68.8391 9.375 68.8391 9.375 68.1311C9.66614 67.1484 9.99036 66.8134 11.0209 66.8102Z" fill="#405062"/>
<path d="M90.4299 63.174C90.6233 63.3674 90.6233 63.3674 90.8205 63.5647C90.603 63.5911 90.3855 63.6175 90.1613 63.6448C87.0165 64.0706 84.5117 65.0654 82.0315 67.0803C81.8666 67.2064 81.7016 67.3326 81.5317 67.4625C78.7884 69.7581 77.2742 73.3563 76.9533 76.8459C76.8767 78.3113 76.9002 79.6837 77.2776 81.1069C77.3605 81.6394 77.3103 81.9958 77.1487 82.51C76.8442 82.9044 76.8442 82.9044 76.4773 83.2546C76.2964 83.4317 76.2964 83.4317 76.1118 83.6124C75.7815 83.8772 75.7815 83.8772 75.3908 83.8772C75.2314 83.4095 75.0728 82.9415 74.9148 82.4734C74.8698 82.3418 74.8249 82.2103 74.7786 82.0747C73.5355 78.3816 74.0898 74.6766 75.7342 71.2276C77.5421 67.6773 80.7631 64.943 84.5362 63.6959C86.4643 63.1223 88.4285 62.9857 90.4299 63.174Z" fill="#E82E41"/>
<path d="M6.61011 39.4779C6.8026 39.4781 6.99509 39.4784 7.19341 39.4787C7.82301 39.4804 8.45247 39.4866 9.08203 39.4931C9.51479 39.4958 9.94755 39.4984 10.3803 39.5009C11.4673 39.5082 12.5542 39.5201 13.6412 39.5341C14.2225 39.5415 14.8038 39.548 15.3852 39.5542C16.2136 39.5638 17.0418 39.577 17.8701 39.594C18.1704 39.6 18.4708 39.6051 18.7711 39.6094C19.1846 39.6158 19.5978 39.626 20.0111 39.6373C20.2407 39.6424 20.4703 39.6475 20.7068 39.6528C21.3439 39.7452 21.6265 39.8607 22.0703 40.3232C22.2163 41.4913 22.2163 41.4913 21.8018 42.0566C21.0726 42.5614 20.3961 42.5046 19.5378 42.5093C19.2967 42.5117 19.2967 42.5117 19.0508 42.5141C18.5177 42.519 17.9846 42.5222 17.4515 42.525C17.2697 42.5261 17.0878 42.5271 16.9005 42.5282C15.9384 42.5334 14.9763 42.5372 14.0142 42.54C13.0194 42.5433 12.0246 42.552 11.0298 42.562C10.2658 42.5685 9.50178 42.5708 8.73772 42.5719C8.37093 42.5732 8.00415 42.5762 7.63739 42.5809C7.12437 42.587 6.6117 42.587 6.09865 42.5856C5.87093 42.5904 5.87093 42.5904 5.63861 42.5953C4.89124 42.5866 4.55995 42.5339 4.00116 42.0205C3.71094 41.4951 3.71094 41.4951 3.71094 40.7871C3.90625 40.1279 3.90625 40.1279 4.18892 39.7977C4.97374 39.3951 5.74099 39.4665 6.61011 39.4779Z" fill="#3F5163"/>
<path d="M25 79.1904C29.1895 79.1904 33.3789 79.1904 37.6953 79.1904C37.2868 81.233 36.076 82.6024 34.3849 83.7444C32.8291 84.595 30.6181 84.5238 28.9307 84.0854C27.4119 83.4687 26.2004 82.1305 25.3593 80.7567C25.1953 80.3623 25.1953 80.3623 25 79.1904Z" fill="#D4DEED"/>
<path d="M14.6237 61.3915C14.8176 61.3909 15.0116 61.3903 15.2114 61.3896C15.422 61.39 15.6325 61.3904 15.8494 61.3908C16.0686 61.3907 16.2878 61.3905 16.5137 61.3903C16.9803 61.3901 17.4469 61.3905 17.9136 61.3913C18.6131 61.3924 19.3125 61.3913 20.012 61.3901C21.3494 61.3893 22.6863 61.4006 24.0236 61.4168C24.2284 61.4183 24.4331 61.4199 24.6441 61.4215C25.2132 61.4274 25.7817 61.4399 26.3505 61.4549C26.6005 61.4565 26.6005 61.4565 26.8555 61.458C27.6959 61.4883 28.0356 61.5433 28.7236 62.0721C29.1017 62.5887 29.1017 62.5887 29.1139 63.199C28.8714 63.8551 28.7238 64.0021 28.1251 64.3465C27.5298 64.4309 27.5298 64.4309 26.8213 64.4464C26.6912 64.45 26.5611 64.4535 26.4271 64.4572C25.9962 64.468 25.5654 64.4745 25.1344 64.4808C24.8328 64.4868 24.5311 64.493 24.2295 64.4993C23.42 64.5149 22.6105 64.5259 21.801 64.5354C21.2796 64.5419 20.7583 64.5498 20.237 64.5579C19.365 64.571 18.493 64.5802 17.6209 64.5865C17.2844 64.5892 16.9479 64.5928 16.6114 64.5973C16.1387 64.6031 15.6661 64.605 15.1933 64.6059C15.0534 64.6083 14.9135 64.6107 14.7694 64.6131C13.834 64.609 13.1726 64.433 12.5001 63.7605C12.4081 62.3339 12.4081 62.3339 12.7565 61.8196C13.3775 61.4286 13.9104 61.3922 14.6237 61.3915Z" fill="#3F5162"/>
<path d="M22.6562 29.7764C24.5254 29.7764 26.3945 29.7764 28.3203 29.7764C28.3203 32.4834 28.3203 35.1904 28.3203 37.9795C26.4512 37.9795 24.582 37.9795 22.6562 37.9795C22.6562 35.2725 22.6562 32.5654 22.6562 29.7764Z" fill="#FA4555"/>
<path d="M37.4735 57.6273C38.1429 57.6323 38.8122 57.6327 39.4816 57.6336C40.7432 57.636 42.0048 57.6424 43.2664 57.6503C44.7052 57.6591 46.144 57.6633 47.5828 57.6672C50.537 57.6754 53.4911 57.6897 56.4453 57.7066C56.4453 59.189 56.4453 60.6714 56.4453 62.1987C56.3809 62.1987 56.3164 62.1987 56.25 62.1987C56.25 61.103 56.25 60.0073 56.25 58.8784C53.4042 58.8859 50.5585 58.8975 47.7128 58.9144C46.3911 58.9221 45.0695 58.9284 43.7478 58.9314C42.4699 58.9342 41.1922 58.9411 39.9144 58.9504C39.4292 58.9532 38.9441 58.9548 38.4589 58.955C35.1336 58.9572 31.8854 59.0119 28.9062 60.6729C28.7738 60.7422 28.6414 60.8116 28.5049 60.8831C27.8849 61.191 27.8849 61.191 27.3437 61.6128C26.7846 61.6271 26.2303 61.6309 25.6714 61.625C25.5139 61.6241 25.3564 61.6233 25.1942 61.6223C24.8039 61.62 24.4137 61.6165 24.0234 61.6128C24.0234 61.4839 24.0234 61.355 24.0234 61.2222C28.0867 57.9341 32.4132 57.5834 37.4735 57.6273Z" fill="#E43043"/>
<path d="M82.0312 34.0732C83.6859 34.0732 84.5733 34.1207 85.7391 35.2199C86.9783 36.5743 87.2032 37.6263 87.1689 39.455C87.0522 40.7747 86.5491 41.5296 85.6079 42.4351C84.5008 43.3398 83.4476 43.6436 82.0312 43.6436C82.0312 40.4854 82.0312 37.3271 82.0312 34.0732Z" fill="#FEA902"/>
<path d="M6.88047 34.1899C7.25693 34.1861 7.25693 34.1861 7.641 34.1824C7.91535 34.1828 8.1897 34.1833 8.46405 34.1841C8.74551 34.1832 9.02696 34.1822 9.30842 34.181C9.89851 34.1792 10.4886 34.1797 11.0786 34.1817C11.8337 34.1839 12.5887 34.18 13.3437 34.1743C13.9252 34.1707 14.5066 34.1707 15.088 34.1718C15.3663 34.1719 15.6446 34.1707 15.9229 34.1683C16.3127 34.1654 16.7026 34.168 17.0924 34.1708C17.4248 34.1708 17.4248 34.1708 17.7639 34.1709C18.4931 34.2908 18.8205 34.5282 19.3359 35.05C19.4458 35.636 19.4458 35.636 19.3359 36.2219C19.043 36.64 19.043 36.64 18.5547 37.0032C17.9745 37.0989 17.4659 37.1402 16.8823 37.1496C16.705 37.1546 16.5276 37.1595 16.3449 37.1646C15.7898 37.1775 15.2348 37.1855 14.6796 37.1922C14.2028 37.1993 13.726 37.2095 13.2492 37.22C12.3082 37.2402 11.3672 37.2541 10.4261 37.2645C10.0433 37.2693 9.66056 37.2756 9.27786 37.2835C8.73212 37.2941 8.18667 37.2981 7.64084 37.3007C7.47579 37.3051 7.31074 37.3095 7.14068 37.3141C6.29526 37.3111 5.95737 37.2721 5.25975 36.748C4.88281 36.2219 4.88281 36.2219 4.88281 35.5139C5.2355 34.3236 5.67172 34.1956 6.88047 34.1899Z" fill="#405163"/>
<path d="M15.1854 72.0975C15.3811 72.1012 15.5768 72.105 15.7784 72.1088C16.2351 72.118 16.6918 72.1289 17.1485 72.141C17.9288 72.1599 18.7089 72.1643 19.4894 72.1678C20.2163 72.1718 20.9431 72.1802 21.67 72.1893C22.034 72.1932 22.398 72.1956 22.7621 72.1965C23.2793 72.1983 23.7961 72.2063 24.3132 72.2158C24.5476 72.2146 24.5476 72.2146 24.7868 72.2135C25.5496 72.2336 25.9028 72.2855 26.471 72.8126C26.7577 73.3304 26.7577 73.3304 26.7577 73.9408C26.5278 74.6016 26.3794 74.7435 25.7811 75.0882C25.2105 75.164 25.2105 75.164 24.5394 75.1672C24.2879 75.1696 24.0363 75.1721 23.7771 75.1747C23.5031 75.1743 23.2292 75.1737 22.9552 75.1729C22.6736 75.1738 22.3919 75.1748 22.1103 75.176C21.5205 75.1778 20.9308 75.1773 20.3411 75.1754C19.5858 75.1731 18.8306 75.1771 18.0753 75.1828C17.4939 75.1863 16.9125 75.1863 16.331 75.1852C16.0526 75.1851 15.7741 75.1863 15.4957 75.1887C15.1063 75.1917 14.7169 75.1891 14.3275 75.1862C14.1061 75.1862 13.8846 75.1862 13.6565 75.1861C12.9562 75.066 12.7263 74.8702 12.3046 74.307C12.1947 73.6234 12.1947 73.6234 12.3046 72.9398C13.1501 71.9742 13.9941 72.0595 15.1854 72.0975Z" fill="#405062"/>
<path d="M60.3516 71.1819C61.4741 71.1578 62.5965 71.1401 63.7192 71.1283C64.101 71.1234 64.4827 71.1167 64.8644 71.1083C65.4137 71.0964 65.9628 71.0909 66.5123 71.0866C66.6824 71.0815 66.8525 71.0765 67.0278 71.0713C67.8962 71.0709 68.2469 71.0948 68.955 71.6434C69.5033 72.3848 69.4722 72.8916 69.4336 73.7858C69.2817 74.5963 68.9655 74.9304 68.3594 75.4788C67.5071 75.9049 66.3839 75.7507 65.4383 75.764C65.1579 75.7691 64.8775 75.7771 64.5973 75.788C61.9855 75.8882 61.9855 75.8882 60.939 75.1797C60.2244 74.4329 60.2417 73.6413 60.2539 72.659C60.2739 72.1642 60.3089 71.6755 60.3516 71.1819Z" fill="#FDAA02"/>
<path d="M8.06699 44.9573C8.39163 44.9545 8.39163 44.9545 8.72283 44.9517C9.075 44.952 9.075 44.952 9.43428 44.9522C9.67464 44.9514 9.915 44.9506 10.1627 44.9497C10.8026 44.9483 11.4425 44.9489 12.0825 44.95C12.4744 44.9499 12.8662 44.948 13.258 44.9453C14.0098 44.9405 14.7616 44.9397 15.5134 44.94C15.7474 44.9382 15.9814 44.9364 16.2224 44.9346C16.5489 44.9364 16.5489 44.9364 16.882 44.9383C17.0734 44.9381 17.2648 44.938 17.462 44.9379C18.0521 45.023 18.3204 45.1899 18.7498 45.5969C18.8535 45.9753 18.8535 45.9753 18.8474 46.3782C18.8504 46.5776 18.8504 46.5776 18.8535 46.781C18.7498 47.1594 18.7498 47.1594 18.4454 47.4928C17.8009 47.8341 17.2054 47.858 16.4915 47.8796C16.2609 47.889 16.2609 47.889 16.0256 47.8986C14.3926 47.9543 12.7576 47.9659 11.1237 47.9747C10.8128 47.9764 10.5018 47.9787 10.1909 47.9814C9.74817 47.9849 9.30555 47.9857 8.86283 47.9857C8.7291 47.9871 8.59536 47.9885 8.45758 47.9899C7.75877 47.9866 7.21876 47.9635 6.64039 47.55C6.32106 46.8969 6.20312 46.5492 6.39625 45.8411C6.85689 45.0119 7.15495 44.9616 8.06699 44.9573Z" fill="#3F5162"/>
<path d="M49.1577 24.4906C49.3945 24.4932 49.3945 24.4932 49.6361 24.4959C49.8162 24.4993 49.8162 24.4993 50 24.5028C49.4141 24.8934 49.4141 24.8934 48.8403 25.2108C47.6865 26.1056 47.3371 27.4995 46.9871 28.8717C46.946 29.0269 46.9049 29.1821 46.8626 29.342C46.7286 29.85 46.5969 30.3586 46.4653 30.8672C46.3716 31.2238 46.2778 31.5803 46.1839 31.9368C45.9376 32.8726 45.6933 33.8089 45.4496 34.7454C45.1063 36.0625 44.7603 37.3789 44.4146 38.6954C44.2309 39.3952 44.0479 40.0951 43.8655 40.7953C43.4626 42.3389 43.0589 43.8795 42.5781 45.4012C42.127 45.2723 41.6758 45.1434 41.2109 45.0106C41.3258 43.9422 41.513 42.9269 41.7925 41.8884C41.8313 41.7411 41.8701 41.5939 41.91 41.4421C42.0374 40.9597 42.1662 40.4778 42.2951 39.9958C42.3849 39.6572 42.4747 39.3187 42.5645 38.9801C42.7525 38.2719 42.9412 37.5639 43.1304 36.856C43.3715 35.9541 43.6107 35.0517 43.8494 34.1492C44.0345 33.4501 44.2206 32.7513 44.407 32.0525C44.4955 31.7202 44.5837 31.3878 44.6716 31.0553C46.1051 25.641 46.1051 25.641 47.6562 24.6981C48.2192 24.5105 48.5739 24.4821 49.1577 24.4906Z" fill="#EE9E00"/>
<path d="M54.1016 33.0967C54.664 33.3512 55.0625 33.62 55.4939 34.0602C55.608 34.1756 55.7221 34.291 55.8396 34.4099C55.9607 34.5342 56.0818 34.6585 56.2065 34.7866C56.3331 34.9147 56.4598 35.0428 56.5903 35.1748C57.131 35.7219 57.6694 36.2713 58.208 36.8205C58.6021 37.2216 58.9973 37.6216 59.3925 38.0215C59.5132 38.1454 59.6339 38.2693 59.7582 38.397C59.8729 38.513 59.9877 38.629 60.1058 38.7485C60.2054 38.8501 60.305 38.9517 60.4076 39.0564C61.2215 39.7625 61.8292 40.006 62.9078 40.0084C63.2607 40.0112 63.2607 40.0112 63.6208 40.014C63.9996 40.0123 63.9996 40.0123 64.386 40.0104C64.6494 40.0108 64.9127 40.0114 65.1761 40.0121C65.7271 40.013 66.278 40.0117 66.829 40.009C67.5337 40.0057 68.2383 40.0076 68.943 40.0111C69.4866 40.0132 70.0301 40.0125 70.5737 40.011C70.9594 40.0104 71.345 40.0122 71.7307 40.014C71.966 40.0122 72.2013 40.0103 72.4438 40.0084C72.6503 40.008 72.8568 40.0075 73.0696 40.007C73.7177 39.9214 74.0849 39.7308 74.6094 39.3467C74.8687 38.943 74.8687 38.943 75 38.5654C75.0986 39.6003 74.876 40.1098 74.2188 40.9092C73.4793 41.448 72.953 41.571 72.0445 41.5833C71.6885 41.5899 71.6885 41.5899 71.3254 41.5966C71.0704 41.5978 70.8155 41.5991 70.5528 41.6004C70.2865 41.6028 70.0201 41.6052 69.7538 41.6077C69.196 41.6121 68.6384 41.614 68.0807 41.6144C67.3693 41.6155 66.6584 41.6255 65.9471 41.6378C65.397 41.6458 64.847 41.6476 64.2968 41.6476C63.9082 41.6492 63.5196 41.6571 63.1311 41.665C61.1548 41.6503 61.1548 41.6503 60.266 40.8847C60.0296 40.6367 59.7975 40.3844 59.5703 40.1279C59.3387 39.9082 59.1052 39.6903 58.8699 39.4745C58.2491 38.8811 57.6345 38.2815 57.0218 37.6799C56.7579 37.4223 56.4925 37.1663 56.2256 36.9119C55.837 36.541 55.4538 36.1654 55.0713 35.7883C54.9513 35.6758 54.8313 35.5632 54.7076 35.4473C54.3915 35.1297 54.1301 34.8523 53.9062 34.4639C53.9311 33.6975 53.9311 33.6975 54.1016 33.0967Z" fill="#ED9E00"/>
<path d="M55.8266 17.6105C56.079 17.6124 56.3314 17.6143 56.5914 17.6163C56.856 17.6212 57.1206 17.6261 57.3853 17.6311C57.6537 17.6341 57.9221 17.6367 58.1905 17.6391C58.8459 17.646 59.501 17.6557 60.1562 17.6678C60.1656 18.0362 60.1721 18.4047 60.1776 18.7733C60.1816 18.9785 60.1855 19.1837 60.1896 19.3951C60.1181 20.7167 59.5436 22.017 58.5938 22.9412C57.0228 24.1131 57.0228 24.1131 56.4453 24.1131C56.2161 23.8331 56.2161 23.8331 55.9647 23.4417C55.8725 23.2989 55.7804 23.1562 55.6854 23.0091C55.5898 22.8578 55.4941 22.7065 55.3955 22.5506C55.3013 22.4053 55.2072 22.26 55.1102 22.1104C53.6287 19.7955 53.6287 19.7955 53.4058 18.6809C53.5156 18.2537 53.5156 18.2537 53.9274 17.9376C54.6079 17.6125 55.0745 17.6006 55.8266 17.6105Z" fill="#FAB87A"/>
<path d="M55.2736 11.4164C54.848 11.8421 54.6547 11.8957 54.0895 12.0512C52.3224 12.6194 50.8417 13.7287 49.9575 15.3753C49.0797 17.2655 48.9431 19.1185 49.6157 21.1081C50.2883 22.7597 51.3472 24.0181 52.9657 24.8045C53.5356 25.0434 54.1067 25.2688 54.6877 25.4789C54.6877 25.5434 54.6877 25.6078 54.6877 25.6742C52.6555 25.8299 51.0799 25.2282 49.4219 24.0652C48.1181 22.9387 47.3419 21.3377 47.204 19.6402C47.115 17.409 47.3759 15.6562 48.8527 13.8945C50.7273 11.9615 52.6383 11.3328 55.2736 11.4164Z" fill="#E92F42"/>
<path d="M20.5078 79.3857C21.4102 79.3857 22.3125 79.3857 23.2422 79.3857C23.3109 79.6005 23.3797 79.8153 23.4505 80.0365C24.5599 83.4028 26.0618 85.833 29.3091 87.479C30.3935 88.008 31.4149 88.3937 32.6172 88.5654C32.6172 88.6299 32.6172 88.6943 32.6172 88.7607C29.184 88.9213 26.4672 88.243 23.7915 85.9897C21.9098 84.2322 20.671 81.9553 20.5078 79.3857Z" fill="#2C3A48"/>
<path d="M81.4451 78.0186C81.4456 78.1656 81.4461 78.3126 81.4466 78.4641C81.546 81.1936 82.4826 83.821 84.3748 85.8311C86.1265 87.4166 88.069 88.4985 90.4295 88.7607C90.4939 88.8896 90.5584 89.0186 90.6248 89.1514C87.5468 89.3612 84.7045 88.5764 82.3187 86.5925C80.7089 85.0765 79.3497 82.9873 79.0151 80.7667C79.1334 79.944 79.5748 79.5563 80.1634 79.0195C80.2642 78.9223 80.365 78.8252 80.4689 78.725C81.2113 78.0186 81.2113 78.0186 81.4451 78.0186Z" fill="#2D3A48"/>
<path d="M60.3514 71.1826C60.9315 71.1826 61.5116 71.1826 62.1092 71.1826C62.1334 71.5814 62.1334 71.5814 62.1581 71.9883C62.2581 72.9074 62.5004 73.4028 63.0858 74.1123C63.6415 74.3902 64.1331 74.3505 64.7536 74.3694C65.135 74.3817 65.135 74.3817 65.5242 74.3942C65.7937 74.402 66.0633 74.4097 66.3329 74.4175C66.604 74.4259 66.8751 74.4344 67.1462 74.443C67.8109 74.4638 68.4757 74.4837 69.1405 74.5029C68.4081 75.4551 68.4081 75.4551 67.9686 75.6748C67.126 75.7391 66.2828 75.7528 65.4381 75.7646C65.1578 75.7698 64.8774 75.7778 64.5972 75.7887C61.9785 75.8891 61.9785 75.8891 60.945 75.0881C60.3532 74.4486 60.1823 73.9399 60.2141 73.0766C60.2272 72.939 60.2403 72.8014 60.2538 72.6597C60.2608 72.5168 60.2679 72.3739 60.2751 72.2267C60.2934 71.8782 60.3214 71.5303 60.3514 71.1826Z" fill="#EC9D00"/>
<path d="M82.0312 34.074C82.0312 34.5252 82.0312 34.9764 82.0312 35.4412C80.4486 35.766 78.8611 36.0613 77.2705 36.3445C77.0288 36.3893 76.7871 36.4342 76.5381 36.4803C75.0317 36.7467 73.5996 36.8689 72.0703 36.8084C72.1313 36.3445 72.1313 36.3445 72.2656 35.8318C72.8082 35.4701 73.024 35.3754 73.6346 35.2714C73.7911 35.244 73.9476 35.2167 74.1088 35.1885C74.2773 35.1606 74.4457 35.1327 74.6193 35.104C74.7934 35.0742 74.9676 35.0444 75.147 35.0137C75.5154 34.951 75.884 34.889 76.2527 34.8276C76.8149 34.7339 77.3767 34.6376 77.9385 34.5409C78.2969 34.4803 78.6553 34.4197 79.0138 34.3594C79.1811 34.3307 79.3484 34.302 79.5207 34.2725C80.368 34.1327 81.1689 34.0413 82.0312 34.074Z" fill="#E92F42"/>
<path d="M82.0312 34.0732C83.6859 34.0732 84.5733 34.1207 85.7391 35.2199C86.8043 36.3841 87.1637 37.2205 87.1338 38.8218C87.1303 39.0667 87.1267 39.3117 87.1231 39.5641C87.1186 39.7502 87.114 39.9362 87.1094 40.1279C87.0449 40.1279 86.9805 40.1279 86.9141 40.1279C86.906 39.8741 86.8979 39.6204 86.8896 39.3589C86.7568 38.2342 86.3303 37.4274 85.5469 36.6123C84.4495 35.8542 83.5618 35.6312 82.2266 35.4404C82.2266 38.083 82.2266 40.7256 82.2266 43.4482C82.4844 43.5127 82.7422 43.5771 83.0078 43.6436C82.6855 43.6436 82.3633 43.6436 82.0312 43.6436C82.0312 40.4854 82.0312 37.3271 82.0312 34.0732Z" fill="#F2930C"/>
<path d="M14.258 29.7764C14.8381 29.7764 15.4182 29.7764 16.0158 29.7764C16.0158 31.2588 16.0158 32.7412 16.0158 34.2686C15.3713 34.2686 14.7268 34.2686 14.0627 34.2686C14.0575 33.5565 14.0536 32.8444 14.0505 32.1323C14.0489 31.929 14.0472 31.7257 14.0455 31.5163C14.0446 31.2264 14.0446 31.2264 14.0436 30.9307C14.0426 30.7517 14.0416 30.5727 14.0405 30.3883C14.0627 29.9717 14.0627 29.9717 14.258 29.7764Z" fill="#F5B45B"/>
<path d="M17.3828 75.0889C18.0273 75.0889 18.6719 75.0889 19.3359 75.0889C19.0495 79.0862 19.0495 79.0862 18.75 79.3857C18.4207 79.3998 18.0908 79.4021 17.7612 79.3979C17.5817 79.3962 17.4022 79.3944 17.2173 79.3926C17.0785 79.3903 16.9398 79.3881 16.7969 79.3857C16.8574 78.8526 16.9185 78.3196 16.98 77.7866C16.997 77.6364 17.014 77.4863 17.0315 77.3315C17.1191 76.5756 17.2174 75.8326 17.3828 75.0889Z" fill="#E92F42"/>
<path d="M10.0585 72.0361C10.9237 72.1906 11.2093 72.4248 11.7186 73.1348C11.8484 73.8415 11.8095 74.1564 11.4379 74.7705C10.6986 75.2393 10.0314 75.2411 9.17957 75.0879C8.67908 74.7705 8.67908 74.7705 8.39832 74.3066C8.28845 73.7329 8.28845 73.7329 8.39832 73.1348C8.90767 72.4248 9.19328 72.1906 10.0585 72.0361Z" fill="#3E5062"/>
<path d="M8.00786 66.8865C8.48394 67.1062 8.48394 67.1062 8.78911 67.4724C9.02214 68.187 9.04823 68.5075 8.72808 69.1936C8.39849 69.6208 8.39849 69.6208 8.00786 69.8161C6.62394 69.9277 6.62394 69.9277 5.95708 69.511C5.55007 68.8496 5.55513 68.4306 5.66411 67.6677C6.23694 66.7369 7.00651 66.7199 8.00786 66.8865Z" fill="#3E5062"/>
<path d="M2.73432 39.7382C3.16157 40.2631 3.16157 40.2631 3.32026 40.9101C3.1729 41.6067 3.04293 41.9687 2.53901 42.4726C2.09421 42.5313 2.09421 42.5313 1.57465 42.5336C1.31822 42.5385 1.31822 42.5385 1.05662 42.5436C0.585882 42.4726 0.585882 42.4726 0.23493 42.2246C-0.0484045 41.8171 -0.073213 41.5978 -0.0610909 41.1054C-0.0603355 40.9725 -0.0595802 40.8395 -0.058802 40.7026C-5.57005e-05 40.3242 -5.56856e-05 40.3242 0.390569 39.7382C1.20317 39.4674 1.91273 39.4913 2.73432 39.7382Z" fill="#3E5061"/>
<path d="M24.0234 64.3457C23.9683 64.4555 23.9132 64.5652 23.8564 64.6783C23.7069 64.9783 23.5639 65.2816 23.4276 65.5878C23.1471 66.1191 22.9152 66.4872 22.4609 66.8848C21.5963 67.0379 20.7906 66.9892 19.9219 66.8848C20.0519 66.5592 20.1821 66.2337 20.3125 65.9082C20.3895 65.6918 20.3895 65.6918 20.4681 65.471C21.1858 63.9091 22.4959 64.1969 24.0234 64.3457Z" fill="#E72F42"/>
<path d="M14.6566 36.9814C14.8274 36.9825 14.9982 36.9835 15.1742 36.9845C15.3586 36.9852 15.543 36.9858 15.733 36.9865C15.927 36.9881 16.121 36.9897 16.3209 36.9914C16.5156 36.9923 16.7104 36.9932 16.911 36.9941C17.3938 36.9964 17.8766 36.9996 18.3594 37.0036C18.3594 37.0681 18.3594 37.1325 18.3594 37.1989C17.586 37.1989 16.8126 37.1989 16.0157 37.1989C16.0157 37.9724 16.0157 38.7458 16.0157 39.5427C17.6915 39.5427 19.3672 39.5427 21.0938 39.5427C21.0938 39.6071 21.0938 39.6716 21.0938 39.738C20.1238 39.7428 19.1539 39.7464 18.1839 39.7487C17.8537 39.7497 17.5235 39.751 17.1932 39.7527C16.7196 39.7551 16.246 39.7562 15.7723 39.7571C15.5495 39.7586 15.5495 39.7586 15.3222 39.7601C14.9674 39.7602 14.6125 39.7501 14.2579 39.738C14.0626 39.5427 14.0626 39.5427 14.0366 39.0178C14.0371 38.8043 14.0376 38.5908 14.0381 38.3708C14.0376 38.1573 14.0371 37.9438 14.0366 37.7238C14.0717 37.014 14.0717 37.014 14.6566 36.9814Z" fill="#E0A960"/>
<path d="M58.4229 74.2217C58.6061 74.2128 58.7894 74.2038 58.9783 74.1946C59.9717 74.1786 60.5871 74.2323 61.3632 74.8862C61.6897 75.2066 61.6897 75.2066 61.9141 75.479C61.9141 75.5435 61.9141 75.6079 61.9141 75.6743C60.0449 75.6743 58.1758 75.6743 56.25 75.6743C56.25 73.8615 56.857 74.2521 58.4229 74.2217Z" fill="#EA3143"/>
<path d="M18.5547 69.8154C19.3281 69.8154 20.1016 69.8154 20.8984 69.8154C20.6406 70.5889 20.3828 71.3623 20.1172 72.1592C19.4082 72.1592 18.6992 72.1592 17.9688 72.1592C18.1621 71.3857 18.3555 70.6123 18.5547 69.8154Z" fill="#E82E41"/>
<path d="M14.0625 42.4717C14.707 42.4717 15.3516 42.4717 16.0156 42.4717C16.0156 43.3096 16.0156 44.1475 16.0156 45.0107C15.3711 45.0107 14.7266 45.0107 14.0625 45.0107C14.0625 44.1729 14.0625 43.335 14.0625 42.4717Z" fill="#F6B55A"/>
</g>
<defs>
<clipPath id="clip0_356_12021">
<rect width="100" height="100" fill="white" transform="translate(0 0.28418)"/>
</clipPath>
</defs>
</svg>
