<svg width="204" height="200" viewBox="0 0 204 200" fill="none" xmlns="http://www.w3.org/2000/svg">
<g filter="url(#filter0_d_1038_16177)">
<circle cx="122.5" cy="118.5" r="72.5" fill="white"/>
</g>
<g filter="url(#filter1_d_1038_16177)">
<circle cx="67" cy="67" r="17" fill="#FDF0E9"/>
</g>
<path d="M59.2777 67.016C59.2777 65.1707 59.6084 63.7253 60.2697 62.68C60.9417 61.6347 62.051 61.112 63.5977 61.112C65.1444 61.112 66.2484 61.6347 66.9097 62.68C67.5817 63.7253 67.9177 65.1707 67.9177 67.016C67.9177 68.872 67.5817 70.328 66.9097 71.384C66.2484 72.44 65.1444 72.968 63.5977 72.968C62.051 72.968 60.9417 72.44 60.2697 71.384C59.6084 70.328 59.2777 68.872 59.2777 67.016ZM65.7097 67.016C65.7097 66.2267 65.6564 65.5653 65.5497 65.032C65.4537 64.488 65.251 64.0453 64.9417 63.704C64.643 63.3627 64.195 63.192 63.5977 63.192C63.0004 63.192 62.547 63.3627 62.2377 63.704C61.939 64.0453 61.7364 64.488 61.6297 65.032C61.5337 65.5653 61.4857 66.2267 61.4857 67.016C61.4857 67.8267 61.5337 68.5093 61.6297 69.064C61.7257 69.608 61.9284 70.0507 62.2377 70.392C62.547 70.7227 63.0004 70.888 63.5977 70.888C64.195 70.888 64.6484 70.7227 64.9577 70.392C65.267 70.0507 65.4697 69.608 65.5657 69.064C65.6617 68.5093 65.7097 67.8267 65.7097 67.016ZM69.3494 63.4V61.336H73.2054V73H70.9014V63.4H69.3494Z" fill="#D86020"/>
<g clip-path="url(#clip0_1038_16177)">
<path d="M101.89 99.1875C102.504 99.1875 103.118 99.1875 103.75 99.1875C103.75 99.3854 103.75 99.5833 103.75 99.7872C103.757 104.483 103.765 109.178 103.775 113.874C103.776 114.451 103.777 115.029 103.778 115.606C103.779 115.721 103.779 115.836 103.779 115.955C103.783 117.818 103.786 119.682 103.788 121.545C103.79 123.456 103.794 125.367 103.799 127.278C103.802 128.458 103.804 129.638 103.804 130.818C103.805 131.626 103.807 132.435 103.809 133.243C103.811 133.71 103.812 134.177 103.811 134.643C103.811 135.071 103.812 135.498 103.815 135.925C103.815 136.08 103.815 136.234 103.815 136.389C103.814 136.599 103.815 136.809 103.817 137.019C103.817 137.136 103.817 137.252 103.818 137.373C103.878 137.834 104.062 138.123 104.407 138.43C104.906 138.633 105.386 138.611 105.921 138.61C106.04 138.611 106.16 138.612 106.283 138.613C106.678 138.616 107.072 138.617 107.467 138.618C107.741 138.62 108.015 138.622 108.289 138.624C108.936 138.629 109.583 138.632 110.229 138.635C111.038 138.638 111.847 138.644 112.656 138.649C114.099 138.658 115.541 138.666 116.984 138.672C116.983 138.575 116.982 138.478 116.981 138.378C116.977 138.013 116.974 137.648 116.972 137.283C116.971 137.126 116.969 136.969 116.968 136.812C116.935 134.1 116.935 134.1 117.849 133.079C118.806 132.164 119.612 131.973 120.906 131.99C121.013 131.99 121.12 131.991 121.23 131.992C121.491 131.994 121.753 131.997 122.015 132C122.014 131.811 122.014 131.811 122.013 131.619C122.006 130.428 122.002 129.237 121.998 128.046C121.997 127.434 121.994 126.822 121.991 126.21C121.987 125.619 121.985 125.027 121.984 124.436C121.984 124.211 121.982 123.986 121.981 123.762C121.957 120.606 121.957 120.606 123.182 119.344C123.994 118.585 124.792 118.485 125.876 118.508C126.83 118.599 127.545 118.99 128.18 119.698C128.894 120.598 128.956 121.657 128.962 122.766C128.964 122.893 128.966 123.02 128.968 123.151C128.974 123.553 128.977 123.955 128.981 124.357C128.985 124.632 128.989 124.906 128.992 125.18C129.002 125.849 129.009 126.518 129.015 127.188C129.165 127.135 129.165 127.135 129.318 127.081C130.235 126.79 131.269 126.838 132.139 127.242C132.858 127.655 133.368 128.187 133.718 128.938C133.79 128.914 133.862 128.89 133.935 128.866C135.031 128.532 136.166 128.402 137.218 128.938C137.957 129.392 138.427 129.941 138.859 130.688C138.974 130.636 139.089 130.584 139.208 130.53C140.214 130.104 141.138 130.189 142.14 130.578C142.962 131.006 143.616 131.742 143.931 132.612C144.063 133.118 144.048 133.629 144.047 134.149C144.048 134.274 144.049 134.399 144.05 134.528C144.054 134.938 144.055 135.349 144.056 135.76C144.057 136.045 144.059 136.331 144.062 136.617C144.066 137.29 144.069 137.964 144.072 138.638C144.075 139.405 144.08 140.172 144.085 140.94C144.095 142.517 144.103 144.094 144.109 145.672C143.495 145.672 142.882 145.672 142.25 145.672C142.25 145.519 142.249 145.366 142.249 145.209C142.247 143.767 142.243 142.325 142.235 140.883C142.231 140.142 142.229 139.4 142.228 138.659C142.228 137.943 142.225 137.228 142.22 136.512C142.218 136.24 142.218 135.967 142.218 135.694C142.219 135.311 142.216 134.929 142.212 134.546C142.213 134.434 142.214 134.322 142.215 134.206C142.204 133.502 142.089 132.962 141.593 132.438C141.098 132.145 140.625 132.149 140.062 132.219C139.575 132.44 139.347 132.673 139.146 133.169C138.995 133.728 139.014 134.315 139.003 134.892C138.999 135.024 138.995 135.156 138.991 135.292C138.982 135.617 138.975 135.941 138.968 136.266C138.391 136.266 137.813 136.266 137.218 136.266C137.216 136.068 137.216 136.068 137.214 135.866C137.207 135.375 137.199 134.883 137.19 134.392C137.186 134.179 137.183 133.967 137.181 133.755C137.177 133.449 137.171 133.143 137.165 132.837C137.164 132.696 137.164 132.696 137.163 132.552C137.149 131.961 137.063 131.539 136.781 131.016C136.332 130.628 135.953 130.479 135.359 130.469C134.791 130.642 134.48 130.845 134.156 131.344C134.057 131.64 134.031 131.825 134.024 132.131C134.022 132.223 134.02 132.315 134.017 132.409C134.016 132.508 134.014 132.607 134.012 132.709C134.009 132.861 134.009 132.861 134.005 133.016C133.998 133.341 133.991 133.665 133.985 133.989C133.98 134.209 133.976 134.429 133.971 134.649C133.959 135.188 133.948 135.727 133.937 136.266C133.36 136.266 132.782 136.266 132.187 136.266C132.185 135.993 132.185 135.993 132.182 135.716C132.176 135.041 132.168 134.366 132.158 133.691C132.155 133.399 132.152 133.107 132.149 132.815C132.146 132.395 132.14 131.975 132.134 131.555C132.133 131.36 132.133 131.36 132.132 131.161C132.12 130.485 132.089 129.967 131.75 129.375C131.287 128.946 130.984 128.787 130.346 128.798C129.922 128.852 129.687 129.009 129.343 129.266C128.888 129.899 128.963 130.626 128.959 131.374C128.957 131.514 128.955 131.653 128.953 131.798C128.948 132.168 128.945 132.538 128.942 132.908C128.939 133.286 128.934 133.664 128.929 134.043C128.92 134.784 128.912 135.525 128.906 136.266C128.328 136.266 127.751 136.266 127.156 136.266C127.155 136.087 127.155 135.908 127.154 135.723C127.148 134.037 127.14 132.35 127.13 130.664C127.125 129.797 127.121 128.93 127.118 128.063C127.116 127.307 127.112 126.551 127.107 125.795C127.104 125.395 127.102 124.994 127.102 124.594C127.101 124.147 127.097 123.7 127.094 123.253C127.094 123.121 127.094 122.989 127.094 122.853C127.086 122.143 127.032 121.595 126.718 120.953C126.329 120.573 126.032 120.424 125.488 120.372C125.014 120.412 124.665 120.518 124.312 120.844C124.011 121.344 123.936 121.758 123.94 122.33C123.94 122.412 123.939 122.493 123.938 122.577C123.936 122.849 123.936 123.12 123.937 123.392C123.936 123.587 123.935 123.782 123.933 123.977C123.93 124.506 123.929 125.035 123.929 125.564C123.928 126.117 123.925 126.67 123.922 127.223C123.917 128.27 123.914 129.317 123.912 130.364C123.909 131.557 123.904 132.749 123.899 133.941C123.889 136.393 123.881 138.845 123.875 141.297C123.261 141.297 122.648 141.297 122.015 141.297C122.015 138.806 122.015 136.316 122.015 133.75C120.429 133.712 120.429 133.712 119.247 134.468C118.962 134.879 118.935 135.111 118.92 135.611C118.913 135.819 118.913 135.819 118.907 136.031C118.893 136.589 118.883 137.148 118.876 137.707C118.87 138.129 118.862 138.551 118.848 138.973C118.776 141.118 118.87 142.727 120.134 144.564C120.281 144.824 120.331 145.05 120.375 145.344C120.184 145.457 119.993 145.568 119.8 145.679C119.694 145.741 119.587 145.803 119.477 145.867C119.172 146 119.172 146 118.953 145.986C118.643 145.851 118.575 145.678 118.42 145.381C118.336 145.223 118.336 145.223 118.25 145.063C118.193 144.953 118.136 144.842 118.078 144.729C117.964 144.513 117.85 144.297 117.736 144.082C117.686 143.986 117.636 143.889 117.585 143.79C117.423 143.473 117.423 143.473 117.194 143.154C116.902 142.644 116.935 142.151 116.957 141.577C116.959 141.476 116.961 141.375 116.963 141.271C116.968 141.025 116.975 140.778 116.984 140.531C116.893 140.532 116.893 140.532 116.799 140.532C115.311 140.537 113.823 140.54 112.335 140.543C111.615 140.544 110.895 140.545 110.176 140.548C109.481 140.55 108.786 140.551 108.091 140.552C107.826 140.552 107.561 140.553 107.297 140.554C106.925 140.556 106.553 140.556 106.181 140.556C106.073 140.557 105.964 140.558 105.852 140.558C104.714 140.555 103.754 140.421 102.875 139.656C101.826 138.509 101.874 137.286 101.877 135.805C101.877 135.647 101.877 135.489 101.877 135.33C101.877 134.897 101.877 134.464 101.878 134.031C101.878 133.563 101.878 133.095 101.878 132.627C101.878 131.817 101.878 131.008 101.879 130.198C101.88 129.027 101.88 127.856 101.88 126.685C101.88 124.785 101.881 122.885 101.882 120.985C101.883 119.139 101.884 117.294 101.884 115.448C101.884 115.278 101.884 115.278 101.884 115.103C101.885 114.533 101.885 113.962 101.885 113.391C101.886 108.656 101.888 103.922 101.89 99.1875Z" fill="#F1874F"/>
<path d="M105.292 89.97C105.405 89.9694 105.517 89.9688 105.632 89.9682C106.009 89.9666 106.386 89.9665 106.762 89.9664C107.032 89.9656 107.302 89.9647 107.572 89.9637C108.305 89.9613 109.039 89.9603 109.773 89.9598C110.231 89.9594 110.689 89.9587 111.148 89.9579C112.417 89.9558 113.687 89.954 114.957 89.9537C115.038 89.9536 115.119 89.9536 115.203 89.9536C115.368 89.9536 115.532 89.9535 115.697 89.9535C115.779 89.9535 115.86 89.9534 115.945 89.9534C116.067 89.9534 116.067 89.9534 116.193 89.9534C117.518 89.953 118.843 89.95 120.169 89.9459C121.531 89.9418 122.892 89.9396 124.254 89.9396C125.018 89.9395 125.782 89.9386 126.547 89.9354C127.266 89.9325 127.985 89.9323 128.704 89.9341C128.967 89.9343 129.231 89.9336 129.494 89.9318C129.855 89.9296 130.215 89.9307 130.576 89.9327C130.679 89.9313 130.783 89.9298 130.89 89.9283C131.735 89.9389 132.449 90.1844 133.079 90.763C134.059 91.8045 134.063 92.9476 134.06 94.3074C134.06 94.5121 134.06 94.5121 134.06 94.7209C134.061 95.0983 134.06 95.4756 134.06 95.853C134.059 96.2604 134.059 96.6679 134.059 97.0753C134.059 97.7808 134.059 98.4863 134.058 99.1918C134.058 100.212 134.057 101.232 134.057 102.252C134.057 103.907 134.056 105.562 134.055 107.217C134.054 108.824 134.053 110.432 134.053 112.039C134.053 112.188 134.053 112.188 134.053 112.34C134.053 112.837 134.053 113.334 134.052 113.831C134.051 117.955 134.049 122.079 134.047 126.203C133.433 126.203 132.82 126.203 132.188 126.203C132.187 126.031 132.187 125.859 132.187 125.682C132.18 121.601 132.172 117.521 132.162 113.44C132.161 112.938 132.16 112.436 132.159 111.934C132.158 111.784 132.158 111.784 132.158 111.631C132.154 110.012 132.151 108.392 132.149 106.773C132.147 105.112 132.143 103.451 132.138 101.79C132.136 100.765 132.134 99.7394 132.133 98.7141C132.132 98.0115 132.131 97.3088 132.128 96.6062C132.126 96.2005 132.125 95.7948 132.126 95.3892C132.126 94.9497 132.124 94.5102 132.122 94.0707C132.122 93.9421 132.123 93.8134 132.123 93.6809C132.122 93.5632 132.121 93.4456 132.12 93.3243C132.12 93.2229 132.12 93.1214 132.12 93.0169C132.055 92.5788 131.86 92.2874 131.536 91.9927C131.011 91.7821 130.49 91.8066 129.93 91.8034C129.806 91.8014 129.683 91.7994 129.557 91.7974C129.164 91.7915 128.772 91.7878 128.38 91.7841C128.114 91.7805 127.847 91.7767 127.581 91.7728C126.929 91.7635 126.277 91.756 125.625 91.75C125.626 91.8928 125.628 92.0356 125.629 92.1827C125.63 92.3718 125.632 92.561 125.633 92.7501C125.634 92.891 125.634 92.891 125.636 93.0347C125.641 94.1288 125.43 94.9991 124.641 95.7968C123.827 96.4466 123.003 96.5953 121.988 96.5942C121.841 96.5953 121.841 96.5953 121.69 96.5965C121.366 96.5985 121.042 96.599 120.719 96.5992C120.492 96.5999 120.265 96.6006 120.039 96.6014C119.565 96.6027 119.09 96.6031 118.616 96.603C118.01 96.603 117.405 96.606 116.799 96.6097C116.332 96.6122 115.864 96.6126 115.396 96.6125C115.173 96.6127 114.95 96.6137 114.727 96.6154C113.439 96.6243 112.344 96.6218 111.208 95.9404C110.296 94.9762 110.054 94.0311 110.08 92.7343C110.081 92.6392 110.082 92.544 110.083 92.4459C110.086 92.2139 110.09 91.9819 110.094 91.75C109.34 91.7573 108.587 91.7671 107.834 91.7787C107.578 91.7823 107.322 91.7854 107.065 91.7878C106.697 91.7915 106.329 91.7972 105.96 91.8034C105.789 91.8044 105.789 91.8044 105.613 91.8055C104.84 91.8093 104.84 91.8093 104.188 92.1875C103.756 92.682 103.808 93.2413 103.803 93.8644C103.801 93.9729 103.799 94.0813 103.797 94.1931C103.792 94.5385 103.788 94.884 103.784 95.2294C103.781 95.4641 103.777 95.6987 103.773 95.9333C103.764 96.5076 103.756 97.0819 103.75 97.6562C103.461 97.6591 103.171 97.6613 102.882 97.663C102.799 97.664 102.717 97.6649 102.632 97.6658C102.421 97.6668 102.211 97.6619 102 97.6562C101.77 97.4258 101.873 96.916 101.872 96.5975C101.872 96.501 101.872 96.4044 101.871 96.305C101.871 96.0996 101.87 95.8942 101.87 95.6887C101.87 95.3781 101.868 95.0675 101.866 94.7569C101.857 91.9016 101.857 91.9016 102.766 90.875C103.566 90.1449 104.228 89.9673 105.292 89.97ZM111.953 91.75C111.761 93.6713 111.761 93.6713 112.391 94.4843C112.951 94.8581 113.512 94.8291 114.169 94.8301C114.259 94.8306 114.348 94.8312 114.44 94.8317C114.735 94.8333 115.031 94.8341 115.326 94.8347C115.532 94.8353 115.737 94.8359 115.943 94.8366C116.374 94.8377 116.806 94.8383 117.237 94.8387C117.788 94.8393 118.34 94.842 118.891 94.8451C119.317 94.8471 119.742 94.8477 120.167 94.8478C120.37 94.8482 120.573 94.8491 120.777 94.8505C121.061 94.8524 121.346 94.8521 121.631 94.8514C121.756 94.853 121.756 94.853 121.883 94.8545C122.431 94.8502 122.843 94.7637 123.328 94.4843C123.958 93.6713 123.958 93.6713 123.766 91.75C119.867 91.75 115.969 91.75 111.953 91.75Z" fill="#F1874F"/>
<path d="M117.094 101.266C117.671 101.266 118.249 101.266 118.844 101.266C118.844 101.59 118.844 101.915 118.844 102.25C119.067 102.264 119.067 102.264 119.295 102.277C121.733 102.531 123.953 103.883 125.489 105.767C126.598 107.259 127.356 109.028 127.484 110.891C127.845 110.891 128.206 110.891 128.578 110.891C128.578 111.468 128.578 112.046 128.578 112.641C121.54 112.641 114.502 112.641 107.25 112.641C107.25 112.063 107.25 111.486 107.25 110.891C107.647 110.891 108.044 110.891 108.453 110.891C108.45 110.78 108.446 110.669 108.443 110.555C108.495 108.379 109.897 106.135 111.406 104.656C112.98 103.277 114.99 102.334 117.094 102.25C117.094 101.925 117.094 101.6 117.094 101.266ZM111.862 106.863C110.931 108.077 110.393 109.371 110.203 110.891C115.292 110.891 120.382 110.891 125.625 110.891C125.413 108.983 124.682 107.546 123.328 106.188C123.254 106.111 123.18 106.035 123.104 105.956C121.621 104.523 119.667 103.924 117.642 103.948C115.356 104.036 113.345 105.152 111.862 106.863Z" fill="#F1874F"/>
<path d="M107.797 125.219C110.612 125.219 113.427 125.219 116.328 125.219C116.328 125.832 116.328 126.446 116.328 127.078C113.513 127.078 110.697 127.078 107.797 127.078C107.797 126.465 107.797 125.851 107.797 125.219Z" fill="#F1874F"/>
<path d="M108.454 121.815C108.572 121.815 108.572 121.815 108.692 121.816C108.774 121.816 108.856 121.816 108.941 121.816C109.214 121.816 109.486 121.817 109.759 121.818C109.948 121.818 110.137 121.818 110.325 121.818C110.823 121.818 111.32 121.819 111.818 121.821C112.325 121.822 112.832 121.822 113.34 121.823C114.336 121.824 115.332 121.826 116.328 121.828C116.328 122.442 116.328 123.055 116.328 123.688C113.513 123.688 110.697 123.688 107.797 123.688C107.797 121.816 107.797 121.816 108.454 121.815Z" fill="#F1874F"/>
<path d="M107.797 128.609C110.612 128.609 113.427 128.609 116.328 128.609C116.328 129.187 116.328 129.764 116.328 130.359C113.513 130.359 110.697 130.359 107.797 130.359C107.797 129.782 107.797 129.204 107.797 128.609Z" fill="#F1874F"/>
<path d="M120.594 116.141C121.171 116.141 121.749 116.141 122.344 116.141C122.344 116.718 122.344 117.296 122.344 117.891C121.766 117.891 121.189 117.891 120.594 117.891C120.594 117.313 120.594 116.736 120.594 116.141Z" fill="#F1874F"/>
<path d="M117.203 116.141C117.781 116.141 118.358 116.141 118.953 116.141C118.953 116.718 118.953 117.296 118.953 117.891C118.376 117.891 117.798 117.891 117.203 117.891C117.203 117.313 117.203 116.736 117.203 116.141Z" fill="#F1874F"/>
<path d="M113.812 116.141C114.39 116.141 114.967 116.141 115.562 116.141C115.562 116.718 115.562 117.296 115.562 117.891C114.985 117.891 114.408 117.891 113.812 117.891C113.812 117.313 113.812 116.736 113.812 116.141Z" fill="#F1874F"/>
</g>
<defs>
<filter id="filter0_d_1038_16177" x="41" y="37" width="163" height="163" filterUnits="userSpaceOnUse" color-interpolation-filters="sRGB">
<feFlood flood-opacity="0" result="BackgroundImageFix"/>
<feColorMatrix in="SourceAlpha" type="matrix" values="0 0 0 0 0 0 0 0 0 0 0 0 0 0 0 0 0 0 127 0" result="hardAlpha"/>
<feOffset/>
<feGaussianBlur stdDeviation="4.5"/>
<feComposite in2="hardAlpha" operator="out"/>
<feColorMatrix type="matrix" values="0 0 0 0 0 0 0 0 0 0 0 0 0 0 0 0 0 0 0.08 0"/>
<feBlend mode="normal" in2="BackgroundImageFix" result="effect1_dropShadow_1038_16177"/>
<feBlend mode="normal" in="SourceGraphic" in2="effect1_dropShadow_1038_16177" result="shape"/>
</filter>
<filter id="filter1_d_1038_16177" x="0" y="0" width="134" height="134" filterUnits="userSpaceOnUse" color-interpolation-filters="sRGB">
<feFlood flood-opacity="0" result="BackgroundImageFix"/>
<feColorMatrix in="SourceAlpha" type="matrix" values="0 0 0 0 0 0 0 0 0 0 0 0 0 0 0 0 0 0 127 0" result="hardAlpha"/>
<feOffset/>
<feGaussianBlur stdDeviation="25"/>
<feComposite in2="hardAlpha" operator="out"/>
<feColorMatrix type="matrix" values="0 0 0 0 0 0 0 0 0 0 0 0 0 0 0 0 0 0 0.08 0"/>
<feBlend mode="normal" in2="BackgroundImageFix" result="effect1_dropShadow_1038_16177"/>
<feBlend mode="normal" in="SourceGraphic" in2="effect1_dropShadow_1038_16177" result="shape"/>
</filter>
<clipPath id="clip0_1038_16177">
<rect width="56" height="56" fill="white" transform="translate(95 90)"/>
</clipPath>
</defs>
</svg>
