<svg width="153" height="150" viewBox="0 0 153 150" fill="none" xmlns="http://www.w3.org/2000/svg">
<g filter="url(#filter0_d_1048_10030)">
<circle cx="91.4037" cy="88.9515" r="54.0287" fill="white"/>
</g>
<g filter="url(#filter1_d_1048_10030)">
<circle cx="50.0438" cy="50.5721" r="12.6688" fill="#FDF0E9"/>
</g>
<path d="M43.1923 50.1705C43.1923 48.7953 43.4387 47.7182 43.9315 46.9392C44.4323 46.1602 45.259 45.7707 46.4116 45.7707C47.5642 45.7707 48.387 46.1602 48.8798 46.9392C49.3806 47.7182 49.631 48.7953 49.631 50.1705C49.631 51.5536 49.3806 52.6386 48.8798 53.4256C48.387 54.2126 47.5642 54.606 46.4116 54.606C45.259 54.606 44.4323 54.2126 43.9315 53.4256C43.4387 52.6386 43.1923 51.5536 43.1923 50.1705ZM47.9855 50.1705C47.9855 49.5822 47.9458 49.0894 47.8663 48.6919C47.7948 48.2865 47.6437 47.9567 47.4132 47.7023C47.1906 47.4479 46.8568 47.3207 46.4116 47.3207C45.9665 47.3207 45.6287 47.4479 45.3981 47.7023C45.1756 47.9567 45.0245 48.2865 44.945 48.6919C44.8735 49.0894 44.8377 49.5822 44.8377 50.1705C44.8377 50.7746 44.8735 51.2833 44.945 51.6967C45.0166 52.1021 45.1676 52.432 45.3981 52.6863C45.6287 52.9328 45.9665 53.056 46.4116 53.056C46.8568 53.056 47.1946 52.9328 47.4251 52.6863C47.6557 52.432 47.8067 52.1021 47.8782 51.6967C47.9498 51.2833 47.9855 50.7746 47.9855 50.1705ZM51.4253 52.746C52.1884 52.11 52.7965 51.5814 53.2496 51.1601C53.7027 50.7309 54.0803 50.2857 54.3824 49.8247C54.6844 49.3636 54.8354 48.9105 54.8354 48.4654C54.8354 48.06 54.7401 47.742 54.5493 47.5115C54.3585 47.281 54.0644 47.1657 53.6669 47.1657C53.2695 47.1657 52.9634 47.3009 52.7488 47.5711C52.5342 47.8334 52.4229 48.1951 52.415 48.6562H50.7934C50.8252 47.7023 51.1073 46.9789 51.6399 46.4861C52.1805 45.9932 52.8641 45.7468 53.6908 45.7468C54.597 45.7468 55.2925 45.9893 55.7774 46.4742C56.2623 46.9511 56.5047 47.5831 56.5047 48.37C56.5047 48.99 56.3378 49.5822 56.004 50.1466C55.6701 50.711 55.2885 51.2038 54.8593 51.6251C54.43 52.0385 53.8696 52.5393 53.1781 53.1275H56.6955V54.5106H50.8053V53.2706L51.4253 52.746Z" fill="#D86020"/>
<g clip-path="url(#clip0_1048_10030)">
<path d="M102.1 67.7754C102.261 67.8524 102.395 67.9308 102.537 68.0387C102.605 68.0876 102.672 68.1366 102.741 68.187C102.956 68.374 103.075 68.5381 103.22 68.7824C103.247 68.8268 103.273 68.8712 103.3 68.9169C103.4 69.0854 103.499 69.2548 103.597 69.4243C103.64 69.4978 103.682 69.5712 103.726 69.6469C104.011 70.1369 104.294 70.6277 104.576 71.119C104.86 71.6142 105.145 72.1087 105.431 72.6032C105.533 72.7798 105.635 72.9564 105.737 73.133C105.787 73.2204 105.837 73.3078 105.889 73.3979C107.265 75.782 108.64 78.1661 110.016 80.5503C110.066 80.6378 110.117 80.7253 110.169 80.8154C110.27 80.9911 110.371 81.1668 110.473 81.3425C110.708 81.7508 110.944 82.1589 111.181 82.5662C111.264 82.7088 111.347 82.8515 111.429 82.9943C111.533 83.1721 111.636 83.3497 111.74 83.5272C112.803 85.3601 112.803 85.3601 112.644 86.4597C112.351 87.465 111.481 87.9337 110.617 88.4159C110.477 88.4954 110.337 88.575 110.196 88.6546C110.051 88.7371 109.905 88.8192 109.76 88.9014C109.28 89.1727 108.802 89.4492 108.325 89.7251C108.239 89.7745 108.153 89.824 108.064 89.8749C107.902 89.9684 107.74 90.0625 107.578 90.1572C107.422 90.247 107.264 90.3337 107.104 90.4172C106.9 90.5281 106.711 90.6313 106.531 90.7796C106.463 91.0454 106.463 91.0454 106.531 91.2687C106.651 91.3163 106.651 91.3163 106.774 91.3648C108.037 91.8818 109.071 92.5889 110.036 93.5509C110.106 93.6184 110.175 93.6858 110.246 93.7553C112.099 95.6607 112.699 98.1577 112.667 100.738C112.653 101.473 112.546 102.145 112.318 102.843C112.292 102.926 112.292 102.926 112.266 103.011C111.525 105.31 109.903 107.264 107.773 108.405C106.369 109.124 104.956 109.478 103.378 109.471C103.324 109.47 103.27 109.47 103.214 109.47C100.589 109.455 98.308 108.434 96.4567 106.584C95.9673 106.071 95.5803 105.478 95.2016 104.881C95.1529 104.804 95.1043 104.727 95.0542 104.649C94.9571 104.473 94.9571 104.473 94.9571 104.31C94.9099 104.31 94.8628 104.31 94.8143 104.311C92.0202 104.32 89.2262 104.327 86.4321 104.331C86.0965 104.331 85.7608 104.332 85.4252 104.332C85.3249 104.333 85.3249 104.333 85.2227 104.333C84.1414 104.335 83.0601 104.338 81.9788 104.342C80.869 104.345 79.7591 104.348 78.6492 104.348C77.9646 104.349 77.28 104.351 76.5954 104.354C76.1257 104.356 75.6559 104.357 75.1862 104.356C74.9153 104.356 74.6445 104.357 74.3737 104.359C74.0795 104.361 73.7854 104.36 73.4911 104.359C73.4063 104.36 73.3215 104.361 73.234 104.363C72.5548 104.356 72.0313 104.16 71.5106 103.719C71.461 103.661 71.4114 103.602 71.3603 103.541C71.2834 103.453 71.2834 103.453 71.2049 103.363C70.8893 102.892 70.8883 102.426 70.8902 101.88C70.8896 101.759 70.8896 101.759 70.8891 101.637C70.888 101.368 70.8882 101.1 70.8883 100.831C70.8878 100.639 70.8873 100.446 70.8866 100.254C70.8852 99.731 70.8848 99.2081 70.8847 98.6852C70.8846 98.3585 70.8843 98.0318 70.8838 97.7051C70.8824 96.6243 70.8816 95.5434 70.8818 94.4626C70.8818 94.4044 70.8818 94.3462 70.8818 94.2862C70.8818 94.2279 70.8818 94.1696 70.8818 94.1095C70.8819 93.1646 70.8803 92.2198 70.878 91.275C70.8757 90.3042 70.8745 89.3333 70.8747 88.3625C70.8747 87.8177 70.8743 87.273 70.8725 86.7282C70.871 86.2159 70.8709 85.7035 70.8721 85.1912C70.8723 85.0033 70.8719 84.8153 70.8709 84.6274C70.8697 84.3706 70.8704 84.1139 70.8717 83.8572C70.8708 83.783 70.87 83.7088 70.8691 83.6323C70.876 82.9968 71.0905 82.4889 71.5137 82.0079C72.0025 81.59 72.6121 81.3858 73.2488 81.4075C73.3222 81.4095 73.3956 81.4115 73.4713 81.4136C73.5894 81.417 73.5894 81.417 73.71 81.4204C76.358 81.4868 76.358 81.4868 78.6809 80.3428C79.0584 80.0681 79.4669 79.8476 79.8729 79.618C80.0353 79.5232 80.1976 79.4281 80.3597 79.3327C80.8736 79.0316 81.3894 78.7336 81.9055 78.4361C82.0375 78.36 82.0375 78.36 82.1723 78.2824C82.3508 78.1795 82.5293 78.0767 82.7078 77.9739C83.1502 77.7189 83.5926 77.4636 84.0349 77.2084C84.2115 77.1065 84.3881 77.0046 84.5647 76.9027C84.6521 76.8523 84.7395 76.8019 84.8296 76.7499C87.7435 75.0688 87.7435 75.0688 88.0085 74.916C88.185 74.8141 88.3614 74.7123 88.5379 74.6105C88.9813 74.3546 89.4249 74.0989 89.8685 73.8433C90.7204 73.3524 91.5714 72.8602 92.4201 72.3637C93.1757 71.9218 93.9348 71.4863 94.6953 71.0529C95.3586 70.6748 96.0199 70.2937 96.6789 69.9083C97.378 69.4997 98.0773 69.0916 98.7778 68.6856C98.8645 68.6352 98.9512 68.5847 99.0405 68.5326C99.2814 68.3933 99.5232 68.256 99.7661 68.1202C99.8385 68.0792 99.9109 68.0383 99.9855 67.9961C100.658 67.6346 101.357 67.5578 102.1 67.7754ZM99.9342 69.6179C99.8435 69.6703 99.7527 69.7227 99.6592 69.7766C99.3952 69.9295 99.1322 70.0842 98.8695 70.2394C98.7473 70.3109 98.625 70.3823 98.5027 70.4537C98.2858 70.5806 98.0693 70.7084 97.8532 70.8367C97.3943 71.1083 96.9321 71.3741 96.4701 71.6403C96.3798 71.6923 96.2896 71.7443 96.1966 71.7979C96.0115 71.9045 95.8264 72.0111 95.6413 72.1177C95.1958 72.3744 94.7504 72.6314 94.305 72.8884C94.1284 72.9903 93.9518 73.0922 93.7752 73.1941C93.6878 73.2445 93.6004 73.295 93.5103 73.3469C90.5964 75.028 90.5964 75.028 90.3314 75.1809C90.1549 75.2827 89.9785 75.3845 89.802 75.4864C89.3585 75.7422 88.915 75.998 88.4714 76.2535C87.6195 76.7444 86.7685 77.2367 85.9198 77.7331C85.1646 78.1748 84.4059 78.6101 83.6457 79.0433C82.7337 79.5631 81.8256 80.0897 80.9204 80.6213C80.7539 80.7185 80.587 80.8148 80.4199 80.9106C80.3301 80.9622 80.2404 81.0139 80.1479 81.067C80.0653 81.1143 79.9826 81.1616 79.8974 81.2103C79.8071 81.2669 79.8071 81.2669 79.7149 81.3246C79.7149 81.3515 79.7149 81.3784 79.7149 81.4061C80.3371 81.4349 80.9592 81.4564 81.5818 81.4695C81.8713 81.4757 82.1603 81.4842 82.4495 81.4983C84.1442 81.5791 85.2358 81.3285 86.6465 80.3461C87.0656 80.0635 87.5073 79.8204 87.9473 79.5722C88.124 79.4704 88.3006 79.3686 88.4771 79.2665C98.0136 73.7647 98.0136 73.7647 98.2788 73.6117C98.4546 73.5103 98.6303 73.4089 98.806 73.3074C99.213 73.0725 99.6201 72.8378 100.028 72.6038C101.417 71.8083 101.417 71.8083 102.782 70.973C102.654 70.6279 102.488 70.3097 102.308 69.9898C102.281 69.9399 102.254 69.8901 102.226 69.8387C102.046 69.5179 101.881 69.2823 101.559 69.0983C100.915 68.9812 100.476 69.2965 99.9342 69.6179ZM103.352 72.1956C103.152 72.2969 102.967 72.403 102.777 72.5217C102.651 72.5979 102.525 72.674 102.399 72.7499C102.296 72.8128 102.296 72.8128 102.19 72.8769C101.781 73.1223 101.367 73.3589 100.953 73.5965C100.77 73.7021 100.586 73.8077 100.403 73.9134C100.311 73.9663 100.219 74.0193 100.124 74.0739C99.6787 74.3306 99.2334 74.5876 98.788 74.8447C98.6114 74.9465 98.4348 75.0484 98.2582 75.1503C98.1708 75.2007 98.0833 75.2512 97.9933 75.3031C95.0793 76.9843 95.0793 76.9843 94.8144 77.1371C94.6379 77.2389 94.4614 77.3407 94.285 77.4426C93.8415 77.6984 93.398 77.9542 92.9544 78.2098C92.0939 78.7056 91.2344 79.203 90.3773 79.7046C89.4371 80.2547 88.4897 80.7915 87.5398 81.3246C87.5398 81.3515 87.5398 81.3784 87.5398 81.4061C90.7556 81.6575 90.7556 81.6575 93.5832 80.3564C93.9928 80.0521 94.4407 79.8149 94.8857 79.5671C95.063 79.4653 95.24 79.3632 95.4168 79.2608C95.5032 79.2108 95.5897 79.1609 95.6787 79.1095C96.0875 78.8726 96.4953 78.6339 96.9031 78.3954C97.6587 77.9535 98.4178 77.518 99.1783 77.0846C99.9206 76.6614 100.66 76.2336 101.398 75.802C101.836 75.5457 102.274 75.2906 102.714 75.0373C102.763 75.0092 102.812 74.9811 102.862 74.9522C103.099 74.8156 103.336 74.6791 103.574 74.5428C103.658 74.494 103.743 74.4453 103.83 74.3951C103.905 74.352 103.98 74.3089 104.058 74.2645C104.206 74.1772 104.351 74.0842 104.494 73.9888C104.374 73.5729 104.191 73.2304 103.969 72.863C103.937 72.8075 103.904 72.7521 103.871 72.695C103.683 72.3638 103.683 72.3638 103.352 72.1956ZM104.693 75.4152C104.617 75.46 104.541 75.5047 104.463 75.5508C104.381 75.6002 104.298 75.6496 104.213 75.7005C104.035 75.8059 103.857 75.9112 103.679 76.0163C103.632 76.0438 103.586 76.0713 103.538 76.0996C103.065 76.379 102.588 76.6512 102.111 76.9228C101.27 77.401 100.432 77.8843 99.5976 78.3726C99.0063 78.7185 98.4136 79.0619 97.8201 79.404C97.6901 79.479 97.6901 79.479 97.5575 79.5555C97.1393 79.7967 96.7209 80.0374 96.302 80.2772C96.1049 80.3901 95.9078 80.5032 95.7108 80.6163C95.571 80.6965 95.4311 80.7764 95.2911 80.8562C95.2069 80.9046 95.1228 80.9529 95.036 81.0027C94.9244 81.0666 94.9244 81.0666 94.8104 81.1318C94.6233 81.2385 94.6233 81.2385 94.468 81.4061C94.544 81.4065 94.544 81.4065 94.6215 81.4069C95.8556 81.4136 97.0897 81.4211 98.3239 81.4295C98.9207 81.4336 99.5175 81.4374 100.114 81.4405C100.635 81.4432 101.155 81.4464 101.675 81.4503C101.951 81.4524 102.226 81.4542 102.502 81.4553C102.809 81.4567 103.117 81.459 103.425 81.4616C103.516 81.4618 103.607 81.462 103.7 81.4622C104.468 81.4704 105.182 81.5592 105.77 82.1018C106.44 82.8254 106.406 83.6367 106.41 84.5646C106.411 84.697 106.413 84.8295 106.414 84.962C106.418 85.3088 106.421 85.6555 106.423 86.0023C106.425 86.357 106.429 86.7116 106.433 87.0662C106.44 87.7606 106.445 88.455 106.45 89.1494C106.59 89.073 106.731 88.9965 106.871 88.9201C106.949 88.8775 107.027 88.8349 107.108 88.791C107.817 88.4027 108.519 88.002 109.221 87.6008C109.306 87.5523 109.391 87.5039 109.478 87.454C109.726 87.3119 109.973 87.1687 110.22 87.0251C110.296 86.9815 110.372 86.9378 110.45 86.8928C110.556 86.8308 110.556 86.8308 110.664 86.7675C110.726 86.7316 110.788 86.6957 110.852 86.6586C111.034 86.5272 111.142 86.4062 111.259 86.2151C111.332 85.6474 111.168 85.3116 110.882 84.8295C110.842 84.7594 110.802 84.6892 110.76 84.617C110.629 84.3881 110.496 84.1605 110.362 83.9329C110.272 83.7773 110.182 83.6217 110.092 83.4661C109.902 83.1394 109.711 82.8132 109.52 82.4874C109.216 81.9687 108.915 81.4482 108.615 80.9272C108.564 80.8392 108.513 80.7512 108.461 80.6605C108.358 80.482 108.255 80.3035 108.153 80.125C107.898 79.6825 107.642 79.2402 107.387 78.7978C107.099 78.2976 106.81 77.7974 106.522 77.297C106.409 77.1021 106.297 76.9072 106.185 76.7124C106.105 76.5751 106.026 76.4378 105.947 76.3005C105.875 76.1754 105.875 76.1754 105.802 76.0479C105.738 75.9381 105.738 75.9381 105.674 75.8262C105.634 75.7578 105.594 75.6894 105.553 75.619C105.493 75.5048 105.493 75.5048 105.431 75.3884C105.39 75.33 105.35 75.2716 105.309 75.2114C105.026 75.2114 104.933 75.2718 104.693 75.4152ZM72.3944 83.1942C72.2407 83.4612 72.206 83.7096 72.2054 84.0146C72.2051 84.079 72.2048 84.1435 72.2045 84.2099C72.2045 84.2802 72.2046 84.3506 72.2047 84.4231C72.2044 84.4982 72.2042 84.5733 72.2039 84.6506C72.2032 84.9029 72.2031 85.1551 72.203 85.4073C72.2026 85.5879 72.2022 85.7685 72.2018 85.9491C72.2007 86.4402 72.2002 86.9313 72.1998 87.4224C72.1996 87.7291 72.1992 88.0358 72.1989 88.3425C72.1979 89.192 72.197 90.0415 72.1968 90.891C72.1967 90.9453 72.1967 90.9997 72.1967 91.0557C72.1967 91.1101 72.1967 91.1646 72.1967 91.2207C72.1966 91.3311 72.1966 91.4415 72.1965 91.5519C72.1965 91.6067 72.1965 91.6614 72.1965 91.7178C72.1962 92.605 72.1947 93.4922 72.1928 94.3794C72.1909 95.2906 72.1899 96.2018 72.1898 97.1131C72.1897 97.6245 72.1892 98.136 72.1878 98.6475C72.1864 99.1286 72.1863 99.6096 72.187 100.091C72.187 100.267 72.1867 100.444 72.1859 100.62C72.1848 100.861 72.1853 101.102 72.1862 101.344C72.1855 101.413 72.1849 101.483 72.1842 101.555C72.1878 101.99 72.2473 102.297 72.4607 102.68C72.6954 102.896 72.8474 102.955 73.1641 102.955C73.24 102.955 73.3159 102.955 73.3941 102.956C73.4772 102.955 73.5603 102.955 73.6459 102.954C73.7344 102.954 73.8229 102.954 73.914 102.954C74.2115 102.955 74.509 102.954 74.8065 102.952C75.0193 102.952 75.2322 102.952 75.4451 102.952C75.9038 102.952 76.3626 102.952 76.8214 102.95C77.4847 102.948 78.148 102.948 78.8113 102.947C79.8874 102.947 80.9636 102.945 82.0397 102.943C83.0851 102.941 84.1306 102.939 85.176 102.938C85.2726 102.938 85.2726 102.938 85.3712 102.938C85.6945 102.937 86.0177 102.937 86.3409 102.937C89.0228 102.934 91.7047 102.93 94.3865 102.924C94.377 102.878 94.3674 102.831 94.3575 102.784C94.3139 102.57 94.2706 102.357 94.2273 102.144C94.2123 102.071 94.1972 101.997 94.1817 101.922C94.0793 101.415 94.0027 100.915 93.979 100.398C93.891 100.396 93.8031 100.394 93.7125 100.393C93.3837 100.387 93.055 100.379 92.7263 100.372C92.5845 100.369 92.4427 100.366 92.3008 100.363C92.096 100.36 91.8913 100.355 91.6865 100.35C91.6239 100.349 91.5613 100.348 91.4968 100.347C90.9671 100.333 90.4961 100.272 90.0411 99.9799C89.533 99.4364 89.5394 98.8783 89.553 98.1625C89.5835 97.7991 89.6648 97.5459 89.822 97.2188C89.8489 97.1381 89.8758 97.0574 89.9035 96.9743C90.448 96.6183 91.069 96.6258 91.6939 96.6323C91.7781 96.6326 91.8623 96.6328 91.9491 96.633C92.2165 96.6339 92.4838 96.636 92.7512 96.6381C92.9332 96.6389 93.1152 96.6396 93.2971 96.6403C93.7418 96.6421 94.1864 96.6448 94.631 96.6482C94.6962 96.5159 94.6962 96.5159 94.7627 96.3809C94.821 96.2632 94.8793 96.1456 94.9376 96.028C94.9661 95.9701 94.9946 95.9121 95.024 95.8525C95.4918 94.911 96.0972 94.1339 96.8318 93.3879C96.8934 93.3242 96.9551 93.2605 97.0187 93.1949C98.5159 91.7467 100.75 90.8389 102.827 90.8532C102.892 90.8533 102.956 90.8534 103.022 90.8535C103.226 90.854 103.429 90.855 103.633 90.856C103.771 90.8564 103.91 90.8568 104.049 90.8571C104.387 90.858 104.726 90.8594 105.064 90.8611C105.072 89.9025 105.078 88.9438 105.081 87.9852C105.083 87.54 105.085 87.0949 105.089 86.6497C105.092 86.2201 105.094 85.7904 105.095 85.3607C105.096 85.1969 105.097 85.033 105.099 84.8692C105.101 84.6395 105.101 84.4099 105.101 84.1802C105.103 84.0788 105.103 84.0788 105.105 83.9754C105.102 83.5457 105.035 83.2878 104.738 82.9548C104.418 82.7906 104.15 82.7713 103.793 82.771C103.74 82.7708 103.687 82.7705 103.632 82.7702C103.453 82.7695 103.275 82.77 103.097 82.7705C102.968 82.7703 102.838 82.7699 102.709 82.7696C102.354 82.7687 101.999 82.7689 101.644 82.7693C101.262 82.7695 100.879 82.7687 100.496 82.7681C99.746 82.7671 98.9961 82.7669 98.2461 82.7671C97.6367 82.7673 97.0273 82.7671 96.4178 82.7668C96.3311 82.7667 96.2445 82.7667 96.1552 82.7666C95.9791 82.7665 95.8031 82.7664 95.627 82.7663C93.9752 82.7654 92.3234 82.7656 90.6716 82.7661C89.1598 82.7665 87.6479 82.7656 86.1361 82.7641C84.5845 82.7625 83.0328 82.7618 81.4812 82.7621C80.6098 82.7623 79.7384 82.7621 78.867 82.7609C78.1252 82.7599 77.3834 82.7598 76.6416 82.7608C76.263 82.7613 75.8844 82.7614 75.5058 82.7604C75.1594 82.7595 74.8129 82.7598 74.4665 82.7609C74.341 82.7611 74.2156 82.7609 74.0901 82.7603C73.9198 82.7595 73.7494 82.7602 73.5791 82.7612C73.4844 82.7612 73.3897 82.7612 73.2922 82.7612C72.9256 82.8041 72.6478 82.9234 72.3944 83.1942ZM97.3428 94.7583C95.7879 96.5325 95.2511 98.6436 95.3477 100.965C95.4813 102.928 96.5673 104.745 97.9633 106.084C99.5435 107.458 101.616 108.245 103.72 108.123C105.961 107.953 107.96 106.992 109.44 105.283C110.936 103.378 111.492 101.199 111.236 98.7949C110.925 96.8105 109.73 94.9737 108.174 93.7365C104.731 91.2523 100.271 91.7417 97.3428 94.7583ZM90.8816 98.0339C90.8736 98.1831 90.8711 98.3327 90.8714 98.4822C90.8712 98.5637 90.871 98.6453 90.8708 98.7293C90.8589 98.9259 90.8589 98.9259 90.9631 99.012C91.1854 99.0202 91.4056 99.0234 91.6279 99.0228C91.7279 99.0229 91.7279 99.0229 91.8299 99.0231C91.971 99.0231 92.1122 99.023 92.2533 99.0226C92.4701 99.0222 92.6869 99.0226 92.9037 99.0231C93.0406 99.0231 93.1774 99.023 93.3142 99.0228C93.3794 99.023 93.4447 99.0232 93.512 99.0233C93.8107 99.0505 93.8107 99.0505 94.0605 98.9305C94.0796 98.7662 94.0942 98.6013 94.1063 98.4363C94.1132 98.3463 94.12 98.2563 94.127 98.1635C94.1344 98.059 94.1344 98.059 94.142 97.9524C93.6908 97.9504 93.2395 97.9489 92.7883 97.9479C92.6347 97.9475 92.4811 97.9469 92.3274 97.9462C92.1071 97.9453 91.8868 97.9448 91.6665 97.9444C91.5974 97.944 91.5282 97.9436 91.457 97.9431C91.1442 97.9121 91.1442 97.9121 90.8816 98.0339Z" fill="#F1874F"/>
<path d="M76.5066 86.4463C76.5975 86.4456 76.6884 86.4448 76.782 86.444C76.8795 86.4436 76.977 86.4433 77.0774 86.4429C77.1784 86.4425 77.2794 86.442 77.3835 86.4415C77.597 86.4407 77.8106 86.4402 78.0241 86.4399C78.2423 86.4395 78.4603 86.4384 78.6784 86.4366C78.9938 86.4341 79.3092 86.4332 79.6246 86.4327C79.7215 86.4317 79.8185 86.4307 79.9185 86.4297C80.4516 86.4311 80.8608 86.4679 81.3423 86.704C81.6563 87.026 81.7593 87.2855 81.763 87.729C81.7638 87.8044 81.7645 87.8798 81.7654 87.9574C81.7657 88.0387 81.766 88.1199 81.7664 88.2036C81.7669 88.2874 81.7673 88.3711 81.7678 88.4573C81.7686 88.6345 81.7691 88.8117 81.7694 88.9889C81.7702 89.2597 81.7727 89.5305 81.7753 89.8013C81.7758 89.9735 81.7763 90.1456 81.7766 90.3178C81.7776 90.3987 81.7786 90.4796 81.7796 90.563C81.7779 91.0959 81.7016 91.3738 81.3423 91.7779C81.0585 92.0263 80.7983 92.0133 80.4359 92.0165C80.2816 92.0181 80.2816 92.0181 80.1242 92.0197C80.0118 92.0203 79.8994 92.0209 79.7869 92.0215C79.7302 92.0218 79.6735 92.0222 79.6151 92.0225C79.3149 92.0242 79.0146 92.0254 78.7144 92.0261C78.405 92.027 78.0956 92.0298 77.7862 92.0331C77.5476 92.0352 77.3091 92.0359 77.0706 92.0362C76.9566 92.0366 76.8425 92.0375 76.7285 92.039C76.5686 92.041 76.4086 92.0408 76.2487 92.0404C76.1124 92.0411 76.1124 92.0411 75.9734 92.0418C75.6559 91.9924 75.4798 91.8733 75.2291 91.676C74.9217 91.2484 74.9478 90.8071 74.9493 90.3006C74.9488 90.2156 74.9484 90.1306 74.948 90.043C74.9475 89.8638 74.9476 89.6846 74.9483 89.5054C74.949 89.2317 74.9466 88.9581 74.944 88.6844C74.9439 88.5099 74.9439 88.3355 74.9442 88.161C74.9433 88.0795 74.9423 87.9979 74.9414 87.9139C74.9462 87.4294 74.9919 87.1566 75.3107 86.7855C75.6609 86.4578 76.0437 86.4496 76.5066 86.4463ZM76.3703 87.8451C76.3703 88.7597 76.3703 89.6742 76.3703 90.6164C77.6883 90.6164 79.0063 90.6164 80.3642 90.6164C80.3642 89.7019 80.3642 88.7874 80.3642 87.8451C79.0462 87.8451 77.7282 87.8451 76.3703 87.8451Z" fill="#F1874F"/>
<path d="M77.0185 96.5415C77.0959 96.5412 77.1733 96.5409 77.253 96.5405C77.4162 96.54 77.5793 96.54 77.7425 96.5403C77.9908 96.5406 78.239 96.5387 78.4873 96.5366C78.6464 96.5364 78.8055 96.5364 78.9646 96.5365C79.0381 96.5357 79.1117 96.535 79.1874 96.5342C79.7141 96.538 80.1962 96.6007 80.6154 96.9507C80.6525 96.9986 80.6896 97.0465 80.7278 97.0959C80.7664 97.1438 80.805 97.1917 80.8447 97.2411C81.088 97.6115 81.0393 98.0352 81.0437 98.4611C81.0472 98.5748 81.0472 98.5748 81.0508 98.6907C81.0564 99.2977 80.9409 99.6522 80.5088 100.096C80.0039 100.406 79.4544 100.422 78.8786 100.419C78.8087 100.419 78.7388 100.419 78.6668 100.419C78.5199 100.419 78.3731 100.419 78.2262 100.418C78.003 100.417 77.7798 100.418 77.5566 100.419C77.4131 100.419 77.2697 100.419 77.1262 100.419C77.0603 100.419 76.9944 100.419 76.9264 100.42C76.4043 100.415 75.8784 100.379 75.4501 100.051C75.0432 99.6342 74.9556 99.2756 74.9531 98.7098C74.9541 98.6345 74.955 98.5591 74.956 98.4815C74.955 98.4062 74.9541 98.3309 74.9531 98.2532C74.955 97.8202 74.9865 97.509 75.2311 97.1366C75.782 96.598 76.2836 96.5408 77.0185 96.5415ZM76.3722 97.9517C76.3722 98.2745 76.3722 98.5973 76.3722 98.9298C76.5224 99.08 76.7333 99.0218 76.9331 99.0227C77.0002 99.0225 77.0672 99.0223 77.1363 99.0222C77.2048 99.0222 77.2732 99.0223 77.3437 99.0224C77.4887 99.0224 77.6337 99.0223 77.7787 99.022C78.0014 99.0215 78.2241 99.0219 78.4469 99.0225C78.5874 99.0224 78.7279 99.0223 78.8684 99.0222C78.9355 99.0223 79.0026 99.0225 79.0717 99.0227C79.3769 99.0509 79.3769 99.0509 79.6326 98.9298C79.6326 98.607 79.6326 98.2843 79.6326 97.9517C78.5566 97.9517 77.4807 97.9517 76.3722 97.9517Z" fill="#F1874F"/>
<path d="M83.8183 96.5538C83.888 96.553 83.9577 96.5522 84.0295 96.5514C84.1415 96.5509 84.1415 96.5509 84.2559 96.5503C84.3335 96.5499 84.4111 96.5494 84.491 96.5489C84.6552 96.5482 84.8193 96.5476 84.9835 96.5473C85.2332 96.5465 85.4829 96.544 85.7326 96.5414C85.8924 96.5409 86.0523 96.5405 86.2121 96.5402C86.2862 96.5392 86.3602 96.5381 86.4365 96.5371C86.9649 96.5389 87.4354 96.6044 87.8658 96.9401C88.3781 97.5737 88.4127 98.217 88.353 99.0122C88.2723 99.5058 88.0971 99.8137 87.7178 100.138C87.2226 100.405 86.6841 100.423 86.1347 100.422C86.065 100.423 85.9953 100.423 85.9235 100.423C85.777 100.424 85.6305 100.424 85.4839 100.424C85.2616 100.423 85.0394 100.425 84.8171 100.427C84.6738 100.427 84.5306 100.428 84.3874 100.427C84.3219 100.428 84.2564 100.429 84.1889 100.43C83.6221 100.425 83.1062 100.326 82.6575 99.9648C82.2742 99.4799 82.199 99.0926 82.2042 98.4925C82.2025 98.4264 82.2009 98.3602 82.1992 98.292C82.1997 97.7488 82.3265 97.3032 82.711 96.906C82.7804 96.8617 82.7804 96.8617 82.8511 96.8165C82.8974 96.7855 82.9436 96.7545 82.9912 96.7226C83.2606 96.585 83.5188 96.5565 83.8183 96.5538ZM83.6255 98.0341C83.6174 98.1833 83.6149 98.3329 83.6153 98.4824C83.6151 98.5639 83.6149 98.6454 83.6146 98.7294C83.6027 98.9261 83.6027 98.9261 83.707 99.0122C83.9411 99.0204 84.1733 99.0236 84.4074 99.023C84.5128 99.0231 84.5128 99.0231 84.6203 99.0232C84.7691 99.0233 84.918 99.0231 85.0668 99.0228C85.2954 99.0224 85.524 99.0228 85.7527 99.0233C85.8969 99.0233 86.0411 99.0232 86.1853 99.023C86.2542 99.0232 86.3231 99.0233 86.394 99.0235C86.7058 99.0529 86.7058 99.0529 86.9673 98.9307C86.9754 98.7814 86.9779 98.6318 86.9775 98.4824C86.9777 98.4008 86.9779 98.3193 86.9781 98.2353C86.99 98.0386 86.99 98.0386 86.8858 97.9526C86.6517 97.9443 86.4195 97.9412 86.1853 97.9417C86.1151 97.9416 86.0448 97.9416 85.9725 97.9415C85.8236 97.9414 85.6748 97.9416 85.526 97.9419C85.2974 97.9424 85.0688 97.9419 84.8401 97.9414C84.6959 97.9415 84.5517 97.9416 84.4074 97.9417C84.3386 97.9416 84.2697 97.9414 84.1988 97.9412C83.887 97.9119 83.887 97.9119 83.6255 98.0341Z" fill="#F1874F"/>
<path d="M91.0424 85.1129C91.1424 85.1119 91.2424 85.1108 91.3454 85.1098C91.456 85.1103 91.5665 85.1108 91.6771 85.1114C91.7937 85.1108 91.9104 85.1101 92.027 85.1092C92.3436 85.1074 92.6602 85.1077 92.9768 85.1084C93.2411 85.1088 93.5055 85.1082 93.7698 85.1076C94.3935 85.1062 95.0171 85.1065 95.6407 85.1079C96.284 85.1092 96.9273 85.108 97.5706 85.1053C98.123 85.1031 98.6754 85.1026 99.2278 85.1032C99.5577 85.1037 99.8875 85.1035 100.217 85.1018C100.528 85.1003 100.838 85.1008 101.148 85.1028C101.262 85.1032 101.376 85.1029 101.489 85.1019C102.456 85.0938 102.456 85.0938 102.726 85.3437C102.905 85.6321 102.917 85.7995 102.862 86.133C102.71 86.3257 102.591 86.4313 102.373 86.5405C102.22 86.5487 102.067 86.5515 101.914 86.5519C101.816 86.5524 101.718 86.5529 101.617 86.5534C101.509 86.5535 101.4 86.5536 101.291 86.5536C101.177 86.554 101.063 86.5544 100.948 86.5549C100.638 86.5559 100.327 86.5565 100.016 86.5568C99.8221 86.5571 99.628 86.5574 99.434 86.5578C98.8269 86.5589 98.2198 86.5597 97.6128 86.56C96.9117 86.5603 96.2107 86.5618 95.5097 86.5641C94.968 86.5659 94.4263 86.5667 93.8847 86.5668C93.5611 86.5669 93.2375 86.5674 92.9139 86.5688C92.6094 86.5702 92.305 86.5704 92.0005 86.5697C91.8356 86.5696 91.6707 86.5707 91.5058 86.5718C91.3582 86.5712 91.3582 86.5712 91.2076 86.5705C91.0795 86.5706 91.0795 86.5706 90.9489 86.5708C90.6805 86.5357 90.5268 86.4551 90.3096 86.296C90.1821 86.0409 90.1713 85.7571 90.2281 85.4809C90.4785 85.163 90.6436 85.114 91.0424 85.1129Z" fill="#F1874F"/>
<path d="M106.693 95.0995C106.927 95.2625 106.927 95.2625 107.101 95.507C107.168 96.0117 107.08 96.2602 106.778 96.6634C106.708 96.7517 106.708 96.7517 106.637 96.8417C106.539 96.9714 106.441 97.1011 106.343 97.2308C106.293 97.2964 106.242 97.3621 106.191 97.4297C105.958 97.7354 105.735 98.0476 105.511 98.3598C105.423 98.4817 105.335 98.6035 105.247 98.7253C105.204 98.7858 105.16 98.8463 105.115 98.9086C104.979 99.0963 104.844 99.284 104.708 99.4717C104.276 100.069 103.845 100.667 103.417 101.268C103.098 101.715 102.775 102.16 102.453 102.606C102.095 103.101 101.742 103.6 101.392 104.101C100.811 104.928 100.811 104.928 100.58 105.044C100.227 105.084 100.065 105.082 99.7699 104.875C99.5534 104.567 99.5544 104.438 99.6018 104.065C99.7314 103.817 99.8983 103.603 100.07 103.383C100.169 103.252 100.267 103.122 100.365 102.991C100.439 102.893 100.439 102.893 100.516 102.792C100.734 102.501 100.942 102.204 101.15 101.905C101.616 101.243 102.09 100.586 102.565 99.9302C102.787 99.6243 103.008 99.3181 103.229 99.0119C103.495 98.644 103.76 98.2761 104.027 97.9087C104.116 97.7857 104.205 97.6627 104.294 97.5396C104.337 97.4797 104.381 97.4198 104.425 97.3581C104.649 97.0483 104.871 96.737 105.088 96.4224C105.132 96.3594 105.175 96.2964 105.22 96.2315C105.303 96.1121 105.385 95.9924 105.467 95.8722C106.082 94.9848 106.082 94.9848 106.693 95.0995Z" fill="#F1874F"/>
<path d="M107.622 101.573C108.14 102.085 108.402 102.678 108.43 103.403C108.407 104.165 108.157 104.645 107.625 105.192C107.054 105.702 106.511 105.745 105.758 105.722C105.125 105.665 104.685 105.419 104.248 104.962C103.736 104.298 103.702 103.657 103.759 102.843C103.855 102.265 104.231 101.842 104.655 101.457C105.555 100.855 106.765 100.9 107.622 101.573ZM105.389 102.68C105.152 102.956 105.097 103.212 105.109 103.577C105.172 103.871 105.339 104.021 105.552 104.229C105.834 104.37 106.14 104.349 106.448 104.31C106.703 104.164 106.819 104.046 106.968 103.796C107.059 103.406 107.005 103.115 106.795 102.777C106.349 102.343 105.905 102.361 105.389 102.68Z" fill="#F1874F"/>
<path d="M101.883 94.8552C102.383 95.2018 102.745 95.627 102.861 96.2408C102.923 96.9954 102.926 97.6518 102.453 98.2786C101.959 98.8473 101.461 99.0987 100.722 99.2003C100.118 99.2358 99.5571 99.0187 99.0453 98.7116C98.5031 98.1384 98.2518 97.6025 98.1895 96.8165C98.2082 96.1813 98.4688 95.585 98.9132 95.1328C99.7291 94.3881 100.93 94.2309 101.883 94.8552ZM99.8451 96.1593C99.654 96.4396 99.5997 96.5982 99.6057 96.9388C99.705 97.3031 99.8557 97.5067 100.151 97.7386C100.439 97.8187 100.704 97.7969 100.986 97.708C101.226 97.5161 101.226 97.5161 101.394 97.3004C101.421 97.2736 101.448 97.2467 101.475 97.2189C101.521 96.9108 101.544 96.6093 101.39 96.3309C101.245 96.156 101.109 96.0169 100.905 95.9148C100.477 95.8867 100.185 95.8677 99.8451 96.1593Z" fill="#F1874F"/>
<path d="M96.184 87.4123C96.2844 87.4113 96.2844 87.4113 96.3869 87.4103C96.6085 87.4083 96.8301 87.4076 97.0518 87.407C97.2058 87.4063 97.3598 87.4056 97.5138 87.4048C97.8368 87.4035 98.1598 87.4028 98.4828 87.4026C98.8966 87.4022 99.3103 87.3991 99.7241 87.3954C100.042 87.3929 100.36 87.3924 100.679 87.3923C100.831 87.3919 100.984 87.3909 101.136 87.3892C101.35 87.387 101.563 87.3874 101.777 87.3884C101.839 87.3872 101.902 87.386 101.967 87.3848C102.291 87.3892 102.44 87.4256 102.699 87.626C102.862 87.8448 102.862 87.8448 102.903 88.1352C102.861 88.4227 102.825 88.5422 102.618 88.7414C102.319 88.8411 102.042 88.8363 101.731 88.8374C101.666 88.8379 101.6 88.8384 101.533 88.839C101.317 88.8406 101.1 88.8415 100.884 88.8424C100.773 88.8429 100.773 88.8429 100.66 88.8434C100.269 88.8451 99.878 88.8462 99.4869 88.847C99.083 88.8479 98.6791 88.8507 98.2752 88.8539C97.9646 88.8561 97.654 88.8567 97.3434 88.857C97.1945 88.8574 97.0456 88.8584 96.8967 88.8599C96.6883 88.8619 96.48 88.8618 96.2716 88.8612C96.2102 88.8623 96.1488 88.8633 96.0855 88.8644C95.7915 88.8615 95.6204 88.8304 95.3677 88.6754C95.1394 88.4315 95.125 88.2559 95.1191 87.9263C95.2905 87.3981 95.7002 87.4127 96.184 87.4123Z" fill="#F1874F"/>
</g>
<defs>
<filter id="filter0_d_1048_10030" x="30.668" y="28.2158" width="121.471" height="121.472" filterUnits="userSpaceOnUse" color-interpolation-filters="sRGB">
<feFlood flood-opacity="0" result="BackgroundImageFix"/>
<feColorMatrix in="SourceAlpha" type="matrix" values="0 0 0 0 0 0 0 0 0 0 0 0 0 0 0 0 0 0 127 0" result="hardAlpha"/>
<feOffset/>
<feGaussianBlur stdDeviation="3.3535"/>
<feComposite in2="hardAlpha" operator="out"/>
<feColorMatrix type="matrix" values="0 0 0 0 0 0 0 0 0 0 0 0 0 0 0 0 0 0 0.08 0"/>
<feBlend mode="normal" in2="BackgroundImageFix" result="effect1_dropShadow_1048_10030"/>
<feBlend mode="normal" in="SourceGraphic" in2="effect1_dropShadow_1048_10030" result="shape"/>
</filter>
<filter id="filter1_d_1048_10030" x="0.113853" y="0.642174" width="99.8602" height="99.8602" filterUnits="userSpaceOnUse" color-interpolation-filters="sRGB">
<feFlood flood-opacity="0" result="BackgroundImageFix"/>
<feColorMatrix in="SourceAlpha" type="matrix" values="0 0 0 0 0 0 0 0 0 0 0 0 0 0 0 0 0 0 127 0" result="hardAlpha"/>
<feOffset/>
<feGaussianBlur stdDeviation="18.6306"/>
<feComposite in2="hardAlpha" operator="out"/>
<feColorMatrix type="matrix" values="0 0 0 0 0 0 0 0 0 0 0 0 0 0 0 0 0 0 0.08 0"/>
<feBlend mode="normal" in2="BackgroundImageFix" result="effect1_dropShadow_1048_10030"/>
<feBlend mode="normal" in="SourceGraphic" in2="effect1_dropShadow_1048_10030" result="shape"/>
</filter>
<clipPath id="clip0_1048_10030">
<rect width="41.7325" height="41.7325" fill="white" transform="translate(70.9102 67.7119)"/>
</clipPath>
</defs>
</svg>
