<svg width="153" height="150" viewBox="0 0 153 150" fill="none" xmlns="http://www.w3.org/2000/svg">
<g filter="url(#filter0_d_1048_11611)">
<circle cx="92.181" cy="88.9515" r="54.0287" fill="white"/>
</g>
<g filter="url(#filter1_d_1048_11611)">
<circle cx="50.8211" cy="50.5721" r="12.6688" fill="#FDF0E9"/>
</g>
<path d="M43.8241 50.1705C43.8241 48.7953 44.0705 47.7182 44.5633 46.9392C45.0641 46.1602 45.8908 45.7707 47.0434 45.7707C48.196 45.7707 49.0188 46.1602 49.5116 46.9392C50.0124 47.7182 50.2628 48.7953 50.2628 50.1705C50.2628 51.5536 50.0124 52.6386 49.5116 53.4256C49.0188 54.2126 48.196 54.606 47.0434 54.606C45.8908 54.606 45.0641 54.2126 44.5633 53.4256C44.0705 52.6386 43.8241 51.5536 43.8241 50.1705ZM48.6173 50.1705C48.6173 49.5822 48.5776 49.0894 48.4981 48.6919C48.4266 48.2865 48.2755 47.9567 48.045 47.7023C47.8224 47.4479 47.4886 47.3207 47.0434 47.3207C46.5983 47.3207 46.2604 47.4479 46.0299 47.7023C45.8074 47.9567 45.6563 48.2865 45.5768 48.6919C45.5053 49.0894 45.4695 49.5822 45.4695 50.1705C45.4695 50.7746 45.5053 51.2833 45.5768 51.6967C45.6484 52.1021 45.7994 52.432 46.0299 52.6863C46.2604 52.9328 46.5983 53.056 47.0434 53.056C47.4886 53.056 47.8264 52.9328 48.0569 52.6863C48.2875 52.432 48.4385 52.1021 48.51 51.6967C48.5816 51.2833 48.6173 50.7746 48.6173 50.1705ZM51.5563 48.2269C51.5961 47.432 51.8743 46.8199 52.391 46.3907C52.9156 45.9535 53.6032 45.7349 54.4537 45.7349C55.034 45.7349 55.5308 45.8382 55.9442 46.0449C56.3575 46.2436 56.6675 46.5179 56.8742 46.8676C57.0888 47.2094 57.1962 47.599 57.1962 48.0361C57.1962 48.5369 57.065 48.9622 56.8027 49.312C56.5483 49.6538 56.2423 49.8843 55.8846 50.0035V50.0512C56.3456 50.1943 56.7033 50.4487 56.9577 50.8143C57.22 51.18 57.3512 51.649 57.3512 52.2213C57.3512 52.6983 57.2399 53.1235 57.0173 53.4971C56.8027 53.8707 56.4807 54.1649 56.0515 54.3795C55.6302 54.5862 55.1215 54.6895 54.5253 54.6895C53.627 54.6895 52.8957 54.463 52.3313 54.0099C51.767 53.5568 51.4689 52.889 51.4371 52.0067H53.0587C53.0746 52.3962 53.2057 52.7102 53.4522 52.9487C53.7065 53.1792 54.0523 53.2944 54.4895 53.2944C54.8949 53.2944 55.2049 53.1832 55.4195 52.9606C55.6421 52.7301 55.7534 52.4359 55.7534 52.0782C55.7534 51.6013 55.6024 51.2595 55.3003 51.0528C54.9982 50.8461 54.5293 50.7428 53.8933 50.7428H53.5475V49.3716H53.8933C55.0221 49.3716 55.5865 48.994 55.5865 48.2389C55.5865 47.897 55.4831 47.6307 55.2765 47.44C55.0777 47.2492 54.7876 47.1538 54.406 47.1538C54.0324 47.1538 53.7423 47.2571 53.5356 47.4638C53.3369 47.6625 53.2216 47.9169 53.1898 48.2269H51.5563Z" fill="#D86020"/>
<g clip-path="url(#clip0_1048_11611)">
<path d="M85.463 69.1803C85.6056 69.3802 85.6923 69.5348 85.7861 69.7563C85.8266 69.8442 85.8266 69.8442 85.8678 69.9339C85.9241 70.0564 85.9795 70.1794 86.034 70.3027C86.1335 70.5259 86.239 70.7458 86.3452 70.9658C86.4758 71.2375 86.6034 71.5106 86.7314 71.7835C86.759 71.8422 86.7866 71.9009 86.8151 71.9615C87.2855 72.9626 87.7474 73.9674 88.2016 74.9759C88.442 75.5093 88.6855 76.0405 88.9385 76.568C88.9853 76.6662 89.032 76.7644 89.0787 76.8627C89.1653 77.044 89.2528 77.2249 89.3415 77.4052C89.3796 77.4853 89.4177 77.5654 89.4569 77.648C89.4905 77.7171 89.5241 77.7862 89.5588 77.8574C89.6357 78.1184 89.6076 78.2928 89.5384 78.5538C89.3538 78.7055 89.2461 78.7168 89.0086 78.7168C88.558 78.5366 88.3669 77.9313 88.1795 77.5101C88.1395 77.4216 88.1395 77.4216 88.0987 77.3313C88.0144 77.1447 87.9307 76.9577 87.8471 76.7708C87.7897 76.6434 87.7323 76.5161 87.6748 76.3887C87.5348 76.0782 87.3953 75.7674 87.2561 75.4565C87.1851 75.4695 87.114 75.4826 87.0407 75.496C85.0269 75.8049 83.1424 75.3758 81.4814 74.209C80.9425 73.7845 80.4063 73.3245 80.0019 72.7667C80.0019 72.7129 80.0019 72.6591 80.0019 72.6037C79.7335 72.7242 79.4653 72.8448 79.197 72.9654C79.1206 72.9997 79.0442 73.034 78.9655 73.0693C78.8925 73.1022 78.8195 73.135 78.7442 73.1688C78.6768 73.1991 78.6093 73.2294 78.5398 73.2607C78.4285 73.3114 78.3181 73.3641 78.2087 73.4188C78.2214 73.5077 78.2341 73.5965 78.2472 73.6881C78.5325 75.8294 78.2239 77.8368 76.9045 79.6134C76.5381 80.0557 76.156 80.5074 75.6819 80.8361C75.7346 81.2378 75.9036 81.5689 76.078 81.9294C76.1095 81.9955 76.141 82.0615 76.1734 82.1296C76.274 82.3405 76.3753 82.5511 76.4766 82.7617C76.6088 83.0378 76.7408 83.314 76.8727 83.5902C76.92 83.6892 76.92 83.6892 76.9683 83.7902C77.6381 85.1933 77.6381 85.1933 77.6381 85.4005C81.4845 85.3737 85.3309 85.3468 89.2939 85.319C89.2132 84.8752 89.2132 84.8752 89.1308 84.4224C89.0099 82.7296 89.3968 81.1863 90.52 79.872C90.5726 79.8135 90.6253 79.7551 90.6795 79.6949C90.7246 79.6432 90.7697 79.5915 90.8161 79.5383C91.7304 78.552 93.1209 77.9581 94.4506 77.8756C96.0333 77.8161 97.5724 78.2756 98.754 79.3587C99.1673 79.7564 99.5178 80.1766 99.8085 80.673C99.8518 80.7454 99.8951 80.8178 99.9397 80.8924C100.664 82.2096 100.842 83.7834 100.461 85.2375C100.434 85.2913 100.407 85.3451 100.379 85.4005C100.486 85.3996 100.592 85.3987 100.702 85.3978C101.704 85.3896 102.707 85.3834 103.71 85.3794C104.225 85.3773 104.741 85.3744 105.256 85.3698C105.754 85.3654 106.251 85.3629 106.748 85.3619C106.938 85.3611 107.128 85.3597 107.318 85.3575C107.584 85.3545 107.849 85.3541 108.115 85.3543C108.194 85.3528 108.273 85.3514 108.354 85.3498C108.888 85.354 108.888 85.354 109.143 85.5943C109.183 85.6648 109.223 85.7354 109.264 85.8081C109.308 85.8765 109.353 85.9448 109.4 86.0153C109.444 86.0884 109.489 86.1616 109.535 86.237C109.611 86.3622 109.611 86.3622 109.69 86.4899C109.744 86.5793 109.798 86.6686 109.854 86.7607C109.912 86.8547 109.969 86.9486 110.027 87.0426C110.147 87.2384 110.266 87.4342 110.386 87.6302C110.676 88.1053 110.968 88.5791 111.26 89.0532C111.413 89.3008 111.565 89.5483 111.717 89.7965C111.827 89.975 111.94 90.1513 112.055 90.3269C112.085 90.3738 112.115 90.4207 112.146 90.469C112.231 90.6003 112.317 90.731 112.403 90.8615C112.538 91.1357 112.568 91.2936 112.524 91.5952C112.419 91.73 112.419 91.73 112.279 91.8397C112.04 91.8611 111.817 91.8682 111.578 91.8636C111.475 91.8631 111.475 91.8631 111.371 91.8626C111.152 91.8612 110.934 91.8581 110.715 91.855C110.567 91.8538 110.419 91.8527 110.271 91.8517C109.908 91.849 109.545 91.8448 109.182 91.8397C109.183 91.8953 109.185 91.9508 109.186 92.008C109.191 92.2592 109.194 92.5105 109.197 92.7618C109.199 92.8492 109.201 92.9365 109.203 93.0266C109.204 93.1103 109.205 93.1941 109.206 93.2805C109.207 93.3577 109.208 93.435 109.21 93.5146C109.182 93.7144 109.182 93.7144 109.074 93.8619C108.862 94.0126 108.7 93.9904 108.448 93.959C108.312 93.8619 108.312 93.8619 108.204 93.7144C108.176 93.5146 108.176 93.5146 108.18 93.2805C108.181 93.1967 108.182 93.1129 108.182 93.0266C108.184 92.9392 108.187 92.8518 108.189 92.7618C108.19 92.6735 108.191 92.5852 108.192 92.4942C108.195 92.276 108.199 92.0579 108.204 91.8397C108.114 91.84 108.024 91.8403 107.931 91.8407C105.743 91.8479 103.554 91.8532 101.366 91.8566C100.308 91.8583 99.2496 91.8606 98.1913 91.8643C97.2692 91.8676 96.347 91.8697 95.4248 91.8704C94.9364 91.8708 94.4479 91.8718 93.9594 91.8742C93.5 91.8764 93.0405 91.8771 92.581 91.8766C92.4121 91.8767 92.2432 91.8774 92.0743 91.8786C91.8442 91.8802 91.6142 91.8798 91.384 91.8789C91.3168 91.8799 91.2495 91.8808 91.1803 91.8818C90.8858 91.8787 90.7166 91.8684 90.4799 91.6853C90.3501 91.5091 90.2332 91.334 90.1242 91.1441C90.0825 91.0721 90.0407 91.0001 89.9976 90.9259C89.9537 90.8492 89.9097 90.7725 89.8644 90.6935C89.3998 89.8942 88.9159 89.1098 88.4165 88.3318C88.2985 88.1444 88.1852 87.9542 88.0712 87.7643C88.0443 94.435 88.0174 101.106 87.9897 107.978C90.0878 107.952 92.1858 107.925 94.3474 107.897C94.0246 107.601 93.7019 107.305 93.3693 107C92.2699 105.757 91.831 104.249 91.891 102.606C91.9367 101.908 92.118 100.753 92.6357 100.235C93.1365 100.198 93.1365 100.198 93.3693 100.322C93.4998 100.575 93.439 100.787 93.3693 101.05C93.2901 101.297 93.207 101.542 93.1197 101.787C92.7618 102.919 92.9282 104.162 93.4253 105.222C94.0964 106.474 95.0682 107.248 96.403 107.716C97.7025 108.081 98.9678 107.839 100.13 107.193C101.288 106.491 102.004 105.468 102.335 104.148C102.584 102.894 102.398 101.63 101.745 100.525C100.928 99.3367 99.853 98.609 98.4426 98.3203C97.2266 98.1299 96.0247 98.4219 94.9995 99.094C94.9438 99.1395 94.8881 99.185 94.8307 99.2319C94.6734 99.3385 94.6734 99.3385 94.378 99.3284C94.1029 99.257 94.1029 99.257 93.9399 99.0125C93.9498 98.7225 93.9708 98.5752 94.1761 98.3652C95.4131 97.5555 96.6908 97.1426 98.1783 97.2193C98.2321 97.2462 98.2859 97.2731 98.3413 97.3008C98.343 97.2235 98.3447 97.1462 98.3464 97.0665C98.4244 96.5397 98.779 96.0961 99.1771 95.7601C99.6565 95.4284 100.103 95.2433 100.693 95.2413C100.833 95.2403 100.833 95.2403 100.976 95.2392C101.078 95.2393 101.179 95.2394 101.284 95.2394C101.392 95.2389 101.501 95.2384 101.61 95.2378C101.905 95.2363 102.199 95.2359 102.494 95.2358C102.678 95.2357 102.862 95.2354 103.047 95.2349C103.691 95.2334 104.335 95.2328 104.979 95.2329C105.578 95.233 106.177 95.2313 106.776 95.2287C107.291 95.2266 107.806 95.2257 108.322 95.2258C108.629 95.2258 108.936 95.2254 109.243 95.2237C109.533 95.2221 109.822 95.2221 110.111 95.2233C110.267 95.2235 110.423 95.2221 110.578 95.2207C111.404 95.2267 112.09 95.4026 112.701 95.9827C113.253 96.6397 113.474 97.3782 113.405 98.2248C113.304 98.8305 112.974 99.4112 112.524 99.8276C112.657 100.121 112.829 100.318 113.051 100.547C113.387 101.022 113.466 101.529 113.461 102.1C113.461 102.196 113.461 102.196 113.46 102.294C113.437 103.098 113.086 103.667 112.524 104.229C112.568 104.274 112.612 104.32 112.658 104.367C112.716 104.429 112.775 104.491 112.835 104.555C112.921 104.646 112.921 104.646 113.009 104.739C113.376 105.232 113.466 105.734 113.461 106.338C113.461 106.402 113.461 106.467 113.46 106.533C113.445 107.066 113.325 107.458 113.013 107.897C112.957 107.984 112.902 108.072 112.845 108.162C112.454 108.6 111.79 108.868 111.22 108.957C111.016 108.964 110.814 108.968 110.61 108.967C110.519 108.968 110.519 108.968 110.426 108.968C110.221 108.968 110.016 108.968 109.811 108.968C109.663 108.968 109.515 108.968 109.367 108.969C108.96 108.969 108.553 108.97 108.145 108.97C107.706 108.97 107.267 108.97 106.828 108.971C105.868 108.972 104.907 108.973 103.947 108.973C103.348 108.973 102.749 108.973 102.15 108.974C100.491 108.975 98.8331 108.976 97.1749 108.976C97.0158 108.976 97.0158 108.976 96.8533 108.976C96.747 108.976 96.6406 108.976 96.531 108.976C96.3154 108.976 96.0998 108.976 95.8842 108.976C95.7773 108.976 95.6703 108.976 95.5601 108.976C93.8258 108.977 92.0914 108.978 90.357 108.98C88.5775 108.982 86.798 108.983 85.0185 108.983C84.0189 108.983 83.0193 108.983 82.0197 108.985C81.1689 108.986 80.3181 108.987 79.4673 108.986C79.0329 108.986 78.5986 108.986 78.1642 108.987C77.767 108.988 77.3698 108.988 76.9726 108.987C76.8285 108.987 76.6844 108.987 76.5403 108.988C76.3452 108.988 76.1501 108.988 75.9549 108.987C75.8701 108.988 75.8701 108.988 75.7835 108.989C75.5395 108.986 75.3739 108.966 75.158 108.849C74.9564 108.634 74.9852 108.397 74.989 108.118C74.9883 108.027 74.9883 108.027 74.9876 107.933C74.9865 107.729 74.9877 107.524 74.9889 107.319C74.9886 107.172 74.9882 107.026 74.9876 106.879C74.9865 106.481 74.9874 106.082 74.9887 105.683C74.9899 105.267 74.9893 104.85 74.989 104.433C74.9888 103.734 74.9899 103.034 74.9918 102.334C74.994 101.525 74.9941 100.715 74.9932 99.9052C74.9923 99.1272 74.9928 98.3492 74.9939 97.5712C74.9944 97.2397 74.9944 96.9082 74.994 96.5767C74.9936 96.1866 74.9944 95.7964 74.9962 95.4062C74.9967 95.2628 74.9967 95.1194 74.9963 94.9759C74.9958 94.7806 74.9968 94.5853 74.9982 94.39C74.9977 94.3328 74.9973 94.2757 74.9967 94.2168C74.9998 93.9859 75.0052 93.8315 75.1388 93.6388C75.3546 93.4997 75.5142 93.5151 75.7634 93.5514C75.9648 93.7433 76.0059 93.8596 76.038 94.1378C76.0377 94.2933 76.0377 94.2933 76.0373 94.452C76.0376 94.5099 76.0378 94.5677 76.038 94.6273C76.0384 94.8212 76.037 95.015 76.0357 95.2089C76.0356 95.3479 76.0357 95.4868 76.0358 95.6258C76.0359 96.0032 76.0344 96.3806 76.0327 96.7579C76.0312 97.1523 76.0311 97.5466 76.0308 97.9409C76.03 98.6877 76.028 99.4345 76.0255 100.181C76.0223 101.19 76.021 102.199 76.0196 103.209C76.0173 104.799 76.0124 106.389 76.0079 107.978C79.6392 107.978 83.2704 107.978 87.0116 107.978C86.9847 101.362 86.9578 94.7447 86.9301 87.9273C86.3454 88.853 85.764 89.7765 85.2046 90.7169C85.1588 90.7929 85.1131 90.869 85.0659 90.9473C85.0265 91.0134 84.987 91.0795 84.9464 91.1477C84.9017 91.2147 84.857 91.2817 84.8109 91.3507C84.7653 91.4344 84.7198 91.5181 84.6728 91.6043C84.5096 91.7955 84.4182 91.8369 84.1677 91.8845C83.85 91.9014 83.5341 91.9021 83.2162 91.8978C83.0936 91.898 82.9711 91.8983 82.8486 91.8989C82.5163 91.8997 82.1841 91.8975 81.8518 91.8947C81.5042 91.8922 81.1565 91.8924 80.8088 91.8923C80.2252 91.8917 79.6416 91.8893 79.0579 91.8856C78.3084 91.8809 77.559 91.8792 76.8095 91.8785C76.1653 91.8778 75.5212 91.8758 74.8771 91.8735C74.6699 91.8729 74.4627 91.8724 74.2554 91.8719C73.9302 91.8711 73.6049 91.8695 73.2796 91.8671C73.1601 91.8664 73.0406 91.8659 72.9211 91.8658C72.7583 91.8655 72.5954 91.8641 72.4326 91.8626C72.2958 91.8619 72.2958 91.8619 72.1562 91.8612C71.9325 91.8397 71.9325 91.8397 71.688 91.6767C71.5844 91.1117 71.8648 90.7374 72.1567 90.2707C72.2047 90.1917 72.2528 90.1127 72.3023 90.0312C72.4492 89.7908 72.598 89.5517 72.7476 89.313C72.7898 89.2456 72.8319 89.1782 72.8754 89.1088C73.0328 88.858 73.1907 88.6076 73.3501 88.3581C73.5802 87.9975 73.8054 87.6345 74.0263 87.2682C74.1025 87.1418 74.1025 87.1418 74.1804 87.0127C74.2789 86.8488 74.3772 86.6847 74.475 86.5204C74.5639 86.3727 74.6544 86.2259 74.7467 86.0804C74.8658 85.8978 74.8658 85.8978 74.9477 85.7296C75.0276 85.5957 75.0276 85.5957 75.2744 85.4005C75.6833 85.3356 76.0835 85.3201 76.497 85.319C76.4614 85.2442 76.4258 85.1694 76.3892 85.0924C75.751 83.7495 75.1164 82.4054 74.5051 81.05C73.9609 79.8434 73.3964 78.6467 72.8267 77.4519C72.7419 77.2736 72.6576 77.095 72.5733 76.9164C72.4801 76.719 72.3843 76.524 72.2857 76.3291C72.2475 76.2519 72.2093 76.1747 72.17 76.0952C72.1374 76.0315 72.1048 75.9679 72.0712 75.9024C71.9875 75.6075 72.0053 75.4234 72.0955 75.1304C72.2951 74.9879 72.4494 74.9013 72.6705 74.8076C72.7291 74.7807 72.7876 74.7537 72.848 74.7259C72.9706 74.6696 73.0937 74.6142 73.2171 74.5596C73.4426 74.4593 73.6648 74.3529 73.8873 74.2461C74.162 74.1146 74.4381 73.986 74.714 73.8569C74.8352 73.8 74.9564 73.7431 75.0776 73.6862C75.9485 73.2776 76.8203 72.8708 77.6922 72.4645C78.4665 72.1037 79.2394 71.7401 80.0121 71.376C80.9764 70.9215 81.9413 70.4686 82.9095 70.0224C83.2963 69.8441 83.682 69.6652 84.0627 69.4742C84.1473 69.4324 84.1473 69.4324 84.2336 69.3897C84.3728 69.3204 84.5112 69.2495 84.6495 69.1784C84.966 69.0747 85.1421 69.09 85.463 69.1803ZM84.1983 70.5258C84.1358 70.5554 84.0733 70.585 84.0089 70.6155C83.8075 70.7109 83.6062 70.8065 83.4049 70.9022C83.143 71.0264 82.881 71.1506 82.6191 71.2747C82.5556 71.3048 82.4921 71.3349 82.4266 71.3659C81.8917 71.6191 81.355 71.8682 80.817 72.1146C80.9776 72.3074 81.14 72.4971 81.306 72.6852C81.3523 72.738 81.3987 72.7909 81.4464 72.8453C82.1671 73.618 83.085 74.0692 84.0773 74.3969C84.1329 74.416 84.1885 74.4351 84.2457 74.4548C85.0095 74.6825 85.9058 74.7053 86.6856 74.5599C86.7663 74.4792 86.7663 74.4792 86.8486 74.3969C86.8096 74.3144 86.7706 74.2319 86.7305 74.1469C86.5829 73.8347 86.4354 73.5226 86.2879 73.2104C86.2246 73.0764 86.1613 72.9424 86.098 72.8085C85.6938 71.9533 85.2914 71.0975 84.8924 70.2399C84.669 70.2399 84.4019 70.4289 84.1983 70.5258ZM76.4951 74.1329C76.4286 74.1645 76.3621 74.1961 76.2935 74.2287C76.0794 74.3304 75.8654 74.4324 75.6513 74.5344C75.3723 74.6673 75.0931 74.8001 74.814 74.9327C74.7471 74.9645 74.6801 74.9963 74.6112 75.0291C74.1281 75.2583 73.6434 75.483 73.1551 75.701C73.7676 77.0923 74.3996 78.4747 75.0298 79.858C75.3134 79.858 75.4091 79.7857 75.6166 79.6013C76.8263 78.3575 77.3737 76.7706 77.3972 75.0563C77.3883 74.64 77.3161 74.2328 77.2306 73.8263C76.9972 73.8263 76.7085 74.031 76.4951 74.1329ZM91.3316 80.4285C90.4393 81.5264 90.0116 82.7309 90.0848 84.1482C90.1165 84.4013 90.1745 84.6447 90.2332 84.8929C90.2556 84.988 90.2781 85.0832 90.3011 85.1812C90.3184 85.2536 90.3357 85.326 90.3535 85.4005C91.0082 85.4062 91.6628 85.4106 92.3175 85.4132C92.6215 85.4145 92.9255 85.4162 93.2295 85.419C93.5228 85.4217 93.8161 85.4231 94.1094 85.4238C94.2214 85.4242 94.3333 85.4251 94.4453 85.4264C94.602 85.4282 94.7587 85.4283 94.9154 85.4283C95.0492 85.4291 95.0492 85.4291 95.1858 85.43C95.4086 85.4191 95.4086 85.4191 95.5559 85.2861C95.6731 85.1267 95.7156 85.028 95.7331 84.83C95.6452 84.5024 95.5311 84.3537 95.244 84.1779C95.0367 84.1431 95.0367 84.1431 94.8161 84.1423C94.2651 84.1047 93.88 83.9645 93.4967 83.5615C93.2148 83.1218 93.2413 82.6461 93.2878 82.1402C93.4243 81.7001 93.7084 81.4655 94.1029 81.2436C94.1608 81.2214 94.2187 81.1993 94.2783 81.1764C94.4466 81.0938 94.4466 81.0938 94.47 80.9099C94.4716 80.8452 94.4731 80.7805 94.4748 80.7138C94.4802 80.5177 94.4802 80.5177 94.5104 80.347C94.755 80.184 94.755 80.184 95.1625 80.2655C95.2163 80.5345 95.2701 80.8035 95.3255 81.0806C95.5112 81.0992 95.697 81.1177 95.8827 81.1363C96.0591 81.1621 96.0591 81.1621 96.2221 81.2436C96.2221 81.4588 96.2221 81.674 96.2221 81.8957C96.1724 81.8964 96.1227 81.8972 96.0715 81.898C95.8448 81.9024 95.6183 81.9092 95.3917 81.9161C95.3135 81.9172 95.2353 81.9184 95.1547 81.9196C94.7947 81.932 94.5691 81.9415 94.2567 82.1316C94.0743 82.3351 94.0214 82.4373 94.0214 82.7108C94.1535 82.9949 94.2467 83.1055 94.5104 83.2813C94.7119 83.3066 94.7119 83.3066 94.9333 83.3119C95.4849 83.3542 95.8736 83.4939 96.2578 83.8977C96.5903 84.4165 96.4666 84.6649 96.4666 85.4005C97.4081 85.4005 98.3495 85.4005 99.3194 85.4005C99.8095 84.0938 99.7578 82.8946 99.1937 81.6091C98.5961 80.4332 97.6705 79.5665 96.4268 79.1043C94.5558 78.5427 92.6954 78.9753 91.3316 80.4285ZM75.0413 87.3284C74.9814 87.4625 74.9238 87.5975 74.8685 87.7334C74.7419 88.0285 74.5715 88.2913 74.3981 88.5606C74.3394 88.6572 74.2808 88.7539 74.2227 88.8508C74.1805 88.9209 74.1805 88.9209 74.1374 88.9924C74.1091 89.0393 74.0809 89.0863 74.0517 89.1347C73.9629 89.2821 73.874 89.4294 73.785 89.5767C73.706 89.7075 73.6272 89.8383 73.5483 89.9691C73.4425 90.1404 73.3317 90.3086 73.2179 90.4747C73.0589 90.6771 73.0589 90.6771 73.0736 90.8616C74.4658 90.9075 75.8578 90.9419 77.2506 90.963C77.8975 90.973 78.5439 90.9867 79.1904 91.0092C79.7545 91.0288 80.3183 91.0414 80.8828 91.0457C81.1814 91.0482 81.4791 91.0541 81.7774 91.0685C83.0348 91.1625 83.0348 91.1625 84.1333 90.6697C84.5191 90.201 84.7879 89.6858 85.0335 89.133C85.1647 88.8443 85.3224 88.5875 85.4945 88.3215C85.5843 88.1732 85.674 88.0248 85.7635 87.8764C86.2646 87.0463 86.2646 87.0463 86.4732 86.7435C86.6189 86.559 86.6189 86.559 86.6041 86.3787C85.2076 86.3424 83.8113 86.3151 82.4144 86.2984C81.7657 86.2904 81.1173 86.2796 80.4688 86.2618C79.9032 86.2463 79.3378 86.2364 78.7719 86.2329C78.4725 86.2309 78.1737 86.2263 77.8745 86.2149C76.1445 86.1357 76.1445 86.1357 75.0413 87.3284ZM88.4788 86.3787C88.5895 86.6624 88.7106 86.9161 88.8701 87.1759C88.9156 87.2505 88.9612 87.325 89.0081 87.4018C89.057 87.4811 89.1059 87.5604 89.1563 87.642C89.2067 87.7242 89.2571 87.8064 89.3089 87.891C89.4666 88.1479 89.6247 88.4044 89.7829 88.6609C89.8582 88.7832 89.8582 88.7832 89.935 88.908C90.0777 89.1399 90.2206 89.3717 90.3637 89.6033C90.407 89.6735 90.4503 89.7437 90.4949 89.816C90.5359 89.8821 90.5768 89.9482 90.619 90.0163C90.6544 90.0735 90.6899 90.1307 90.7264 90.1897C90.7647 90.25 90.803 90.3104 90.8425 90.3726C90.8823 90.4558 90.922 90.5391 90.963 90.6249C91.1853 90.8809 91.2059 90.8968 91.5206 90.9218C91.669 90.9239 91.8175 90.9232 91.9659 90.9204C92.0477 90.9209 92.1296 90.9213 92.2139 90.9217C92.4889 90.9225 92.7637 90.9198 93.0387 90.9172C93.2355 90.917 93.4323 90.9171 93.6291 90.9174C94.0532 90.9175 94.4773 90.9161 94.9013 90.9133C95.5145 90.9094 96.1276 90.9081 96.7408 90.9075C97.7356 90.9064 98.7303 90.9032 99.7251 90.8985C100.691 90.894 101.658 90.8906 102.624 90.8885C102.684 90.8884 102.743 90.8882 102.805 90.8881C103.103 90.8875 103.402 90.8869 103.701 90.8862C106.18 90.8812 108.659 90.8725 111.138 90.8616C111.075 90.733 111.011 90.6046 110.948 90.4761C110.895 90.3688 110.895 90.3688 110.841 90.2593C110.675 89.9396 110.483 89.64 110.287 89.3384C109.842 88.6428 109.41 87.9394 108.982 87.2327C108.936 87.1568 108.89 87.0809 108.843 87.0027C108.802 86.9353 108.761 86.8679 108.719 86.7985C108.632 86.6566 108.541 86.5172 108.448 86.3787C108.295 86.3421 108.295 86.3421 108.116 86.3486C108.047 86.3481 107.977 86.3476 107.905 86.3471C107.789 86.3482 107.789 86.3482 107.671 86.3492C107.589 86.349 107.507 86.3488 107.423 86.3486C107.148 86.3482 106.872 86.3496 106.597 86.3509C106.4 86.351 106.203 86.3509 106.006 86.3508C105.582 86.3507 105.157 86.3514 104.733 86.3528C104.119 86.3548 103.505 86.3554 102.892 86.3557C101.896 86.3563 100.9 86.3579 99.9042 86.3602C98.9367 86.3625 97.9692 86.3642 97.0018 86.3652C96.9422 86.3653 96.8826 86.3654 96.8212 86.3654C96.5221 86.3657 96.2231 86.366 95.9241 86.3663C93.4423 86.3689 90.9605 86.3732 88.4788 86.3787ZM99.7423 96.6284C99.698 96.6649 99.6538 96.7015 99.6082 96.7392C99.4271 96.9611 99.343 97.1977 99.2379 97.4638C99.3226 97.4984 99.4073 97.533 99.4946 97.5686C100.171 97.8506 100.781 98.1438 101.357 98.605C101.411 98.6479 101.466 98.6909 101.522 98.7352C101.74 98.9146 101.905 99.055 102.048 99.3026C102.361 99.6049 102.652 99.5575 103.072 99.5517C103.197 99.5524 103.197 99.5524 103.324 99.5531C103.599 99.554 103.875 99.5521 104.15 99.55C104.341 99.5498 104.533 99.5498 104.724 99.55C105.126 99.5498 105.528 99.5483 105.929 99.5457C106.443 99.5425 106.957 99.5422 107.471 99.5428C107.867 99.543 108.262 99.542 108.658 99.5406C108.847 99.5401 109.037 99.5398 109.226 99.5399C109.492 99.5397 109.757 99.538 110.022 99.5358C110.139 99.5362 110.139 99.5362 110.258 99.5365C110.845 99.5291 111.353 99.4274 111.857 99.1144C112.234 98.7259 112.412 98.3477 112.451 97.8118C112.429 97.3267 112.212 96.9078 111.872 96.5672C111.42 96.248 111.008 96.15 110.462 96.1483C110.377 96.1478 110.292 96.1473 110.204 96.1468C110.064 96.1467 110.064 96.1467 109.922 96.1466C109.775 96.146 109.775 96.146 109.624 96.1453C109.355 96.1444 109.086 96.1438 108.816 96.1434C108.648 96.1431 108.48 96.1428 108.311 96.1425C107.783 96.1413 107.255 96.1405 106.728 96.1402C106.12 96.1399 105.512 96.1384 104.904 96.1361C104.433 96.1343 103.962 96.1335 103.491 96.1334C103.21 96.1333 102.929 96.1328 102.648 96.1314C102.335 96.1298 102.021 96.1301 101.708 96.1307C101.616 96.1299 101.523 96.1292 101.428 96.1284C100.799 96.1317 100.237 96.1995 99.7423 96.6284ZM102.824 100.398C102.867 100.515 102.867 100.515 102.91 100.634C102.947 100.737 102.984 100.841 103.021 100.944C103.04 100.995 103.058 101.046 103.078 101.099C103.613 102.591 103.507 104.181 102.859 105.626C102.374 106.599 101.717 107.306 100.868 107.978C102.196 107.984 103.524 107.989 104.851 107.991C105.468 107.992 106.085 107.994 106.701 107.997C107.239 107.999 107.776 108.001 108.314 108.001C108.598 108.002 108.883 108.003 109.167 108.004C109.485 108.006 109.803 108.006 110.121 108.006C110.215 108.007 110.309 108.008 110.405 108.009C110.995 108.007 111.487 107.963 111.973 107.596C112.382 107.127 112.547 106.698 112.513 106.072C112.438 105.607 112.235 105.263 111.872 104.963C111.409 104.658 110.972 104.685 110.437 104.688C110.251 104.686 110.064 104.685 109.878 104.684C109.585 104.683 109.292 104.682 109 104.683C108.716 104.682 108.433 104.68 108.15 104.678C108.062 104.678 107.974 104.679 107.884 104.68C107.802 104.679 107.721 104.678 107.637 104.677C107.565 104.677 107.493 104.677 107.42 104.677C107.161 104.623 107.061 104.516 106.9 104.311C106.924 103.96 106.924 103.96 107.063 103.822C107.184 103.813 107.306 103.81 107.428 103.809C107.506 103.808 107.584 103.807 107.664 103.806C107.749 103.806 107.834 103.805 107.921 103.804C108.1 103.802 108.279 103.8 108.458 103.797C108.74 103.794 109.023 103.791 109.306 103.789C109.578 103.787 109.85 103.783 110.122 103.779C110.206 103.779 110.29 103.778 110.376 103.778C111.045 103.767 111.624 103.662 112.116 103.169C112.494 102.679 112.509 102.228 112.442 101.621C112.303 101.16 111.955 100.807 111.546 100.561C111.032 100.402 110.53 100.375 109.996 100.38C109.918 100.38 109.84 100.38 109.759 100.38C109.504 100.38 109.249 100.381 108.993 100.382C108.815 100.383 108.637 100.383 108.459 100.383C107.992 100.384 107.526 100.385 107.059 100.387C106.582 100.389 106.105 100.389 105.628 100.39C104.693 100.392 103.759 100.395 102.824 100.398Z" fill="#F1874F"/>
<path d="M100.311 69.6171C100.443 69.7416 100.574 69.8672 100.703 69.9941C100.755 70.0423 100.806 70.0905 100.858 70.1402C101.878 71.1878 102.282 72.7471 102.295 74.1679C102.252 74.3955 102.252 74.3955 102.102 74.55C101.852 74.6781 101.702 74.6392 101.437 74.5586C101.24 74.2624 101.232 74.011 101.203 73.6671C101.098 72.6631 100.81 71.8763 100.214 71.0537C100.174 70.9959 100.133 70.9381 100.091 70.8786C99.3944 69.9887 98.3089 69.5043 97.2291 69.2809C95.7594 69.172 94.3771 69.5477 93.2402 70.5086C92.2596 71.4695 91.7636 72.7697 91.7069 74.1255C91.7205 74.9303 91.9448 75.7202 92.308 76.4333C92.3388 76.6951 92.3529 76.8475 92.2163 77.0751C91.9752 77.2198 91.8499 77.2275 91.5744 77.1668C90.8502 76.4177 90.6802 75.1155 90.6523 74.1255C90.6818 72.5854 91.257 71.045 92.3284 69.9278C94.5407 67.8274 97.9731 67.5678 100.311 69.6171Z" fill="#F1874F"/>
<path d="M106.789 77.1607C108.018 78.2557 108.561 79.7146 108.715 81.315C108.732 81.7698 108.664 82.2075 108.585 82.6539C108.576 82.7085 108.566 82.7632 108.556 82.8194C108.486 83.1818 108.392 83.5814 108.122 83.851C107.842 83.8714 107.842 83.8714 107.551 83.851C107.266 83.4226 107.47 82.8706 107.556 82.3839C107.768 81.1073 107.516 79.893 106.818 78.7975C106.009 77.6965 104.88 76.9951 103.528 76.7856C102.144 76.6197 100.922 77.1139 99.808 77.9009C99.7641 77.9464 99.7202 77.9919 99.6749 78.0388C99.5635 78.1454 99.5635 78.1454 99.319 78.176C99.0744 78.1454 99.0744 78.1454 98.9216 78.0537C98.7873 77.8299 98.8049 77.669 98.8299 77.4118C99.5404 76.452 100.898 75.9692 102.024 75.7562C103.771 75.5269 105.442 76.0181 106.789 77.1607Z" fill="#F1874F"/>
<path d="M86.4568 80.5031C87.1864 81.2589 87.514 82.1697 87.5263 83.1986C87.5299 83.2972 87.5299 83.2972 87.5335 83.3979C87.5387 83.8806 87.5387 83.8806 87.3493 84.1388C87.1327 84.287 87.0246 84.3044 86.7673 84.2582C86.6345 84.1741 86.6345 84.1741 86.5228 84.0137C86.5022 83.794 86.4933 83.5864 86.4922 83.3667C86.4643 82.5638 86.2907 81.8986 85.7382 81.2882C85.175 80.7819 84.5155 80.5262 83.761 80.4929C83.0369 80.5382 82.2982 80.7843 81.7952 81.3239C81.4276 81.8362 81.1409 82.3541 81.0922 82.9897C81.0826 83.107 81.0826 83.107 81.0728 83.2266C81.0573 83.4537 81.0573 83.4537 81.0769 83.7233C81.0617 83.9322 81.0617 83.9322 80.9241 84.1257C80.7356 84.2582 80.7356 84.2582 80.5268 84.2939C80.2873 84.2509 80.2305 84.2045 80.0836 84.0137C79.8758 83.1103 80.0599 82.1351 80.4911 81.3239C81.1735 80.2933 82.0297 79.7573 83.2216 79.4594C84.4259 79.4164 85.536 79.6922 86.4568 80.5031Z" fill="#F1874F"/>
<path d="M98.4234 70.9728C98.5337 71.4844 98.5337 71.4844 98.3877 71.7828C98.3247 71.866 98.3247 71.866 98.2604 71.9509C98.3006 71.9746 98.3408 71.9984 98.3823 72.0229C98.8082 72.2954 98.8082 72.2954 98.9226 72.6132C98.9124 72.8475 98.9124 72.8475 98.8309 73.0054C98.6349 73.1095 98.4958 73.1142 98.2785 73.0755C98.033 72.9874 97.8292 72.8533 97.6083 72.715C97.2256 72.4683 97.2256 72.4683 96.7881 72.4247C96.5496 72.5074 96.5496 72.5074 96.3857 72.6539C96.2561 72.9616 96.2729 73.1013 96.3857 73.4181C96.5813 73.5805 96.7863 73.7137 97.0008 73.8501C97.3348 74.0815 97.4799 74.337 97.6083 74.7222C97.6518 75.2084 97.6533 75.6153 97.3638 76.0263C97.0556 76.3501 96.7533 76.5991 96.3042 76.6784C96.0299 76.6664 95.7606 76.6366 95.4891 76.5969C95.4672 76.6742 95.4454 76.7516 95.4228 76.8312C95.326 77.0859 95.326 77.0859 95.0815 77.249C94.8777 77.2795 94.8777 77.2795 94.674 77.249C94.5211 77.1114 94.5211 77.1114 94.4295 76.9229C94.4503 76.6453 94.5396 76.4312 94.674 76.1894C94.6337 76.1647 94.5935 76.14 94.552 76.1145C94.1277 75.837 94.1277 75.837 94.0117 75.5729C94.0219 75.3743 94.0219 75.3743 94.1085 75.1858C94.2664 75.0482 94.2664 75.0482 94.4852 75.0189C94.8774 75.0614 95.1509 75.2637 95.4719 75.4757C95.7236 75.6323 95.8674 75.7019 96.1672 75.6857C96.4011 75.6141 96.5013 75.5819 96.6302 75.3743C96.6846 75.1367 96.6846 75.1367 96.6302 74.8852C96.4325 74.641 96.2408 74.4888 95.973 74.3248C95.6145 74.0655 95.4662 73.7569 95.326 73.3365C95.2822 72.8188 95.3526 72.4627 95.6521 72.0324C95.9427 71.7179 96.2753 71.4823 96.7104 71.4497C96.9762 71.4449 97.1921 71.459 97.4453 71.5434C97.4671 71.4811 97.489 71.4189 97.5115 71.3549C97.7306 70.859 97.8975 70.8636 98.4234 70.9728Z" fill="#F1874F"/>
<path d="M104.292 78.2271C104.445 78.3804 104.383 78.5938 104.384 78.7971C104.373 78.9607 104.373 78.9607 104.292 79.2052C104.338 79.2278 104.384 79.2504 104.432 79.2737C104.491 79.3032 104.551 79.3328 104.613 79.3632C104.672 79.3925 104.732 79.4218 104.793 79.452C104.944 79.5313 104.944 79.5313 105.025 79.6128C105.041 79.8522 105.041 79.8522 105.025 80.1018C104.862 80.2649 104.862 80.2649 104.623 80.2954C104.258 80.2878 103.948 80.1423 103.612 80.0117C103.241 79.8871 102.953 79.896 102.58 80.0203C102.506 80.3035 102.49 80.4801 102.57 80.7641C102.782 81.0512 102.966 81.1155 103.29 81.2442C103.673 81.409 103.905 81.629 104.119 81.9918C104.261 82.4736 104.281 82.9026 104.124 83.3826C103.811 83.8259 103.446 84.1415 102.906 84.2588C102.672 84.269 102.672 84.269 102.499 84.2588C102.482 84.3049 102.465 84.351 102.447 84.3986C102.369 84.5856 102.292 84.7463 102.173 84.9109C101.882 85.0077 101.882 85.0077 101.602 84.9924C101.461 84.8956 101.461 84.8956 101.357 84.7478C101.351 84.5457 101.351 84.5457 101.383 84.325C101.393 84.2516 101.403 84.1781 101.413 84.1025C101.421 84.0465 101.43 83.9905 101.439 83.9328C101.224 83.8252 101.009 83.7176 100.787 83.6067C100.777 83.3316 100.777 83.3316 100.787 83.0362C100.95 82.8731 100.95 82.8731 101.169 82.8499C101.58 82.8852 101.928 83.0472 102.308 83.1995C102.586 83.2825 102.716 83.2892 102.988 83.1992C103.146 83.1161 103.146 83.1161 103.232 82.9547C103.283 82.5806 103.283 82.5806 103.13 82.2539C102.97 82.1255 102.822 82.0574 102.631 81.9816C102.234 81.811 101.956 81.6386 101.699 81.2837C101.527 80.7781 101.528 80.2543 101.689 79.7452C101.948 79.3934 102.243 79.1004 102.662 78.9607C102.789 78.9552 102.916 78.9538 103.044 78.9556C103.143 78.9567 103.143 78.9567 103.243 78.9579C103.319 78.9593 103.319 78.9593 103.395 78.9607C103.411 78.9087 103.427 78.8567 103.443 78.8031C103.464 78.7358 103.485 78.6684 103.507 78.599C103.538 78.4983 103.538 78.4983 103.57 78.3956C103.715 78.0435 103.974 78.1594 104.292 78.2271Z" fill="#F1874F"/>
<path d="M97.69 99.4805C97.9345 99.5008 97.9345 99.5008 98.0976 99.6639C98.1135 99.8403 98.1135 99.8403 98.1077 100.041C98.1063 100.107 98.1048 100.174 98.1033 100.243C98.1014 100.294 98.0995 100.345 98.0976 100.397C98.1467 100.395 98.1959 100.392 98.2466 100.389C98.7853 100.371 98.7853 100.371 99.04 100.52C99.0787 100.56 99.1173 100.6 99.1572 100.642C99.1363 100.833 99.1089 101.023 99.0757 101.213C98.8893 101.306 98.7794 101.305 98.5723 101.308C98.5048 101.31 98.4373 101.312 98.3677 101.314C98.2259 101.318 98.0841 101.32 97.9423 101.322C97.6043 101.333 97.4085 101.349 97.1137 101.527C96.9359 101.694 96.9359 101.694 96.9106 101.946C96.9675 102.25 97.0412 102.328 97.2825 102.517C97.5503 102.579 97.5503 102.579 97.8428 102.598C98.4302 102.669 98.751 102.813 99.1419 103.255C99.448 103.666 99.4546 104.058 99.4017 104.554C99.2396 105.072 98.9595 105.361 98.4949 105.634C98.3421 105.696 98.3421 105.696 98.0976 105.696C98.0994 105.752 98.1013 105.809 98.1033 105.868C98.1055 105.979 98.1055 105.979 98.1077 106.093C98.1096 106.167 98.1115 106.24 98.1135 106.316C98.0976 106.511 98.0976 106.511 97.9345 106.674C97.3985 106.627 97.3985 106.627 97.2825 106.511C97.2766 106.373 97.2756 106.236 97.2774 106.098C97.2781 106.023 97.2788 105.948 97.2796 105.871C97.2805 105.813 97.2815 105.755 97.2825 105.696C97.1882 105.7 97.1882 105.7 97.0921 105.704C97.0103 105.706 96.9286 105.709 96.8444 105.711C96.7224 105.715 96.7224 105.715 96.5979 105.719C96.5279 105.712 96.458 105.704 96.3859 105.696C96.2229 105.451 96.2229 105.451 96.233 105.201C96.3044 104.962 96.3044 104.962 96.4492 104.867C96.6429 104.794 96.7863 104.778 96.9924 104.777C97.0601 104.775 97.1278 104.773 97.1976 104.772C97.3394 104.769 97.4812 104.768 97.623 104.767C98.0213 104.767 98.0213 104.767 98.3469 104.566C98.454 104.322 98.4676 104.166 98.4236 103.902C98.2859 103.692 98.2859 103.692 98.016 103.576C97.8586 103.56 97.7005 103.548 97.5423 103.541C97.0611 103.515 96.7453 103.412 96.3859 103.087C96.0156 102.612 95.9104 102.21 95.9783 101.62C96.1275 101.142 96.379 100.834 96.7934 100.56C97.0685 100.494 97.0685 100.494 97.2825 100.479C97.2806 100.422 97.2787 100.365 97.2767 100.306C97.2753 100.232 97.2738 100.158 97.2723 100.082C97.2704 100.008 97.2685 99.9341 97.2665 99.8581C97.2918 99.5497 97.3909 99.5054 97.69 99.4805Z" fill="#F1874F"/>
<path d="M105.35 103.576C105.589 103.744 105.589 103.744 105.757 103.983C105.757 104.272 105.73 104.461 105.584 104.712C105.335 104.853 105.141 104.833 104.861 104.798C104.662 104.671 104.662 104.671 104.535 104.472C104.489 104.148 104.484 103.978 104.667 103.703C104.923 103.535 105.05 103.521 105.35 103.576Z" fill="#F1874F"/>
</g>
<defs>
<filter id="filter0_d_1048_11611" x="31.4453" y="28.2158" width="121.471" height="121.472" filterUnits="userSpaceOnUse" color-interpolation-filters="sRGB">
<feFlood flood-opacity="0" result="BackgroundImageFix"/>
<feColorMatrix in="SourceAlpha" type="matrix" values="0 0 0 0 0 0 0 0 0 0 0 0 0 0 0 0 0 0 127 0" result="hardAlpha"/>
<feOffset/>
<feGaussianBlur stdDeviation="3.3535"/>
<feComposite in2="hardAlpha" operator="out"/>
<feColorMatrix type="matrix" values="0 0 0 0 0 0 0 0 0 0 0 0 0 0 0 0 0 0 0.08 0"/>
<feBlend mode="normal" in2="BackgroundImageFix" result="effect1_dropShadow_1048_11611"/>
<feBlend mode="normal" in="SourceGraphic" in2="effect1_dropShadow_1048_11611" result="shape"/>
</filter>
<filter id="filter1_d_1048_11611" x="0.891197" y="0.642174" width="99.8602" height="99.8602" filterUnits="userSpaceOnUse" color-interpolation-filters="sRGB">
<feFlood flood-opacity="0" result="BackgroundImageFix"/>
<feColorMatrix in="SourceAlpha" type="matrix" values="0 0 0 0 0 0 0 0 0 0 0 0 0 0 0 0 0 0 127 0" result="hardAlpha"/>
<feOffset/>
<feGaussianBlur stdDeviation="18.6306"/>
<feComposite in2="hardAlpha" operator="out"/>
<feColorMatrix type="matrix" values="0 0 0 0 0 0 0 0 0 0 0 0 0 0 0 0 0 0 0.08 0"/>
<feBlend mode="normal" in2="BackgroundImageFix" result="effect1_dropShadow_1048_11611"/>
<feBlend mode="normal" in="SourceGraphic" in2="effect1_dropShadow_1048_11611" result="shape"/>
</filter>
<clipPath id="clip0_1048_11611">
<rect width="41.7325" height="41.7325" fill="white" transform="translate(71.6875 67.7119)"/>
</clipPath>
</defs>
</svg>
