<svg width="153" height="150" viewBox="0 0 153 150" fill="none" xmlns="http://www.w3.org/2000/svg">
<g filter="url(#filter0_d_1048_10528)">
<circle cx="91.9584" cy="88.9515" r="54.0287" fill="white"/>
</g>
<g filter="url(#filter1_d_1048_10528)">
<circle cx="50.5985" cy="50.5721" r="12.6688" fill="#FDF0E9"/>
</g>
<path d="M42.7288 50.1705C42.7288 48.7953 42.9752 47.7182 43.4681 46.9392C43.9688 46.1602 44.7955 45.7707 45.9482 45.7707C47.1008 45.7707 47.9235 46.1602 48.4163 46.9392C48.9171 47.7182 49.1675 48.7953 49.1675 50.1705C49.1675 51.5536 48.9171 52.6386 48.4163 53.4256C47.9235 54.2126 47.1008 54.606 45.9482 54.606C44.7955 54.606 43.9688 54.2126 43.4681 53.4256C42.9752 52.6386 42.7288 51.5536 42.7288 50.1705ZM47.5221 50.1705C47.5221 49.5822 47.4823 49.0894 47.4028 48.6919C47.3313 48.2865 47.1803 47.9567 46.9497 47.7023C46.7272 47.4479 46.3933 47.3207 45.9482 47.3207C45.503 47.3207 45.1652 47.4479 44.9347 47.7023C44.7121 47.9567 44.5611 48.2865 44.4816 48.6919C44.41 49.0894 44.3742 49.5822 44.3742 50.1705C44.3742 50.7746 44.41 51.2833 44.4816 51.6967C44.5531 52.1021 44.7041 52.432 44.9347 52.6863C45.1652 52.9328 45.503 53.056 45.9482 53.056C46.3933 53.056 46.7311 52.9328 46.9617 52.6863C47.1922 52.432 47.3432 52.1021 47.4148 51.6967C47.4863 51.2833 47.5221 50.7746 47.5221 50.1705ZM50.3657 52.9367V51.6251L54.2647 46.0449H56.2082V51.4821H57.2575V52.9367H56.2082V54.6299H54.5389V52.9367H50.3657ZM54.6462 47.8334L52.2019 51.4821H54.6462V47.8334Z" fill="#D86020"/>
<path d="M94.0401 68.1314C94.4834 68.4641 94.8506 68.8524 95.2103 69.2721C95.5899 69.706 95.9106 69.942 96.499 70.0103C96.7889 70.0291 97.0757 70.0306 97.3659 70.0235C98.3885 69.9999 99.1587 70.0919 99.9726 70.7755C100.589 71.3672 100.949 71.9822 101.051 72.8389C101.053 73.2535 101.041 73.6682 101.026 74.0825C101.015 74.7153 101.079 75.1633 101.523 75.6324C101.689 75.7866 101.858 75.9337 102.03 76.0804C102.753 76.7262 103.226 77.37 103.294 78.3706C103.309 79.3988 103.085 80.1499 102.395 80.9246C102.122 81.205 101.833 81.4547 101.519 81.6882C101.027 82.2308 101.015 82.7674 101.045 83.4719C101.069 84.6979 100.932 85.5503 100.068 86.4686C99.691 86.8231 99.2971 87.0101 98.8237 87.209C98.9196 87.4259 99.0159 87.6427 99.1124 87.8593C99.1438 87.9301 99.1752 88.0008 99.2076 88.0738C99.4337 88.5787 99.6701 89.0778 99.912 89.5753C100.003 89.7644 100.095 89.9536 100.186 90.1427C100.247 90.2684 100.308 90.3938 100.37 90.5189C100.458 90.6973 100.545 90.8766 100.631 91.056C100.658 91.1092 100.685 91.1624 100.713 91.2172C100.89 91.5924 100.901 91.8457 100.803 92.2467C100.703 92.4055 100.703 92.4055 100.556 92.4945C100.344 92.5216 100.344 92.5216 100.097 92.5152C100.008 92.513 99.9198 92.5109 99.8286 92.5087C99.6022 92.4965 99.3789 92.4781 99.1537 92.4532C99.087 92.4473 99.0203 92.4413 98.9516 92.4351C98.7413 92.4119 98.7413 92.4119 98.5077 92.3629C98.2148 92.3229 98.0353 92.3219 97.7516 92.4119C97.3246 92.7534 97.0054 93.2163 96.6794 93.6507C96.1805 94.2837 96.1805 94.2837 95.8392 94.4043C95.5805 94.3928 95.4855 94.3811 95.2773 94.2288C95.1717 94.0119 95.0865 93.8074 95.006 93.5814C94.9816 93.5156 94.9571 93.4498 94.9319 93.382C94.8533 93.1692 94.7765 92.9558 94.7 92.7423C94.6489 92.6014 94.5978 92.4605 94.5467 92.3196C94.3667 91.8212 94.1899 91.3216 94.0131 90.8221C93.9375 90.6086 93.8616 90.3952 93.7856 90.1818C93.7626 90.1164 93.7396 90.051 93.7159 89.9837C93.6287 89.6887 93.6287 89.6887 93.4628 89.4388C93.3526 89.4651 93.2426 89.4929 93.1329 89.5214C93.018 89.5287 92.9027 89.5322 92.7875 89.5324C92.7231 89.5325 92.6587 89.5326 92.5923 89.5327C92.4925 89.5322 92.4925 89.5322 92.3906 89.5317C92.3241 89.532 92.2575 89.5323 92.189 89.5327C92.1245 89.5326 92.0601 89.5325 91.9937 89.5324C91.9353 89.5323 91.877 89.5322 91.8168 89.5321C91.642 89.521 91.4867 89.4865 91.3184 89.4388C91.2032 89.7525 91.0881 90.0662 90.9731 90.38C90.9112 90.5487 90.8491 90.7173 90.787 90.886C90.5866 91.4311 90.3889 91.9768 90.2002 92.5261C90.1678 92.6194 90.1354 92.7128 90.1021 92.8089C90.0414 92.9843 89.9818 93.1601 89.9231 93.3362C89.6435 94.1404 89.6435 94.1404 89.2565 94.394C88.904 94.4058 88.7407 94.3624 88.4685 94.1366C88.4054 94.0614 88.3422 93.9862 88.2771 93.9088C88.2077 93.8275 88.1383 93.7461 88.0668 93.6623C87.9958 93.576 87.9251 93.4895 87.8545 93.403C87.7829 93.3165 87.7112 93.23 87.6396 93.1436C87.5101 92.9862 87.3814 92.8281 87.2536 92.6694C87.1264 92.5059 87.1264 92.5059 87.0297 92.4119C86.6232 92.384 86.2173 92.4062 85.8132 92.4532C85.4642 92.491 85.1177 92.5079 84.7668 92.5152C84.6699 92.5173 84.5731 92.5194 84.4733 92.5216C84.2255 92.4945 84.2255 92.4945 84.068 92.4106C83.9237 92.1476 83.9452 91.8765 83.9781 91.5861C84.0506 91.3501 84.1543 91.1352 84.2645 90.9147C84.3091 90.8215 84.3091 90.8215 84.3547 90.7265C84.4496 90.5289 84.5463 90.3323 84.6431 90.1356C84.7058 90.0059 84.7685 89.8762 84.831 89.7464C84.954 89.4916 85.0773 89.237 85.2011 88.9826C85.3744 88.6256 85.5458 88.2677 85.7149 87.9087C85.7396 87.8569 85.7643 87.805 85.7897 87.7516C85.9174 87.4915 85.9174 87.4915 85.9575 87.209C85.9066 87.1868 85.8557 87.1647 85.8032 87.1419C84.9315 86.738 84.2698 86.1796 83.8985 85.2824C83.6837 84.6043 83.7165 83.9171 83.747 83.2141C83.7624 82.6786 83.7306 82.2764 83.4008 81.8408C83.1969 81.6256 82.9766 81.4344 82.7513 81.2421C82.0283 80.5963 81.5552 79.9524 81.4871 78.9519C81.4729 77.9835 81.6598 77.1986 82.3167 76.4675C82.5758 76.2025 82.8428 75.9599 83.1327 75.7294C83.4913 75.4212 83.7054 75.0753 83.7529 74.5975C83.7542 74.3479 83.7466 74.1 83.7358 73.8506C83.7121 72.6246 83.8494 71.7721 84.7136 70.8539C85.2785 70.3221 85.9476 70.0111 86.7265 70.0316C86.8114 70.0329 86.8963 70.0343 86.9838 70.0358C87.1606 70.0394 87.3373 70.0437 87.5141 70.0487C88.2736 70.0591 88.879 69.9602 89.4479 69.4312C89.5961 69.2777 89.7361 69.1191 89.8751 68.9573C90.8844 67.7856 92.628 67.2924 94.0401 68.1314ZM90.8494 69.6902C90.688 69.8859 90.5362 70.0849 90.3854 70.289C89.8818 70.8285 89.1656 71.1919 88.4318 71.2697C88.0177 71.2714 87.6036 71.2597 87.1898 71.2447C86.5409 71.2337 86.11 71.3322 85.6105 71.7536C85.5668 71.8051 85.5231 71.8567 85.4781 71.9098C85.411 71.9858 85.411 71.9858 85.3425 72.0633C84.8933 72.7602 84.9494 73.4047 84.9847 74.2046C85.0066 75.0822 84.7923 75.7818 84.2307 76.463C83.9843 76.7162 83.7065 76.921 83.4262 77.135C83.0155 77.4878 82.7768 77.9224 82.7242 78.4612C82.7096 79.1384 82.879 79.6275 83.3347 80.1313C83.4968 80.2845 83.6682 80.41 83.8492 80.5401C84.4196 80.9684 84.8578 81.622 84.9678 82.3363C84.9817 82.7654 84.9638 83.194 84.9469 83.6227C84.9325 84.3216 85.025 84.8946 85.4778 85.4462C85.5391 85.4965 85.6005 85.5467 85.6637 85.5985C85.7554 85.6764 85.7554 85.6764 85.8489 85.7559C86.2011 85.9985 86.4893 86.0733 86.9147 86.0602C87.0027 86.0585 87.0906 86.0569 87.1813 86.0552C87.3639 86.0502 87.5464 86.0448 87.729 86.039C88.6371 86.0232 89.4469 86.213 90.1638 86.796C90.3843 87.032 90.5895 87.2804 90.7855 87.5371C91.1468 87.9959 91.5251 88.2395 92.1071 88.3265C92.7838 88.3203 93.2837 88.2924 93.7782 87.8035C93.9682 87.591 94.1472 87.3745 94.3104 87.1406C94.7489 86.5481 95.5478 86.1646 96.267 86.0527C96.423 86.0499 96.5791 86.0513 96.7351 86.0563C96.8682 86.0589 96.8682 86.0589 97.004 86.0616C97.1887 86.066 97.3734 86.0714 97.5581 86.0777C98.2219 86.0885 98.6597 86 99.1707 85.5688C99.2144 85.5173 99.2581 85.4658 99.3031 85.4127C99.3479 85.362 99.3927 85.3113 99.4388 85.2591C99.8879 84.5623 99.8319 83.9178 99.7965 83.1178C99.7746 82.2402 99.9889 81.5406 100.551 80.8595C100.797 80.6062 101.075 80.4015 101.355 80.1875C101.766 79.8347 102.004 79.4 102.057 78.8612C102.072 78.1841 101.902 77.695 101.447 77.1911C101.284 77.0379 101.113 76.9124 100.932 76.7824C100.362 76.3541 99.9234 75.7005 99.8135 74.9861C99.7996 74.5571 99.8175 74.1285 99.8344 73.6997C99.8499 72.9466 99.7251 72.34 99.2104 71.7704C98.8155 71.3807 98.4066 71.2549 97.8656 71.2513C97.6935 71.2545 97.5215 71.2589 97.3495 71.2646C96.1862 71.2986 95.3162 71.1342 94.4264 70.34C94.2121 70.1179 94.0351 69.8694 93.8504 69.6225C93.603 69.323 93.3373 69.1632 92.968 69.0399C92.0723 68.9704 91.4614 69.0066 90.8494 69.6902ZM87.3596 87.3741C87.251 87.5537 87.1613 87.723 87.0742 87.9126C87.0483 87.9666 87.0225 88.0206 86.9959 88.0763C86.9134 88.2496 86.8324 88.4235 86.7513 88.5974C86.6975 88.711 86.6436 88.8245 86.5896 88.938C86.4578 89.2156 86.3275 89.494 86.1978 89.7727C86.1233 89.9325 86.0482 90.0921 85.9729 90.2516C85.9276 90.3482 85.8824 90.4448 85.8357 90.5444C85.7955 90.63 85.7552 90.7157 85.7137 90.804C85.6169 90.9964 85.6169 90.9964 85.6276 91.1731C85.6808 91.1698 85.7341 91.1664 85.7889 91.1629C86.0307 91.1482 86.2724 91.1348 86.5142 91.1215C86.598 91.1162 86.6818 91.1109 86.7681 91.1054C86.8489 91.1011 86.9297 91.0969 87.0129 91.0925C87.1244 91.086 87.1244 91.086 87.2381 91.0794C87.577 91.0979 87.7302 91.2093 87.955 91.4589C88.0171 91.5384 88.0792 91.6178 88.1431 91.6996C88.3649 91.9817 88.5886 92.2429 88.8442 92.4945C89.094 91.8347 89.3413 91.174 89.5865 90.5124C89.6172 90.4297 89.6479 90.347 89.6796 90.2618C89.763 90.036 89.8451 89.8098 89.9267 89.5833C89.952 89.5151 89.9773 89.4469 90.0034 89.3766C90.0259 89.3132 90.0484 89.2499 90.0716 89.1846C90.0915 89.1297 90.1114 89.0749 90.1319 89.0184C90.1709 88.8256 90.1482 88.7144 90.0813 88.5303C89.6193 87.9124 89.1337 87.3679 88.3493 87.209C87.9877 87.1627 87.6666 87.1603 87.3596 87.3741ZM95.0453 88.0451C94.9762 88.1095 94.9762 88.1095 94.9057 88.1752C94.7725 88.3179 94.6884 88.4307 94.6175 88.6129C94.6346 88.9088 94.7562 89.1656 94.8649 89.4388C94.9292 89.6208 94.9917 89.8034 95.0542 89.986C95.1727 90.3308 95.2949 90.6744 95.4165 91.0183C95.467 91.1617 95.5175 91.3052 95.568 91.4486C95.6909 91.7973 95.8139 92.1459 95.9371 92.4945C96.3035 92.1301 96.6486 91.7512 96.9922 91.3654C97.1742 91.1731 97.1742 91.1731 97.3392 91.0905C97.4829 91.0892 97.6267 91.0934 97.7702 91.1005C97.8553 91.1045 97.9404 91.1085 98.028 91.1126C98.1171 91.1173 98.2062 91.1219 98.298 91.1267C98.3877 91.131 98.4774 91.1353 98.5699 91.1397C98.792 91.1505 99.0141 91.1616 99.2361 91.1731C98.9927 90.6207 98.7448 90.0704 98.4938 89.5214C98.4493 89.4238 98.4047 89.3262 98.3588 89.2256C98.2415 88.9697 98.1226 88.7145 98.0028 88.4597C97.9556 88.3589 97.9089 88.2579 97.8625 88.1567C97.7969 88.0137 97.7297 87.8715 97.6623 87.7293C97.6046 87.6056 97.6046 87.6056 97.5458 87.4794C97.4402 87.2816 97.4402 87.2816 97.2604 87.2245C96.3146 87.1373 95.7168 87.3752 95.0453 88.0451Z" fill="#F1874F"/>
<path d="M111.87 77.0256C112.521 77.499 112.783 78.1595 112.916 78.9334C113.124 80.2693 113.187 81.5983 113.19 82.9479C113.191 83.0475 113.191 83.0475 113.191 83.149C113.192 83.5006 113.193 83.8522 113.194 84.2038C113.194 84.4891 113.195 84.7744 113.197 85.0597C113.228 89.9008 112.063 92.9331 109.335 96.8922C108.255 98.4617 107.355 100.045 106.906 101.91C106.975 101.914 107.045 101.917 107.117 101.921C107.506 102.02 107.717 102.188 107.978 102.488C108.315 103.119 108.472 103.857 108.654 104.545C108.705 104.735 108.757 104.924 108.809 105.114C108.842 105.236 108.875 105.358 108.907 105.481C108.923 105.536 108.938 105.592 108.955 105.65C109.051 106.025 109.068 106.325 108.967 106.7C108.681 106.993 108.304 107.059 107.921 107.159C107.812 107.188 107.812 107.188 107.702 107.218C107.462 107.283 107.222 107.346 106.983 107.409C106.815 107.454 106.647 107.499 106.479 107.544C106.037 107.663 105.594 107.781 105.151 107.898C104.705 108.016 104.26 108.136 103.815 108.255C102.229 108.679 102.229 108.679 101.62 108.839C101.257 108.935 100.894 109.033 100.532 109.135C100.462 109.154 100.392 109.173 100.32 109.193C100.19 109.229 100.06 109.266 99.93 109.303C99.5086 109.419 99.0951 109.478 98.658 109.426C98.3613 109.192 98.3046 108.793 98.2089 108.439C98.1911 108.375 98.1733 108.311 98.155 108.246C98.1177 108.111 98.0807 107.976 98.044 107.841C97.9884 107.636 97.9313 107.432 97.8741 107.228C97.8379 107.097 97.8017 106.965 97.7656 106.834C97.7487 106.773 97.7319 106.713 97.7145 106.651C97.5661 106.099 97.4186 105.509 97.5961 104.951C97.615 104.886 97.6339 104.822 97.6534 104.756C97.7507 104.553 97.7507 104.553 97.984 104.34C98.1007 104.216 98.1007 104.216 98.1631 104.058C98.1272 103.724 98.0043 103.425 97.8848 103.113C97.8197 102.928 97.7554 102.744 97.6918 102.559C97.6595 102.465 97.6272 102.371 97.5939 102.275C97.4544 101.841 97.3543 101.401 97.261 100.955C97.2447 100.878 97.2283 100.801 97.2115 100.722C96.8481 98.9534 96.8034 97.0841 97.7385 95.4802C98.5516 94.29 99.7316 93.4278 100.864 92.5625C102.589 91.2439 104.04 89.7773 105.146 87.8924C105.486 87.3205 105.93 86.8473 106.576 86.6318C107.199 86.591 107.756 86.5636 108.308 86.8795C108.433 86.4759 108.508 86.0947 108.555 85.673C108.562 85.6139 108.568 85.5548 108.575 85.4939C108.597 85.302 108.617 85.1101 108.638 84.9181C108.645 84.852 108.652 84.7859 108.659 84.7178C108.843 83.0215 108.978 81.3269 109.015 79.6204C109.038 78.731 109.106 77.9217 109.75 77.2553C110.363 76.7127 111.153 76.6103 111.87 77.0256ZM110.782 78.0427C110.293 78.5322 110.277 78.9552 110.255 79.6341C110.249 79.7737 110.244 79.9133 110.238 80.0529C110.235 80.1265 110.232 80.2 110.229 80.2758C109.827 90.2617 109.827 90.2617 106.658 93.8994C106.622 93.9408 106.586 93.9822 106.55 94.0249C105.359 95.3929 105.359 95.3929 104.822 95.5089C104.643 95.515 104.643 95.515 104.349 95.4685C104.184 95.3034 104.184 95.3034 104.168 95.1066C104.17 95.0318 104.172 94.9571 104.174 94.8801C104.175 94.805 104.177 94.7298 104.178 94.6524C104.18 94.5947 104.182 94.537 104.184 94.4775C104.256 94.4448 104.256 94.4448 104.329 94.4114C104.521 94.3082 104.665 94.1941 104.828 94.0491C104.88 94.0036 104.931 93.9582 104.984 93.9113C106.355 92.628 107.96 90.6661 108.071 88.7038C108.05 88.37 107.892 88.2031 107.674 87.9686C107.398 87.827 107.121 87.7999 106.823 87.8706C106.458 88.1046 106.271 88.4018 106.065 88.7739C105.161 90.3406 103.913 91.7521 102.507 92.8804C102.357 93.0013 102.207 93.1231 102.058 93.2452C101.572 93.6426 101.086 94.0386 100.588 94.4214C99.4391 95.308 98.4476 96.2772 98.2456 97.781C98.1404 99.7982 98.6224 101.79 99.4003 103.645C100.095 103.519 100.773 103.341 101.454 103.159C101.571 103.128 101.688 103.097 101.805 103.066C102.048 103.001 102.291 102.937 102.533 102.872C102.845 102.788 103.156 102.706 103.468 102.623C103.708 102.559 103.949 102.495 104.189 102.431C104.304 102.4 104.419 102.37 104.534 102.339C104.694 102.297 104.853 102.254 105.013 102.211C105.104 102.187 105.195 102.163 105.289 102.138C105.5 102.084 105.5 102.084 105.668 101.993C105.723 101.771 105.77 101.551 105.813 101.327C106.26 99.1889 107.416 97.4724 108.625 95.692C111.05 92.1153 111.97 89.4637 111.958 85.1321C111.957 84.7874 111.958 84.4427 111.959 84.098C112.17 80.9938 112.17 80.9938 111.277 78.2079C111.195 78.1261 111.195 78.1261 111.112 78.0427C111.003 78.0427 110.894 78.0427 110.782 78.0427ZM105.662 103.229C105.596 103.247 105.53 103.264 105.462 103.282C105.245 103.339 105.028 103.397 104.811 103.455C104.659 103.495 104.508 103.536 104.356 103.576C104.039 103.66 103.721 103.744 103.404 103.829C102.998 103.938 102.592 104.045 102.186 104.152C101.873 104.235 101.561 104.318 101.248 104.402C101.098 104.442 100.949 104.481 100.799 104.521C100.589 104.576 100.38 104.632 100.17 104.689C100.078 104.713 100.078 104.713 99.9844 104.737C99.2989 104.898 99.2989 104.898 98.7792 105.317C98.7278 105.618 98.7828 105.829 98.8629 106.124C98.8846 106.205 98.8846 106.205 98.9068 106.288C98.9375 106.402 98.9689 106.516 99.0008 106.629C99.0498 106.804 99.0966 106.979 99.1432 107.154C99.2607 107.591 99.2607 107.591 99.4003 108.022C99.6569 108.15 99.8854 108.034 100.15 107.961C100.21 107.945 100.27 107.929 100.332 107.912C100.533 107.858 100.733 107.803 100.933 107.748C101.074 107.709 101.214 107.671 101.354 107.633C101.725 107.533 102.096 107.432 102.467 107.33C102.839 107.229 103.21 107.128 103.582 107.027C104.003 106.913 104.424 106.798 104.844 106.683C104.941 106.657 104.941 106.657 105.04 106.63C105.167 106.595 105.294 106.56 105.421 106.525C105.76 106.433 106.1 106.344 106.441 106.261C106.513 106.242 106.586 106.224 106.66 106.206C106.8 106.171 106.94 106.137 107.08 106.104C107.244 106.063 107.405 106.011 107.565 105.957C107.671 105.64 107.607 105.491 107.52 105.17C107.506 105.118 107.492 105.065 107.477 105.012C107.447 104.901 107.417 104.791 107.386 104.681C107.339 104.513 107.294 104.344 107.248 104.175C107.219 104.068 107.189 103.961 107.159 103.854C107.133 103.756 107.106 103.659 107.078 103.558C106.97 103.263 106.97 103.263 106.741 103.067C106.364 103.032 106.022 103.132 105.662 103.229Z" fill="#F1874F"/>
<path d="M74.7562 77.0242C75.275 77.4041 75.5843 77.9179 75.6936 78.5536C75.7336 78.8923 75.7517 79.2266 75.7633 79.5673C75.7688 79.7065 75.7743 79.8457 75.7799 79.9848C75.7828 80.0577 75.7857 80.1306 75.7886 80.2057C75.8418 81.5191 75.9268 82.8255 76.0607 84.1331C76.071 84.2351 76.071 84.2351 76.0816 84.3391C76.1659 85.1613 76.2668 85.9793 76.3906 86.7966C76.634 86.8129 76.634 86.8129 76.8246 86.7159C77.3085 86.5348 77.918 86.5488 78.4125 86.6911C79.0561 86.9949 79.3998 87.5373 79.7721 88.1179C80.3876 89.0687 81.0614 89.9327 81.834 90.7607C81.8966 90.8279 81.9592 90.8951 82.0238 90.9643C82.5305 91.4899 83.0813 91.9326 83.6588 92.3755C84.0799 92.701 84.4929 93.0369 84.9073 93.3708C84.9994 93.4449 85.0915 93.5189 85.1838 93.5927C86.5199 94.6614 87.542 95.8545 87.7723 97.6154C87.9143 99.4308 87.5327 101.141 87.0039 102.866C86.9812 102.941 86.9585 103.015 86.9351 103.092C86.8873 103.243 86.8369 103.394 86.7845 103.545C86.7475 103.654 86.7475 103.654 86.7097 103.766C86.6868 103.831 86.6638 103.896 86.6401 103.963C86.5985 104.145 86.5985 104.145 86.7137 104.302C86.8012 104.394 86.8908 104.484 86.982 104.572C87.2182 104.836 87.2542 105.117 87.2774 105.461C87.2039 106.18 86.9862 106.889 86.7965 107.584C86.7461 107.77 86.6969 107.956 86.6477 108.142C86.6155 108.261 86.5833 108.38 86.5509 108.498C86.5365 108.554 86.522 108.609 86.5071 108.665C86.3463 109.245 86.3463 109.245 86.1227 109.425C85.5994 109.491 85.1123 109.382 84.6107 109.244C84.5376 109.224 84.4645 109.205 84.3893 109.185C84.1493 109.121 83.9097 109.056 83.6701 108.991C83.5013 108.946 83.3325 108.901 83.1636 108.856C82.8099 108.761 82.4562 108.666 82.1028 108.57C81.6545 108.449 81.2059 108.329 80.7572 108.209C80.3243 108.093 79.8914 107.977 79.4586 107.861C79.3783 107.839 79.298 107.818 79.2152 107.795C78.7598 107.673 78.3049 107.549 77.8506 107.423C77.6979 107.38 77.5452 107.338 77.3923 107.296C77.1625 107.233 76.9332 107.168 76.704 107.102C76.6345 107.083 76.5649 107.064 76.4932 107.045C76.2133 106.963 76.0226 106.907 75.8089 106.704C75.5382 106.117 75.9547 105.175 76.114 104.572C76.1637 104.383 76.2116 104.193 76.2595 104.003C76.6316 102.564 76.6316 102.564 77.2617 102.075C77.5453 101.91 77.5453 101.91 77.8752 101.91C77.5898 100.853 77.2548 99.8923 76.7205 98.9368C76.6903 98.8819 76.6602 98.8269 76.6291 98.7703C76.1981 97.9899 75.7126 97.2578 75.1975 96.5309C73.8525 94.6301 72.5252 92.6954 71.9575 90.4097C71.9329 90.3126 71.9329 90.3126 71.9078 90.2135C71.6192 88.9682 71.5769 87.6723 71.5503 86.3991C71.5487 86.3292 71.5471 86.2593 71.5454 86.1872C71.375 78.5855 71.375 78.5855 72.5722 77.3152C73.2033 76.741 73.9919 76.5851 74.7562 77.0242ZM73.4575 78.2282C73.0029 78.8218 72.9663 79.7152 72.9163 80.4374C72.9099 80.5246 72.9036 80.6119 72.897 80.7017C72.4402 86.8237 72.4402 86.8237 74.1637 92.5776C74.2358 92.7142 74.2358 92.7142 74.3094 92.8535C74.7791 93.7134 75.3437 94.5091 75.8988 95.3151C77.3328 97.403 78.7101 99.4403 79.1123 101.993C80.3353 102.346 81.5608 102.69 82.7892 103.024C82.9832 103.077 83.1771 103.13 83.3709 103.184C83.6549 103.262 83.9392 103.34 84.2235 103.417C84.3102 103.441 84.3969 103.465 84.4862 103.49C84.6066 103.522 84.6066 103.522 84.7294 103.555C84.7996 103.575 84.8698 103.594 84.9422 103.614C85.1478 103.647 85.2701 103.639 85.4629 103.562C85.5651 103.374 85.5651 103.374 85.6279 103.136C85.6549 103.047 85.682 102.958 85.7099 102.866C85.7372 102.77 85.7646 102.675 85.7928 102.576C85.8216 102.479 85.8503 102.382 85.8798 102.281C86.4154 100.44 87.0261 98.2278 86.1124 96.4076C85.517 95.4215 84.5723 94.67 83.6682 93.9822C81.5596 92.3769 79.7551 90.645 78.4264 88.3247C78.2854 88.1147 78.175 87.9972 77.9576 87.8702C77.5436 87.8167 77.3802 87.8237 77.0143 88.0302C76.7317 88.3684 76.6843 88.5914 76.7205 89.0264C77.0664 90.9008 78.5116 92.8316 79.948 94.0377C80.571 94.5626 80.571 94.5626 80.6594 94.8346C80.6639 95.0139 80.6639 95.0139 80.5969 95.303C80.4319 95.4682 80.4319 95.4682 80.1246 95.5033C79.7423 95.4927 79.5183 95.3263 79.2463 95.0707C79.2004 95.0295 79.1545 94.9883 79.1072 94.9458C77.9438 93.8834 77.0298 92.6285 76.3016 91.2362C76.2367 91.1123 76.1699 90.9895 76.1026 90.8669C74.5868 87.8831 74.6679 83.4087 74.55 80.1275C74.5473 80.0591 74.5446 79.9906 74.5419 79.9201C74.537 79.7935 74.5327 79.6668 74.5291 79.5402C74.5102 79.0577 74.4706 78.5621 74.1741 78.1662C73.8796 77.9581 73.7197 77.9977 73.4575 78.2282ZM77.9013 103.156C77.7491 103.377 77.6925 103.595 77.6213 103.853C77.6068 103.906 77.5923 103.958 77.5774 104.012C77.547 104.122 77.5171 104.232 77.4876 104.342C77.4422 104.511 77.3953 104.68 77.3481 104.848C77.3188 104.955 77.2896 105.062 77.2605 105.17C77.234 105.267 77.2075 105.364 77.1802 105.465C77.1115 105.712 77.1115 105.712 77.2154 105.957C77.4327 106.047 77.4327 106.047 77.7055 106.112C77.7824 106.133 77.7824 106.133 77.8609 106.153C78.032 106.198 78.2034 106.242 78.3748 106.286C78.4954 106.317 78.6158 106.349 78.7363 106.381C79.0559 106.464 79.3758 106.547 79.6958 106.629C80.0126 106.711 80.3291 106.793 80.6457 106.876C81.017 106.973 81.3884 107.07 81.7599 107.166C82.3313 107.314 82.9019 107.464 83.471 107.62C83.57 107.647 83.6689 107.674 83.7709 107.702C83.9536 107.753 84.1362 107.803 84.3187 107.855C84.439 107.888 84.439 107.888 84.5618 107.922C84.6309 107.941 84.6999 107.96 84.771 107.98C84.9793 108.024 85.1683 108.029 85.3805 108.021C85.4811 107.665 85.5795 107.308 85.676 106.95C85.709 106.829 85.7427 106.707 85.777 106.586C85.8263 106.412 85.8734 106.237 85.9201 106.062C85.9437 105.981 85.9437 105.981 85.9677 105.898C86.035 105.638 86.0483 105.484 85.9566 105.228C85.7429 104.993 85.5794 104.949 85.2729 104.868C85.2191 104.853 85.1654 104.839 85.1101 104.824C84.9291 104.775 84.7476 104.728 84.566 104.682C84.4373 104.648 84.3087 104.613 84.18 104.579C83.8924 104.502 83.6044 104.427 83.3164 104.352C82.8661 104.234 82.4167 104.113 81.9674 103.992C81.5699 103.885 81.1723 103.778 80.7746 103.672C80.5772 103.619 80.38 103.566 80.1827 103.513C79.9035 103.438 79.6241 103.364 79.3446 103.29C79.2185 103.256 79.2185 103.256 79.0898 103.221C79.0118 103.201 78.9338 103.18 78.8535 103.159C78.7518 103.132 78.7518 103.132 78.6481 103.104C78.2589 103.028 78.2589 103.028 77.9013 103.156Z" fill="#F1874F"/>
<path d="M96.8083 73.0949C97.0191 73.2791 97.2208 73.4689 97.4201 73.6653C97.4839 73.7281 97.5477 73.7909 97.6135 73.8556C98.8956 75.1967 99.5198 77.0279 99.4943 78.8679C99.4102 80.5728 98.8059 82.1357 97.6676 83.4105C97.6067 83.4793 97.5457 83.5481 97.483 83.6189C96.2903 84.8894 94.6031 85.6718 92.8611 85.7462C90.8429 85.7963 89.0518 85.261 87.5566 83.8538C87.4911 83.7893 87.4256 83.7248 87.3581 83.6583C87.2943 83.5955 87.2305 83.5327 87.1648 83.468C85.8826 82.1269 85.2584 80.2957 85.284 78.4557C85.3681 76.7508 85.9723 75.1879 87.1107 73.9131C87.1716 73.8443 87.2325 73.7755 87.2953 73.7047C89.7453 71.0948 94.0385 70.8459 96.8083 73.0949ZM87.8858 74.8973C87.1094 75.8814 86.6341 77.0389 86.5333 78.2902C86.529 78.3428 86.5246 78.3953 86.5201 78.4495C86.4529 80.0002 87.1016 81.4717 88.0798 82.6415C89.1464 83.7917 90.6417 84.4611 92.2015 84.5232C93.8598 84.543 95.3606 83.9452 96.5583 82.7893C97.5483 81.7789 98.1317 80.4395 98.2449 79.0334C98.2493 78.9809 98.2536 78.9283 98.2581 78.8741C98.3253 77.3234 97.6766 75.8519 96.6985 74.6822C95.701 73.6065 94.2773 72.8991 92.8118 72.8078C90.8774 72.7393 89.1742 73.4503 87.8858 74.8973Z" fill="#F1874F"/>
<path d="M92.6388 73.7479C93.102 73.9896 93.2677 74.2612 93.4739 74.7183C93.5004 74.7743 93.5269 74.8303 93.5541 74.888C93.6075 75.0008 93.6602 75.1139 93.7124 75.2272C93.8231 75.4625 93.9424 75.6931 94.0625 75.9237C94.1234 76.0604 94.1234 76.0604 94.1234 76.2255C94.1853 76.2317 94.2473 76.238 94.3111 76.2444C94.594 76.2733 94.8768 76.3036 95.1595 76.3339C95.257 76.3437 95.3544 76.3534 95.4548 76.3635C96.6439 76.4935 96.6439 76.4935 97.0049 76.9017C97.1221 77.2124 97.1736 77.4724 97.0925 77.7947C96.9345 78.0496 96.7289 78.2465 96.5152 78.4554C96.4378 78.5345 96.3606 78.6137 96.2836 78.6931C95.6648 79.3259 95.6648 79.3259 95.3605 79.529C95.3922 80.0553 95.4641 80.557 95.577 81.0724C95.6714 81.533 95.7422 81.8835 95.608 82.337C95.4271 82.5552 95.2836 82.7059 95.0306 82.8325C94.5703 82.8702 94.2914 82.7849 93.8863 82.5692C93.8362 82.5432 93.7861 82.5172 93.7346 82.4904C93.3895 82.3096 93.0537 82.1148 92.7265 81.9034C92.4692 81.8097 92.3258 81.8494 92.0615 81.924C91.8011 82.0485 91.5529 82.1913 91.3038 82.337C91.1721 82.4128 91.0403 82.4886 90.9085 82.5641C90.8507 82.5977 90.793 82.6314 90.7335 82.666C90.4003 82.8446 90.1252 82.8641 89.7522 82.8325C89.4805 82.6939 89.3099 82.58 89.1388 82.3266C89.0157 81.6969 89.2124 81.026 89.3384 80.4062C89.4334 79.9695 89.4334 79.9695 89.4223 79.529C89.2709 79.3454 89.2709 79.3454 89.0615 79.1832C88.7418 78.9111 88.4357 78.6336 88.1388 78.3367C88.0706 78.2686 88.0025 78.2006 87.9322 78.1305C87.6803 77.8609 87.6659 77.6704 87.6732 77.3017C87.6992 77.0462 87.7678 76.9132 87.9377 76.7211C88.4702 76.4275 89.026 76.3937 89.6233 76.3339C89.723 76.3232 89.8227 76.3125 89.9254 76.3015C90.17 76.2754 90.4146 76.2501 90.6594 76.2255C90.6793 76.1602 90.6992 76.0948 90.7197 76.0275C90.8517 75.6523 91.0125 75.2956 91.1801 74.9351C91.2113 74.8653 91.2425 74.7954 91.2746 74.7235C91.5646 74.1005 91.9043 73.6772 92.6388 73.7479ZM92.3089 75.4823C92.2882 75.531 92.2674 75.5797 92.246 75.63C92.1511 75.8513 92.0548 76.072 91.9584 76.2926C91.9258 76.3693 91.8931 76.4461 91.8595 76.5251C91.8271 76.5988 91.7947 76.6725 91.7613 76.7485C91.7319 76.8164 91.7025 76.8843 91.6723 76.9542C91.5489 77.1643 91.4472 77.2599 91.2368 77.3818C91.0252 77.4326 91.0252 77.4326 90.7896 77.4601C90.7051 77.4705 90.6205 77.4809 90.5335 77.4916C90.4457 77.5013 90.358 77.5111 90.2677 77.5211C90.1342 77.5372 90.1342 77.5372 89.998 77.5535C89.7787 77.5798 89.5593 77.6051 89.3398 77.6295C89.6131 77.9531 89.8872 78.2727 90.1852 78.5741C90.24 78.6302 90.2949 78.6863 90.3514 78.7441C90.4837 78.8864 90.4837 78.8864 90.6594 78.8683C90.8278 79.3741 90.7233 79.8675 90.6182 80.3755C90.5262 80.8157 90.5262 80.8157 90.4945 81.2633C90.742 81.173 90.9711 81.0663 91.2004 80.9375C91.2526 80.9082 91.3049 80.8789 91.3587 80.8488C91.4664 80.7879 91.5738 80.7264 91.6809 80.6643C92.0127 80.4801 92.2518 80.3682 92.6388 80.4375C92.9044 80.5569 93.152 80.7012 93.4017 80.8504C93.5343 80.9281 93.667 81.0056 93.8 81.0827C93.8581 81.1173 93.9163 81.1519 93.9763 81.1875C94.1203 81.2759 94.1203 81.2759 94.2884 81.2633C94.2627 81.0792 94.2369 80.8951 94.211 80.711C94.1967 80.6085 94.1823 80.506 94.1675 80.4004C94.1414 80.2268 94.1125 80.0536 94.0773 79.8816C94.009 79.5297 94.0103 79.208 94.1234 78.8683C94.1689 78.8463 94.2144 78.8242 94.2613 78.8015C94.5475 78.6549 94.7455 78.4311 94.9688 78.2025C95.0145 78.1566 95.0602 78.1108 95.1073 78.0636C95.3372 77.8769 95.3372 77.8769 95.443 77.6295C95.3594 77.6202 95.3594 77.6202 95.2741 77.6107C95.021 77.5819 94.7681 77.5515 94.5152 77.5211C94.4275 77.5114 94.3397 77.5016 94.2494 77.4916C94.1226 77.476 94.1226 77.476 93.9933 77.4601C93.9155 77.4511 93.8378 77.442 93.7577 77.4326C93.5156 77.3744 93.3955 77.306 93.2162 77.134C93.1106 76.9542 93.1106 76.9542 93.0216 76.7485C92.9729 76.6379 92.9729 76.6379 92.9233 76.5251C92.8907 76.4484 92.858 76.3717 92.8244 76.2926C92.7905 76.215 92.7566 76.1373 92.7216 76.0573C92.6382 75.866 92.5557 75.6743 92.4739 75.4823C92.4195 75.4823 92.365 75.4823 92.3089 75.4823Z" fill="#F1874F"/>
<path d="M103.689 83.0805C103.953 83.1881 104.196 83.3257 104.442 83.4676C104.508 83.5035 104.574 83.5395 104.642 83.5765C105 83.7786 105.286 83.9579 105.504 84.3193C105.504 84.6333 105.487 84.8164 105.287 85.0626C105.012 85.1787 104.794 85.1424 104.514 85.0626C104.232 84.9309 103.967 84.7743 103.7 84.6135C103.628 84.5719 103.557 84.5303 103.483 84.4875C102.959 84.1777 102.959 84.1777 102.865 83.9889C102.817 83.387 102.817 83.387 102.999 83.1631C103.259 83.0535 103.406 83.051 103.689 83.0805Z" fill="#F1874F"/>
<path d="M81.585 83.08C81.7809 83.1626 81.7809 83.1626 81.9149 83.3278C81.9869 83.895 81.9869 83.895 81.7928 84.1472C81.501 84.3882 81.1871 84.5716 80.8582 84.7576C80.7937 84.7961 80.7292 84.8347 80.6628 84.8745C80.3374 85.0588 80.1562 85.1462 79.7747 85.136C79.5231 85.0621 79.5231 85.0621 79.3582 84.9279C79.2355 84.636 79.2721 84.4551 79.3582 84.1536C79.6771 83.8566 80.0488 83.6459 80.4252 83.431C80.4821 83.397 80.5391 83.3631 80.5977 83.3281C80.9395 83.1328 81.1806 83.0298 81.585 83.08Z" fill="#F1874F"/>
<path d="M105.257 72.2613C105.422 72.3956 105.422 72.3956 105.504 72.5917C105.504 72.8807 105.504 72.8807 105.422 73.1698C105.103 73.4668 104.731 73.6776 104.355 73.8924C104.298 73.9264 104.241 73.9604 104.182 73.9953C103.842 74.1897 103.597 74.2988 103.195 74.2434C102.999 74.1144 102.999 74.1144 102.865 73.9131C102.824 73.624 102.824 73.624 102.865 73.335C103.142 72.9816 103.537 72.7832 103.922 72.5659C103.986 72.5273 104.051 72.4887 104.117 72.4489C104.527 72.2165 104.782 72.122 105.257 72.2613Z" fill="#F1874F"/>
<path d="M80.2671 72.2616C80.5497 72.3932 80.8146 72.5499 81.0815 72.7107C81.1529 72.7522 81.2244 72.7938 81.298 72.8366C81.8223 73.1465 81.8223 73.1465 81.9166 73.3352C81.9462 73.6552 81.9633 73.8431 81.7825 74.1146C81.5204 74.2873 81.4048 74.2795 81.0918 74.2437C80.8285 74.1358 80.5856 73.9984 80.3392 73.8566C80.2734 73.8206 80.2076 73.7847 80.1398 73.7477C79.7816 73.5456 79.4952 73.3663 79.2773 73.0049C79.2773 72.6908 79.2941 72.5078 79.4938 72.2616C79.7692 72.1455 79.9873 72.1818 80.2671 72.2616Z" fill="#F1874F"/>
<path d="M105.58 77.9963C105.726 77.9934 105.726 77.9934 105.875 77.9904C106.67 77.9917 106.67 77.9917 106.931 78.2334C107.07 78.4557 107.07 78.4557 107.075 78.7551C106.977 79.0663 106.933 79.1243 106.658 79.2816C106.302 79.3334 105.944 79.3199 105.585 79.3177C105.487 79.3194 105.389 79.321 105.288 79.3227C105.194 79.3227 105.1 79.3226 105.003 79.3226C104.917 79.3227 104.831 79.3229 104.742 79.323C104.455 79.2711 104.358 79.1818 104.183 78.9512C104.142 78.6622 104.142 78.6622 104.183 78.3731C104.55 77.8914 105.023 77.9912 105.58 77.9963Z" fill="#F1874F"/>
<path d="M79.1928 78.0064C79.3399 78.0039 79.3399 78.0039 79.4899 78.0014C79.5841 78.0015 79.6783 78.0015 79.7753 78.0016C79.8613 78.0014 79.9474 78.0013 80.036 78.0011C80.3232 78.0531 80.4202 78.1424 80.5949 78.3729C80.6362 78.6619 80.6362 78.6619 80.5949 78.951C80.4208 79.18 80.3221 79.2703 80.0373 79.3254C79.7574 79.3283 79.4779 79.3304 79.198 79.3278C79.052 79.3308 79.052 79.3308 78.9031 79.3338C78.1079 79.3324 78.1079 79.3324 77.8475 79.0907C77.7083 78.8684 77.7083 78.8684 77.7031 78.569C77.9245 77.8649 78.5725 78.0027 79.1928 78.0064Z" fill="#F1874F"/>
<defs>
<filter id="filter0_d_1048_10528" x="31.2227" y="28.2158" width="121.471" height="121.472" filterUnits="userSpaceOnUse" color-interpolation-filters="sRGB">
<feFlood flood-opacity="0" result="BackgroundImageFix"/>
<feColorMatrix in="SourceAlpha" type="matrix" values="0 0 0 0 0 0 0 0 0 0 0 0 0 0 0 0 0 0 127 0" result="hardAlpha"/>
<feOffset/>
<feGaussianBlur stdDeviation="3.3535"/>
<feComposite in2="hardAlpha" operator="out"/>
<feColorMatrix type="matrix" values="0 0 0 0 0 0 0 0 0 0 0 0 0 0 0 0 0 0 0.08 0"/>
<feBlend mode="normal" in2="BackgroundImageFix" result="effect1_dropShadow_1048_10528"/>
<feBlend mode="normal" in="SourceGraphic" in2="effect1_dropShadow_1048_10528" result="shape"/>
</filter>
<filter id="filter1_d_1048_10528" x="0.668541" y="0.642174" width="99.8602" height="99.8602" filterUnits="userSpaceOnUse" color-interpolation-filters="sRGB">
<feFlood flood-opacity="0" result="BackgroundImageFix"/>
<feColorMatrix in="SourceAlpha" type="matrix" values="0 0 0 0 0 0 0 0 0 0 0 0 0 0 0 0 0 0 127 0" result="hardAlpha"/>
<feOffset/>
<feGaussianBlur stdDeviation="18.6306"/>
<feComposite in2="hardAlpha" operator="out"/>
<feColorMatrix type="matrix" values="0 0 0 0 0 0 0 0 0 0 0 0 0 0 0 0 0 0 0.08 0"/>
<feBlend mode="normal" in2="BackgroundImageFix" result="effect1_dropShadow_1048_10528"/>
<feBlend mode="normal" in="SourceGraphic" in2="effect1_dropShadow_1048_10528" result="shape"/>
</filter>
</defs>
</svg>
